<?xml version="1.0" encoding="UTF-8"?>
<!DOCTYPE svg PUBLIC "-//W3C//DTD SVG 1.1//EN" "http://www.w3.org/Graphics/SVG/1.1/DTD/svg11.dtd">
<svg xmlns="http://www.w3.org/2000/svg" version="1.1" width="1024px" height="1024px" style="shape-rendering:geometricPrecision; text-rendering:geometricPrecision; image-rendering:optimizeQuality; fill-rule:evenodd; clip-rule:evenodd" xmlns:xlink="http://www.w3.org/1999/xlink">
<g><path style="opacity:1" fill="#1e1d22" d="M -0.5,-0.5 C 340.833,-0.5 682.167,-0.5 1023.5,-0.5C 1023.5,340.833 1023.5,682.167 1023.5,1023.5C 682.167,1023.5 340.833,1023.5 -0.5,1023.5C -0.5,682.167 -0.5,340.833 -0.5,-0.5 Z"/></g>
<g><path style="opacity:1" fill="#fd02d2" d="M 431.5,199.5 C 442.167,199.5 452.833,199.5 463.5,199.5C 455.677,200.329 447.677,200.829 439.5,201C 442.7,201.101 445.7,201.768 448.5,203C 447.5,203.333 446.5,203.667 445.5,204C 445.833,204.333 446.167,204.667 446.5,205C 444.096,205.508 443.429,206.675 444.5,208.5C 442.899,209.204 441.565,210.371 440.5,212C 441.863,214.129 441.529,214.629 439.5,213.5C 435.713,215.754 431.713,216.421 427.5,215.5C 426.062,215.719 424.729,216.219 423.5,217C 434.341,217.17 445.008,217.67 455.5,218.5C 437.5,218.5 419.5,218.5 401.5,218.5C 394.901,218.121 388.401,217.121 382,215.5C 380.927,216.28 379.76,216.113 378.5,215C 378.888,213.475 378.888,211.808 378.5,210C 379.468,206.595 380.968,206.095 383,208.5C 382.968,206.422 383.134,204.422 383.5,202.5C 385.766,201.686 388.1,201.186 390.5,201C 404.339,200.831 418.006,200.331 431.5,199.5 Z"/></g>
<g><path style="opacity:1" fill="#fc0bc0" d="M 463.5,199.5 C 482.17,199.333 500.836,199.5 519.5,200C 508.505,200.5 497.505,200.667 486.5,200.5C 479.137,200.169 471.803,200.503 464.5,201.5C 465.478,202.801 465.145,203.968 463.5,205C 463.645,205.772 463.978,206.439 464.5,207C 469.087,207.234 469.421,208.9 465.5,212C 466.167,212.333 466.833,212.667 467.5,213C 465.5,213.667 464.167,215 463.5,217C 469.681,217.172 475.681,217.672 481.5,218.5C 472.833,218.5 464.167,218.5 455.5,218.5C 445.008,217.67 434.341,217.17 423.5,217C 424.729,216.219 426.062,215.719 427.5,215.5C 431.713,216.421 435.713,215.754 439.5,213.5C 441.529,214.629 441.863,214.129 440.5,212C 441.565,210.371 442.899,209.204 444.5,208.5C 443.429,206.675 444.096,205.508 446.5,205C 446.167,204.667 445.833,204.333 445.5,204C 446.5,203.667 447.5,203.333 448.5,203C 445.7,201.768 442.7,201.101 439.5,201C 447.677,200.829 455.677,200.329 463.5,199.5 Z"/></g>
<g><path style="opacity:1" fill="#fc0db4" d="M 486.5,200.5 C 490.298,201.59 493.631,203.09 496.5,205C 495.833,205.333 495.167,205.667 494.5,206C 495.833,207 497.167,208 498.5,209C 497.743,210.512 496.743,211.846 495.5,213C 497.513,213.875 497.513,215.209 495.5,217C 498.167,217.333 500.833,217.667 503.5,218C 496.174,218.5 488.841,218.666 481.5,218.5C 475.681,217.672 469.681,217.172 463.5,217C 464.167,215 465.5,213.667 467.5,213C 466.833,212.667 466.167,212.333 465.5,212C 469.421,208.9 469.087,207.234 464.5,207C 463.978,206.439 463.645,205.772 463.5,205C 465.145,203.968 465.478,202.801 464.5,201.5C 471.803,200.503 479.137,200.169 486.5,200.5 Z"/></g>
<g><path style="opacity:1" fill="#e1189a" d="M 388.5,199.5 C 441.694,198.178 495.027,198.178 548.5,199.5C 541.655,200.167 534.655,200.833 527.5,201.5C 527.5,203.833 527.5,206.167 527.5,208.5C 526.117,211.076 525.283,210.742 525,207.5C 524.749,209.433 524.249,211.266 523.5,213C 523.833,213.333 524.167,213.667 524.5,214C 520.875,215.887 517.208,216.887 513.5,217C 524.999,217.705 536.332,218.538 547.5,219.5C 494.5,219.5 441.5,219.5 388.5,219.5C 392.634,218.515 396.968,218.182 401.5,218.5C 419.5,218.5 437.5,218.5 455.5,218.5C 464.167,218.5 472.833,218.5 481.5,218.5C 488.841,218.666 496.174,218.5 503.5,218C 500.833,217.667 498.167,217.333 495.5,217C 497.513,215.209 497.513,213.875 495.5,213C 496.743,211.846 497.743,210.512 498.5,209C 497.167,208 495.833,207 494.5,206C 495.167,205.667 495.833,205.333 496.5,205C 493.631,203.09 490.298,201.59 486.5,200.5C 497.505,200.667 508.505,200.5 519.5,200C 500.836,199.5 482.17,199.333 463.5,199.5C 452.833,199.5 442.167,199.5 431.5,199.5C 417.167,199.5 402.833,199.5 388.5,199.5 Z"/></g>
<g><path style="opacity:1" fill="#1e1c22" d="M 388.5,219.5 C 441.5,219.5 494.5,219.5 547.5,219.5C 550.25,221.008 551.084,223.341 550,226.5C 543.662,242.497 536.829,258.164 529.5,273.5C 525.662,277.591 520.995,280.424 515.5,282C 492.836,282.5 470.169,282.667 447.5,282.5C 408.167,282.5 368.833,282.5 329.5,282.5C 328.305,282.134 327.639,281.301 327.5,280C 331.138,270.752 334.972,261.585 339,252.5C 350.013,233.328 366.513,222.328 388.5,219.5 Z"/></g>
<g><path style="opacity:1" fill="#fa1d98" d="M 548.5,199.5 C 559.64,201.135 567.473,207.135 572,217.5C 572.667,220.5 572.667,223.5 572,226.5C 565.218,244.064 557.885,261.398 550,278.5C 545.215,286.455 538.715,292.455 530.5,296.5C 530.586,295.504 530.252,294.671 529.5,294C 530.5,293.667 531.5,293.333 532.5,293C 529.956,291.437 529.956,289.937 532.5,288.5C 530.833,287.833 529.167,287.167 527.5,286.5C 528.286,284.17 529.286,281.503 530.5,278.5C 530.023,277.522 529.357,276.689 528.5,276C 529.252,275.329 529.586,274.496 529.5,273.5C 536.829,258.164 543.662,242.497 550,226.5C 551.084,223.341 550.25,221.008 547.5,219.5C 536.332,218.538 524.999,217.705 513.5,217C 517.208,216.887 520.875,215.887 524.5,214C 524.167,213.667 523.833,213.333 523.5,213C 524.249,211.266 524.749,209.433 525,207.5C 525.283,210.742 526.117,211.076 527.5,208.5C 527.5,206.167 527.5,203.833 527.5,201.5C 534.655,200.833 541.655,200.167 548.5,199.5 Z"/></g>
<g><path style="opacity:1" fill="#fc454c" d="M 734.5,278.5 C 732.621,278.393 732.288,278.893 733.5,280C 729.717,280.531 728.717,279.031 730.5,275.5C 729.185,273.684 727.685,272.017 726,270.5C 724.881,275.127 722.381,277.961 718.5,279C 720.285,280.163 722.285,280.83 724.5,281C 722.423,281.192 720.423,281.692 718.5,282.5C 720.59,282.823 722.924,282.99 725.5,283C 724.672,283.915 723.672,284.581 722.5,285C 723.636,286.53 724.636,287.863 725.5,289C 722.668,289.98 721.002,291.98 720.5,295C 718.913,295.862 717.246,296.529 715.5,297C 716.167,297.667 716.833,298.333 717.5,299C 716.529,300.204 715.529,300.704 714.5,300.5C 716.939,300.419 719.272,300.919 721.5,302C 720.539,305.334 718.206,308.001 714.5,310C 716.211,311.133 716.711,312.633 716,314.5C 715.444,312.405 714.944,312.238 714.5,314C 715.856,315.567 716.523,317.4 716.5,319.5C 713.203,319.329 712.869,319.995 715.5,321.5C 717.539,320.641 718.872,321.474 719.5,324C 718.312,325.944 716.646,327.444 714.5,328.5C 715.313,329.814 716.313,330.981 717.5,332C 716.167,332 714.833,332 713.5,332C 714.833,333 716.167,334 717.5,335C 717,335.5 716.5,336 716,336.5C 714.026,336.374 711.859,336.208 709.5,336C 712.167,335.333 712.167,334.667 709.5,334C 711.283,332.933 711.783,331.433 711,329.5C 709.667,330.833 708.333,332.167 707,333.5C 706.333,332.167 705.667,330.833 705,329.5C 705.291,332.786 705.125,335.953 704.5,339C 705.289,342.097 706.456,342.264 708,339.5C 708.167,339.833 708.333,340.167 708.5,340.5C 708.379,343.002 708.212,345.668 708,348.5C 707.026,346.122 706.359,346.456 706,349.5C 705.529,347.754 704.862,346.087 704,344.5C 704.42,348.788 704.92,353.121 705.5,357.5C 691.694,296.202 658.027,249.202 604.5,216.5C 605.025,215.808 605.692,215.308 606.5,215C 658.919,216.71 701.586,237.876 734.5,278.5 Z"/></g>
<g><path style="opacity:1" fill="#fa01e4" d="M 388.5,199.5 C 402.833,199.5 417.167,199.5 431.5,199.5C 418.006,200.331 404.339,200.831 390.5,201C 388.1,201.186 385.766,201.686 383.5,202.5C 383.134,204.422 382.968,206.422 383,208.5C 380.968,206.095 379.468,206.595 378.5,210C 378.888,211.808 378.888,213.475 378.5,215C 379.76,216.113 380.927,216.28 382,215.5C 388.401,217.121 394.901,218.121 401.5,218.5C 396.968,218.182 392.634,218.515 388.5,219.5C 366.513,222.328 350.013,233.328 339,252.5C 334.972,261.585 331.138,270.752 327.5,280C 327.639,281.301 328.305,282.134 329.5,282.5C 357.997,283.332 386.664,283.832 415.5,284C 396.833,284.333 378.167,284.667 359.5,285C 362.226,285.182 364.893,285.682 367.5,286.5C 364.296,287.204 361.129,287.87 358,288.5C 357.667,288.167 357.333,287.833 357,287.5C 355.919,289.622 355.252,291.622 355,293.5C 353.632,292.007 353.465,290.507 354.5,289C 353.365,288.251 352.365,288.417 351.5,289.5C 352.192,291.335 351.858,293.168 350.5,295C 351.973,295.71 352.64,296.876 352.5,298.5C 349.569,299.446 344.569,299.946 337.5,300C 363.5,300.333 389.5,300.667 415.5,301C 379.502,301.5 343.502,301.667 307.5,301.5C 305.629,301.141 304.129,300.141 303,298.5C 302.333,294.167 302.333,289.833 303,285.5C 310.141,268.553 317.808,251.887 326,235.5C 341.313,214.04 362.147,202.04 388.5,199.5 Z"/></g>
<g><path style="opacity:1" fill="#fc4547" d="M 734.5,278.5 C 756.462,302.977 771.462,331.31 779.5,363.5C 778.883,363.389 778.383,363.056 778,362.5C 777.801,364.402 776.967,365.902 775.5,367C 775.833,367.333 776.167,367.667 776.5,368C 774.793,368.195 773.126,368.195 771.5,368C 772.891,369.65 774.391,370.15 776,369.5C 776.333,372.833 776.667,376.167 777,379.5C 777.333,379.167 777.667,378.833 778,378.5C 778.707,380.081 779.54,381.581 780.5,383C 779.256,383.456 778.423,382.956 778,381.5C 774.921,386.141 772.255,386.141 770,381.5C 769.626,382.416 769.126,383.25 768.5,384C 769.624,384.249 770.624,384.749 771.5,385.5C 770.471,385.296 769.471,385.796 768.5,387C 767.235,388.981 767.235,390.981 768.5,393C 767.5,393.667 766.5,393.667 765.5,393C 765.07,392.08 764.736,391.247 764.5,390.5C 761.825,393.01 762.492,394.51 766.5,395C 766,395.5 765.5,396 765,396.5C 763.989,395.663 762.822,395.33 761.5,395.5C 761.64,397.124 760.973,398.29 759.5,399C 760.849,399.772 761.682,400.939 762,402.5C 762.692,401.975 763.192,401.308 763.5,400.5C 762.572,399.232 762.405,397.899 763,396.5C 764.167,398.333 765.667,399.833 767.5,401C 766.833,401.333 766.167,401.667 765.5,402C 767.994,403.912 767.827,405.746 765,407.5C 764.667,406.5 764.333,405.5 764,404.5C 761.558,407.048 759.892,410.048 759,413.5C 758.667,412.833 758.333,412.167 758,411.5C 757.338,415.593 755.505,419.093 752.5,422C 753.174,423.751 753.507,425.417 753.5,427C 753.167,427.167 752.833,427.333 752.5,427.5C 751.813,425.726 750.98,424.059 750,422.5C 748.296,424.613 746.463,426.113 744.5,427C 746.578,426.968 748.578,427.134 750.5,427.5C 749.689,428.216 749.022,429.05 748.5,430C 749.707,431.3 750.374,432.8 750.5,434.5C 749.5,434.5 748.5,434.5 747.5,434.5C 747.657,433.127 747.49,431.793 747,430.5C 746.308,431.025 745.808,431.692 745.5,432.5C 746.101,434.725 746.434,436.891 746.5,439C 744.963,440.11 744.297,441.61 744.5,443.5C 743.178,443.67 742.011,443.337 741,442.5C 739.513,444.985 737.679,447.152 735.5,449C 736.328,449.915 737.328,450.581 738.5,451C 737.5,451.333 736.5,451.667 735.5,452C 736.696,452.654 736.696,453.154 735.5,453.5C 734.226,451.15 732.893,451.317 731.5,454C 733.686,454.604 733.852,455.77 732,457.5C 731.667,456.833 731.333,456.167 731,455.5C 730.221,456.728 729.221,457.728 728,458.5C 726.118,457.394 724.284,457.394 722.5,458.5C 723.397,458.669 724.397,459.002 725.5,459.5C 723.978,461.156 724.311,462.323 726.5,463C 723.489,464.227 720.489,466.227 717.5,469C 719.394,470.079 719.727,471.413 718.5,473C 721.167,473.667 721.167,474.333 718.5,475C 719.554,476.388 719.72,477.888 719,479.5C 718,480.833 717,480.833 716,479.5C 715.383,480.449 715.549,481.282 716.5,482C 714.721,481.021 713.055,481.354 711.5,483C 716.715,485.595 716.215,487.429 710,488.5C 709.228,488.355 708.561,488.022 708,487.5C 707.333,488.833 706.333,489.833 705,490.5C 704.316,491.784 704.483,492.951 705.5,494C 703.511,496.247 701.511,497.747 699.5,498.5C 699.938,499.506 700.604,499.506 701.5,498.5C 703.461,499.848 703.628,501.181 702,502.5C 701.692,501.692 701.192,501.025 700.5,500.5C 698.435,503.261 696.935,505.928 696,508.5C 694.866,507.575 693.699,506.575 692.5,505.5C 692.608,504.558 692.941,503.725 693.5,503C 692.175,503.148 691.008,502.982 690,502.5C 689.333,503.5 689.333,504.5 690,505.5C 690.654,504.304 691.154,504.304 691.5,505.5C 687.639,507.806 687.639,509.973 691.5,512C 689.112,512.865 687.612,512.032 687,509.5C 686.228,510.849 685.061,511.682 683.5,512C 683.833,512.333 684.167,512.667 684.5,513C 682.603,514.11 680.77,514.276 679,513.5C 678.544,514.744 679.044,515.577 680.5,516C 679.874,516.75 679.374,517.584 679,518.5C 678.333,517.167 677.667,517.167 677,518.5C 676.51,519.793 676.343,521.127 676.5,522.5C 674.403,522.003 672.57,521.67 671,521.5C 670.833,521.833 670.667,522.167 670.5,522.5C 671.729,523.281 673.062,523.781 674.5,524C 673.853,525.993 672.187,527.659 669.5,529C 670.833,530.84 670.666,531.34 669,530.5C 668.602,533.232 667.102,535.065 664.5,536C 665.167,536.333 665.833,536.667 666.5,537C 665.333,537.5 664.5,538.333 664,539.5C 662.853,538.542 661.853,538.875 661,540.5C 659.125,539.377 656.958,539.377 654.5,540.5C 654.392,542.783 653.559,544.783 652,546.5C 651.851,543.721 651.017,543.221 649.5,545C 650.763,546.705 651.097,548.372 650.5,550C 649.833,550.667 649.167,550.667 648.5,550C 649.451,549.282 649.617,548.449 649,547.5C 647.992,547.982 646.825,548.148 645.5,548C 647.741,550.202 648.408,552.702 647.5,555.5C 646.583,554.873 645.583,554.539 644.5,554.5C 644.631,553.761 644.464,553.094 644,552.5C 633.135,563.215 621.301,572.548 608.5,580.5C 608.434,571.02 608.268,561.354 608,551.5C 607.654,549.782 607.154,548.115 606.5,546.5C 610.422,546.08 610.422,544.58 606.5,542C 607.5,541.667 608.5,541.333 609.5,541C 606.833,538.76 607.333,537.26 611,536.5C 612.598,532.516 614.765,529.016 617.5,526C 615.109,525.309 615.109,524.309 617.5,523C 617.043,522.586 616.709,522.086 616.5,521.5C 618.135,520.319 619.802,520.319 621.5,521.5C 622.096,520.284 622.263,518.951 622,517.5C 623.871,518.668 625.371,518.168 626.5,516C 625.167,515.667 623.833,515.333 622.5,515C 623.833,514 625.167,513 626.5,512C 626.167,511.667 625.833,511.333 625.5,511C 626.448,510.517 627.448,510.351 628.5,510.5C 628.326,507.155 629.659,505.988 632.5,507C 631.241,506.077 629.908,505.243 628.5,504.5C 629.59,502.997 630.757,502.664 632,503.5C 632.311,502.258 631.811,501.258 630.5,500.5C 631.951,499.094 633.284,497.594 634.5,496C 631.833,495.333 631.833,494.667 634.5,494C 632.536,493.376 630.869,493.876 629.5,495.5C 629.167,495 628.833,494.5 628.5,494C 631.659,492.465 634.159,489.632 636,485.5C 638.391,486.602 638.891,485.936 637.5,483.5C 638.167,482.5 638.833,481.5 639.5,480.5C 638.15,478.98 636.817,478.313 635.5,478.5C 637.167,477.833 638.833,477.167 640.5,476.5C 636.254,472.832 636.587,469.666 641.5,467C 640.5,466.667 639.5,466.333 638.5,466C 640.044,465.71 641.377,465.044 642.5,464C 639.833,463.333 639.833,462.667 642.5,462C 641.306,459.342 642.306,458.176 645.5,458.5C 645.67,457.178 645.337,456.011 644.5,455C 646.194,453.272 647.361,453.772 648,456.5C 648.667,453.833 649.333,453.833 650,456.5C 653.203,455.431 654.203,453.431 653,450.5C 653.333,450.833 653.667,451.167 654,451.5C 654.171,459.344 654.671,467.011 655.5,474.5C 657.108,477.21 658.275,480.21 659,483.5C 665.675,491.672 672.509,499.672 679.5,507.5C 680.478,507.023 681.311,506.357 682,505.5C 705.741,458.719 713.574,409.386 705.5,357.5C 704.92,353.121 704.42,348.788 704,344.5C 704.862,346.087 705.529,347.754 706,349.5C 706.359,346.456 707.026,346.122 708,348.5C 708.212,345.668 708.379,343.002 708.5,340.5C 708.333,340.167 708.167,339.833 708,339.5C 706.456,342.264 705.289,342.097 704.5,339C 705.125,335.953 705.291,332.786 705,329.5C 705.667,330.833 706.333,332.167 707,333.5C 708.333,332.167 709.667,330.833 711,329.5C 711.783,331.433 711.283,332.933 709.5,334C 712.167,334.667 712.167,335.333 709.5,336C 711.859,336.208 714.026,336.374 716,336.5C 716.5,336 717,335.5 717.5,335C 716.167,334 714.833,333 713.5,332C 714.833,332 716.167,332 717.5,332C 716.313,330.981 715.313,329.814 714.5,328.5C 716.646,327.444 718.312,325.944 719.5,324C 718.872,321.474 717.539,320.641 715.5,321.5C 712.869,319.995 713.203,319.329 716.5,319.5C 716.523,317.4 715.856,315.567 714.5,314C 714.944,312.238 715.444,312.405 716,314.5C 716.711,312.633 716.211,311.133 714.5,310C 718.206,308.001 720.539,305.334 721.5,302C 719.272,300.919 716.939,300.419 714.5,300.5C 715.529,300.704 716.529,300.204 717.5,299C 716.833,298.333 716.167,297.667 715.5,297C 717.246,296.529 718.913,295.862 720.5,295C 721.002,291.98 722.668,289.98 725.5,289C 724.636,287.863 723.636,286.53 722.5,285C 723.672,284.581 724.672,283.915 725.5,283C 722.924,282.99 720.59,282.823 718.5,282.5C 720.423,281.692 722.423,281.192 724.5,281C 722.285,280.83 720.285,280.163 718.5,279C 722.381,277.961 724.881,275.127 726,270.5C 727.685,272.017 729.185,273.684 730.5,275.5C 728.717,279.031 729.717,280.531 733.5,280C 732.288,278.893 732.621,278.393 734.5,278.5 Z"/></g>
<g><path style="opacity:1" fill="#f701d4" d="M 329.5,282.5 C 368.833,282.5 408.167,282.5 447.5,282.5C 452.64,283.488 457.974,283.821 463.5,283.5C 452.674,284.33 441.674,284.83 430.5,285C 431.833,285.333 433.167,285.667 434.5,286C 432.939,286.318 431.772,287.151 431,288.5C 428.974,287.981 426.974,287.647 425,287.5C 424.966,289.18 424.799,290.68 424.5,292C 425.833,293.333 427.167,294.667 428.5,296C 426.109,297.309 426.109,298.309 428.5,299C 425.833,299.333 423.167,299.667 420.5,300C 432.495,300.5 444.495,300.667 456.5,300.5C 457.167,300.5 457.5,300.833 457.5,301.5C 450.646,301.176 443.979,301.509 437.5,302.5C 393.997,302.832 350.663,302.499 307.5,301.5C 343.502,301.667 379.502,301.5 415.5,301C 389.5,300.667 363.5,300.333 337.5,300C 344.569,299.946 349.569,299.446 352.5,298.5C 352.64,296.876 351.973,295.71 350.5,295C 351.858,293.168 352.192,291.335 351.5,289.5C 352.365,288.417 353.365,288.251 354.5,289C 353.465,290.507 353.632,292.007 355,293.5C 355.252,291.622 355.919,289.622 357,287.5C 357.333,287.833 357.667,288.167 358,288.5C 361.129,287.87 364.296,287.204 367.5,286.5C 364.893,285.682 362.226,285.182 359.5,285C 378.167,284.667 396.833,284.333 415.5,284C 386.664,283.832 357.997,283.332 329.5,282.5 Z"/></g>
<g><path style="opacity:1" fill="#fc03c6" d="M 463.5,283.5 C 477.01,283.171 490.344,283.504 503.5,284.5C 490.021,283.892 476.688,284.725 463.5,287C 463.833,287.333 464.167,287.667 464.5,288C 463.751,289.734 463.251,291.567 463,293.5C 461.992,293.982 460.825,294.148 459.5,294C 460.727,295.587 460.394,296.921 458.5,298C 459.167,298.333 459.833,298.667 460.5,299C 458.942,299.21 457.609,299.71 456.5,300.5C 444.495,300.667 432.495,300.5 420.5,300C 423.167,299.667 425.833,299.333 428.5,299C 426.109,298.309 426.109,297.309 428.5,296C 427.167,294.667 425.833,293.333 424.5,292C 424.799,290.68 424.966,289.18 425,287.5C 426.974,287.647 428.974,287.981 431,288.5C 431.772,287.151 432.939,286.318 434.5,286C 433.167,285.667 431.833,285.333 430.5,285C 441.674,284.83 452.674,284.33 463.5,283.5 Z"/></g>
<g><path style="opacity:1" fill="#f611ac" d="M 529.5,273.5 C 529.586,274.496 529.252,275.329 528.5,276C 529.357,276.689 530.023,277.522 530.5,278.5C 529.286,281.503 528.286,284.17 527.5,286.5C 529.167,287.167 530.833,287.833 532.5,288.5C 529.956,289.937 529.956,291.437 532.5,293C 531.5,293.333 530.5,293.667 529.5,294C 530.252,294.671 530.586,295.504 530.5,296.5C 525.857,298.996 520.857,300.829 515.5,302C 489.502,302.5 463.502,302.667 437.5,302.5C 443.979,301.509 450.646,301.176 457.5,301.5C 470.171,301.667 482.838,301.5 495.5,301C 490.833,300.667 486.167,300.333 481.5,300C 485.167,299.667 488.833,299.333 492.5,299C 491.833,298.667 491.167,298.333 490.5,298C 491.471,296.796 492.471,296.296 493.5,296.5C 491.027,294.902 491.027,293.402 493.5,292C 492.833,291.667 492.167,291.333 491.5,291C 492.701,290.097 493.535,288.931 494,287.5C 494.419,288.672 495.085,289.672 496,290.5C 496.034,288.82 496.201,287.32 496.5,286C 499.036,285.814 501.369,285.314 503.5,284.5C 490.344,283.504 477.01,283.171 463.5,283.5C 457.974,283.821 452.64,283.488 447.5,282.5C 470.169,282.667 492.836,282.5 515.5,282C 520.995,280.424 525.662,277.591 529.5,273.5 Z"/></g>
<g><path style="opacity:1" fill="#fd07bc" d="M 503.5,284.5 C 501.369,285.314 499.036,285.814 496.5,286C 496.201,287.32 496.034,288.82 496,290.5C 495.085,289.672 494.419,288.672 494,287.5C 493.535,288.931 492.701,290.097 491.5,291C 492.167,291.333 492.833,291.667 493.5,292C 491.027,293.402 491.027,294.902 493.5,296.5C 492.471,296.296 491.471,296.796 490.5,298C 491.167,298.333 491.833,298.667 492.5,299C 488.833,299.333 485.167,299.667 481.5,300C 486.167,300.333 490.833,300.667 495.5,301C 482.838,301.5 470.171,301.667 457.5,301.5C 457.5,300.833 457.167,300.5 456.5,300.5C 457.609,299.71 458.942,299.21 460.5,299C 459.833,298.667 459.167,298.333 458.5,298C 460.394,296.921 460.727,295.587 459.5,294C 460.825,294.148 461.992,293.982 463,293.5C 463.251,291.567 463.751,289.734 464.5,288C 464.167,287.667 463.833,287.333 463.5,287C 476.688,284.725 490.021,283.892 503.5,284.5 Z"/></g>
<g><path style="opacity:1" fill="#f901e4" d="M 360.5,321.5 C 373.994,322.331 387.661,322.831 401.5,323C 384.833,323.333 368.167,323.667 351.5,324C 354.5,324.333 357.5,324.667 360.5,325C 357.167,325.333 353.833,325.667 350.5,326C 353.051,327.516 352.718,328.349 349.5,328.5C 349.5,327.5 349.5,326.5 349.5,325.5C 348.325,325.281 347.325,325.614 346.5,326.5C 347.641,327.425 347.641,328.259 346.5,329C 347.471,330.204 348.471,330.704 349.5,330.5C 348.737,331.719 347.737,332.719 346.5,333.5C 347.025,334.192 347.692,334.692 348.5,335C 346.899,335.273 345.399,335.773 344,336.5C 341.599,335.398 339.099,335.231 336.5,336C 341.269,336.909 341.435,337.743 337,338.5C 335.564,338.441 334.231,338.108 333,337.5C 328.92,338.3 324.753,338.8 320.5,339C 343.167,339.333 365.833,339.667 388.5,340C 361.33,340.168 334.33,340.668 307.5,341.5C 305.012,342.74 303.179,344.74 302,347.5C 294.943,365.281 287.609,382.948 280,400.5C 279.405,401.899 279.572,403.232 280.5,404.5C 306.825,405.5 333.158,405.833 359.5,405.5C 348.992,406.167 338.326,406.833 327.5,407.5C 329.636,411.087 328.303,412.754 323.5,412.5C 323.815,414.226 323.981,415.893 324,417.5C 322.187,415.528 321.02,415.528 320.5,417.5C 321.198,418.863 321.198,420.029 320.5,421C 321,421.5 321.5,422 322,422.5C 322.787,421.289 323.454,420.289 324,419.5C 325.722,419.611 325.888,420.111 324.5,421C 325.833,421.333 327.167,421.667 328.5,422C 328.167,422.333 327.833,422.667 327.5,423C 346.671,423.168 365.671,423.668 384.5,424.5C 342.833,424.5 301.167,424.5 259.5,424.5C 253.835,422.045 251.669,417.712 253,411.5C 265.316,382.864 277.649,354.197 290,325.5C 291.214,323.951 292.714,322.785 294.5,322C 316.497,321.5 338.497,321.333 360.5,321.5 Z"/></g>
<g><path style="opacity:1" fill="#f901d5" d="M 360.5,321.5 C 395.004,321.168 429.337,321.502 463.5,322.5C 452.844,323.111 442.177,323.611 431.5,324C 437.837,324.837 437.503,325.503 430.5,326C 431.552,327.716 430.886,328.716 428.5,329C 429.978,330.193 431.312,330.693 432.5,330.5C 430.944,332.701 429.777,332.701 429,330.5C 427.92,333.614 427.754,336.614 428.5,339.5C 437.839,339.334 447.173,339.5 456.5,340C 457.056,340.383 457.389,340.883 457.5,341.5C 407.5,341.5 357.5,341.5 307.5,341.5C 334.33,340.668 361.33,340.168 388.5,340C 365.833,339.667 343.167,339.333 320.5,339C 324.753,338.8 328.92,338.3 333,337.5C 334.231,338.108 335.564,338.441 337,338.5C 341.435,337.743 341.269,336.909 336.5,336C 339.099,335.231 341.599,335.398 344,336.5C 345.399,335.773 346.899,335.273 348.5,335C 347.692,334.692 347.025,334.192 346.5,333.5C 347.737,332.719 348.737,331.719 349.5,330.5C 348.471,330.704 347.471,330.204 346.5,329C 347.641,328.259 347.641,327.425 346.5,326.5C 347.325,325.614 348.325,325.281 349.5,325.5C 349.5,326.5 349.5,327.5 349.5,328.5C 352.718,328.349 353.051,327.516 350.5,326C 353.833,325.667 357.167,325.333 360.5,325C 357.5,324.667 354.5,324.333 351.5,324C 368.167,323.667 384.833,323.333 401.5,323C 387.661,322.831 373.994,322.331 360.5,321.5 Z"/></g>
<g><path style="opacity:1" fill="#fa03c5" d="M 463.5,322.5 C 486.352,326.252 504.352,337.586 517.5,356.5C 516.061,357.509 514.728,357.176 513.5,355.5C 511.355,352.386 509.189,349.386 507,346.5C 505.333,345.167 503.667,343.833 502,342.5C 500.502,344.614 498.669,345.114 496.5,344C 496.957,344.414 497.291,344.914 497.5,345.5C 496.833,345.833 496.167,346.167 495.5,346.5C 496.427,348.622 496.427,350.955 495.5,353.5C 494.448,353.351 493.448,353.517 492.5,354C 497.323,358.655 501.489,363.822 505,369.5C 505.47,370.577 505.303,371.577 504.5,372.5C 493.952,354.653 478.285,344.32 457.5,341.5C 457.389,340.883 457.056,340.383 456.5,340C 447.173,339.5 437.839,339.334 428.5,339.5C 427.754,336.614 427.92,333.614 429,330.5C 429.777,332.701 430.944,332.701 432.5,330.5C 431.312,330.693 429.978,330.193 428.5,329C 430.886,328.716 431.552,327.716 430.5,326C 437.503,325.503 437.837,324.837 431.5,324C 442.177,323.611 452.844,323.111 463.5,322.5 Z"/></g>
<g><path style="opacity:1" fill="#fc4741" d="M 779.5,363.5 C 782.907,373.1 784.907,383.1 785.5,393.5C 786.782,411.499 786.782,429.499 785.5,447.5C 785.121,459.915 783.121,471.915 779.5,483.5C 780.83,475.841 782.163,468.174 783.5,460.5C 783.333,459.833 783.167,459.167 783,458.5C 782.027,460.392 781.36,462.392 781,464.5C 780.517,463.552 780.351,462.552 780.5,461.5C 779.178,461.67 778.011,461.337 777,460.5C 776.333,463.167 775.667,463.167 775,460.5C 774,462.167 773,463.833 772,465.5C 770.796,464.529 770.296,463.529 770.5,462.5C 768.299,464.056 768.299,465.223 770.5,466C 769.167,467.333 769.167,468.667 770.5,470C 767.876,470.576 767.209,471.91 768.5,474C 764.735,475.872 764.735,476.705 768.5,476.5C 766.892,477.318 765.225,477.985 763.5,478.5C 762.304,478.154 762.304,477.654 763.5,477C 762.5,476.333 761.5,476.333 760.5,477C 761.833,477.667 761.833,478.333 760.5,479C 766.175,479.464 766.508,480.131 761.5,481C 759.699,482.387 759.032,483.887 759.5,485.5C 758.264,484.754 756.93,484.421 755.5,484.5C 755.351,485.552 755.517,486.552 756,487.5C 756.333,487.167 756.667,486.833 757,486.5C 757.374,487.416 757.874,488.25 758.5,489C 757.584,489.374 756.75,489.874 756,490.5C 754.751,488.008 753.584,488.175 752.5,491C 753.517,492.049 753.684,493.216 753,494.5C 749.387,495.363 747.387,497.697 747,501.5C 746.667,500.833 746.333,500.167 746,499.5C 745.685,502.147 744.518,502.813 742.5,501.5C 741.692,501.808 741.025,502.308 740.5,503C 741.667,503.5 742.5,504.333 743,505.5C 743.333,504.833 743.667,504.167 744,503.5C 745.645,503.693 747.479,503.86 749.5,504C 747.423,504.807 745.589,505.974 744,507.5C 742.984,506.366 742.317,506.699 742,508.5C 740.667,508.5 739.333,508.5 738,508.5C 737.012,511.424 736.346,514.424 736,517.5C 734.615,516.449 733.615,515.116 733,513.5C 732.781,514.938 732.281,516.271 731.5,517.5C 729.621,516.256 729.288,516.59 730.5,518.5C 731.795,519.098 733.128,519.598 734.5,520C 733.02,522.668 731.52,522.835 730,520.5C 729.085,521.328 728.419,522.328 728,523.5C 727.667,523.167 727.333,522.833 727,522.5C 725.39,524.31 724.223,526.31 723.5,528.5C 721.869,530.297 719.869,531.464 717.5,532C 720.544,532.359 720.878,533.026 718.5,534C 719.833,534.667 719.833,535.333 718.5,536C 719.167,536.333 719.833,536.667 720.5,537C 719.365,537.749 718.365,537.583 717.5,536.5C 717.081,535.328 716.415,534.328 715.5,533.5C 714.355,534.892 713.522,536.559 713,538.5C 712.333,535.833 711.667,535.833 711,538.5C 709.927,537.72 708.76,537.887 707.5,539C 709.221,539.739 710.887,540.573 712.5,541.5C 711.603,541.669 710.603,542.002 709.5,542.5C 710.376,543.251 711.376,543.751 712.5,544C 710.506,544.193 708.672,545.027 707,546.5C 706.667,544.833 706.333,543.167 706,541.5C 704.927,545.553 704.593,549.553 705,553.5C 704.582,549.436 702.415,547.936 698.5,549C 699.833,549.333 701.167,549.667 702.5,550C 700.667,551.167 698.833,552.333 697,553.5C 696.577,552.044 695.744,551.544 694.5,552C 693.167,553.333 693.167,554.667 694.5,556C 692.382,556.26 690.716,557.26 689.5,559C 692.167,560.333 692.167,561.667 689.5,563C 688.551,563.617 687.718,563.451 687,562.5C 686.667,563.167 686.333,563.833 686,564.5C 685.333,563.167 684.667,563.167 684,564.5C 682.816,562.346 681.65,562.68 680.5,565.5C 681.428,566.768 681.595,568.101 681,569.5C 680.667,568.833 680.333,568.167 680,567.5C 679.632,568.91 678.799,569.91 677.5,570.5C 676.232,569.572 674.899,569.405 673.5,570C 675.211,571.133 675.711,572.633 675,574.5C 673.914,572.153 672.581,572.153 671,574.5C 669.899,573.709 669.066,573.709 668.5,574.5C 670.078,575.298 671.744,575.798 673.5,576C 671.559,576.304 669.893,577.137 668.5,578.5C 667.749,577.624 667.249,576.624 667,575.5C 666.667,576.833 666.333,578.167 666,579.5C 664.211,579.623 662.378,579.623 660.5,579.5C 659.833,581.167 659.167,582.833 658.5,584.5C 657.585,583.672 656.919,582.672 656.5,581.5C 655.635,580.417 654.635,580.251 653.5,581C 656.167,581.667 656.167,582.333 653.5,583C 654.5,583.333 655.5,583.667 656.5,584C 654.899,584.273 653.399,584.773 652,585.5C 651.667,585.167 651.333,584.833 651,584.5C 648.782,586.092 647.115,588.092 646,590.5C 645.71,588.956 645.044,587.623 644,586.5C 642.678,588.474 643.178,590.308 645.5,592C 644.234,592.309 643.067,592.809 642,593.5C 640.334,592.66 640.167,593.16 641.5,595C 640.256,595.456 639.423,594.956 639,593.5C 637.984,594.634 637.317,594.301 637,592.5C 635.691,594.891 634.691,594.891 634,592.5C 632.758,594.541 630.925,595.707 628.5,596C 626.513,597.319 625.346,599.152 625,601.5C 623.883,601.335 622.716,601.002 621.5,600.5C 620.749,601.376 620.249,602.376 620,603.5C 618.488,601.043 617.154,601.043 616,603.5C 614.684,602.026 613.684,600.359 613,598.5C 612.653,602.116 611.486,602.783 609.5,600.5C 608.833,601.5 608.167,602.5 607.5,603.5C 606.304,603.154 606.304,602.654 607.5,602C 604.892,600.148 602.559,600.314 600.5,602.5C 599.205,601.902 597.872,601.402 596.5,601C 594.776,600.552 594.109,599.718 594.5,598.5C 592.65,599.242 591.984,600.242 592.5,601.5C 591.583,600.873 590.583,600.539 589.5,600.5C 610.197,588.149 628.53,572.815 644.5,554.5C 645.583,554.539 646.583,554.873 647.5,555.5C 648.408,552.702 647.741,550.202 645.5,548C 646.825,548.148 647.992,547.982 649,547.5C 649.617,548.449 649.451,549.282 648.5,550C 649.167,550.667 649.833,550.667 650.5,550C 651.097,548.372 650.763,546.705 649.5,545C 651.017,543.221 651.851,543.721 652,546.5C 653.559,544.783 654.392,542.783 654.5,540.5C 656.958,539.377 659.125,539.377 661,540.5C 661.853,538.875 662.853,538.542 664,539.5C 664.5,538.333 665.333,537.5 666.5,537C 665.833,536.667 665.167,536.333 664.5,536C 667.102,535.065 668.602,533.232 669,530.5C 670.666,531.34 670.833,530.84 669.5,529C 672.187,527.659 673.853,525.993 674.5,524C 673.062,523.781 671.729,523.281 670.5,522.5C 670.667,522.167 670.833,521.833 671,521.5C 672.57,521.67 674.403,522.003 676.5,522.5C 676.343,521.127 676.51,519.793 677,518.5C 677.667,517.167 678.333,517.167 679,518.5C 679.374,517.584 679.874,516.75 680.5,516C 679.044,515.577 678.544,514.744 679,513.5C 680.77,514.276 682.603,514.11 684.5,513C 684.167,512.667 683.833,512.333 683.5,512C 685.061,511.682 686.228,510.849 687,509.5C 687.612,512.032 689.112,512.865 691.5,512C 687.639,509.973 687.639,507.806 691.5,505.5C 691.154,504.304 690.654,504.304 690,505.5C 689.333,504.5 689.333,503.5 690,502.5C 691.008,502.982 692.175,503.148 693.5,503C 692.941,503.725 692.608,504.558 692.5,505.5C 693.699,506.575 694.866,507.575 696,508.5C 696.935,505.928 698.435,503.261 700.5,500.5C 701.192,501.025 701.692,501.692 702,502.5C 703.628,501.181 703.461,499.848 701.5,498.5C 700.604,499.506 699.938,499.506 699.5,498.5C 701.511,497.747 703.511,496.247 705.5,494C 704.483,492.951 704.316,491.784 705,490.5C 706.333,489.833 707.333,488.833 708,487.5C 708.561,488.022 709.228,488.355 710,488.5C 716.215,487.429 716.715,485.595 711.5,483C 713.055,481.354 714.721,481.021 716.5,482C 715.549,481.282 715.383,480.449 716,479.5C 717,480.833 718,480.833 719,479.5C 719.72,477.888 719.554,476.388 718.5,475C 721.167,474.333 721.167,473.667 718.5,473C 719.727,471.413 719.394,470.079 717.5,469C 720.489,466.227 723.489,464.227 726.5,463C 724.311,462.323 723.978,461.156 725.5,459.5C 724.397,459.002 723.397,458.669 722.5,458.5C 724.284,457.394 726.118,457.394 728,458.5C 729.221,457.728 730.221,456.728 731,455.5C 731.333,456.167 731.667,456.833 732,457.5C 733.852,455.77 733.686,454.604 731.5,454C 732.893,451.317 734.226,451.15 735.5,453.5C 736.696,453.154 736.696,452.654 735.5,452C 736.5,451.667 737.5,451.333 738.5,451C 737.328,450.581 736.328,449.915 735.5,449C 737.679,447.152 739.513,444.985 741,442.5C 742.011,443.337 743.178,443.67 744.5,443.5C 744.297,441.61 744.963,440.11 746.5,439C 746.434,436.891 746.101,434.725 745.5,432.5C 745.808,431.692 746.308,431.025 747,430.5C 747.49,431.793 747.657,433.127 747.5,434.5C 748.5,434.5 749.5,434.5 750.5,434.5C 750.374,432.8 749.707,431.3 748.5,430C 749.022,429.05 749.689,428.216 750.5,427.5C 748.578,427.134 746.578,426.968 744.5,427C 746.463,426.113 748.296,424.613 750,422.5C 750.98,424.059 751.813,425.726 752.5,427.5C 752.833,427.333 753.167,427.167 753.5,427C 753.507,425.417 753.174,423.751 752.5,422C 755.505,419.093 757.338,415.593 758,411.5C 758.333,412.167 758.667,412.833 759,413.5C 759.892,410.048 761.558,407.048 764,404.5C 764.333,405.5 764.667,406.5 765,407.5C 767.827,405.746 767.994,403.912 765.5,402C 766.167,401.667 766.833,401.333 767.5,401C 765.667,399.833 764.167,398.333 763,396.5C 762.405,397.899 762.572,399.232 763.5,400.5C 763.192,401.308 762.692,401.975 762,402.5C 761.682,400.939 760.849,399.772 759.5,399C 760.973,398.29 761.64,397.124 761.5,395.5C 762.822,395.33 763.989,395.663 765,396.5C 765.5,396 766,395.5 766.5,395C 762.492,394.51 761.825,393.01 764.5,390.5C 764.736,391.247 765.07,392.08 765.5,393C 766.5,393.667 767.5,393.667 768.5,393C 767.235,390.981 767.235,388.981 768.5,387C 769.471,385.796 770.471,385.296 771.5,385.5C 770.624,384.749 769.624,384.249 768.5,384C 769.126,383.25 769.626,382.416 770,381.5C 772.255,386.141 774.921,386.141 778,381.5C 778.423,382.956 779.256,383.456 780.5,383C 779.54,381.581 778.707,380.081 778,378.5C 777.667,378.833 777.333,379.167 777,379.5C 776.667,376.167 776.333,372.833 776,369.5C 774.391,370.15 772.891,369.65 771.5,368C 773.126,368.195 774.793,368.195 776.5,368C 776.167,367.667 775.833,367.333 775.5,367C 776.967,365.902 777.801,364.402 778,362.5C 778.383,363.056 778.883,363.389 779.5,363.5 Z"/></g>
<g><path style="opacity:1" fill="#fc05ba" d="M 517.5,356.5 C 520.258,359.678 522.258,363.345 523.5,367.5C 525.752,374.426 527.919,381.426 530,388.5C 530.333,394.167 530.667,399.833 531,405.5C 531.763,402.937 532.263,402.937 532.5,405.5C 532.24,409.007 531.24,409.674 529.5,407.5C 526.576,407.626 523.909,408.959 521.5,411.5C 522.025,412.192 522.692,412.692 523.5,413C 521.5,413.667 520.167,415 519.5,417C 519.5,419 519.5,421 519.5,423C 521.991,423.626 521.991,424.459 519.5,425.5C 520.041,427.523 519.541,429.523 518,431.5C 517,431.167 516,430.833 515,430.5C 514.667,431.833 514.333,433.167 514,434.5C 513.802,432.618 513.302,430.952 512.5,429.5C 516.788,409.461 514.121,390.461 504.5,372.5C 505.303,371.577 505.47,370.577 505,369.5C 501.489,363.822 497.323,358.655 492.5,354C 493.448,353.517 494.448,353.351 495.5,353.5C 496.427,350.955 496.427,348.622 495.5,346.5C 496.167,346.167 496.833,345.833 497.5,345.5C 497.291,344.914 496.957,344.414 496.5,344C 498.669,345.114 500.502,344.614 502,342.5C 503.667,343.833 505.333,345.167 507,346.5C 509.189,349.386 511.355,352.386 513.5,355.5C 514.728,357.176 516.061,357.509 517.5,356.5 Z"/></g>
<g><path style="opacity:1" fill="#fb424e" d="M 655.5,474.5 C 654.671,467.011 654.171,459.344 654,451.5C 653.667,451.167 653.333,450.833 653,450.5C 654.203,453.431 653.203,455.431 650,456.5C 649.333,453.833 648.667,453.833 648,456.5C 647.361,453.772 646.194,453.272 644.5,455C 645.337,456.011 645.67,457.178 645.5,458.5C 642.306,458.176 641.306,459.342 642.5,462C 639.833,462.667 639.833,463.333 642.5,464C 641.377,465.044 640.044,465.71 638.5,466C 639.5,466.333 640.5,466.667 641.5,467C 636.587,469.666 636.254,472.832 640.5,476.5C 638.833,477.167 637.167,477.833 635.5,478.5C 636.817,478.313 638.15,478.98 639.5,480.5C 638.833,481.5 638.167,482.5 637.5,483.5C 638.891,485.936 638.391,486.602 636,485.5C 634.159,489.632 631.659,492.465 628.5,494C 628.833,494.5 629.167,495 629.5,495.5C 630.869,493.876 632.536,493.376 634.5,494C 631.833,494.667 631.833,495.333 634.5,496C 633.284,497.594 631.951,499.094 630.5,500.5C 631.811,501.258 632.311,502.258 632,503.5C 630.757,502.664 629.59,502.997 628.5,504.5C 629.908,505.243 631.241,506.077 632.5,507C 629.659,505.988 628.326,507.155 628.5,510.5C 627.448,510.351 626.448,510.517 625.5,511C 625.833,511.333 626.167,511.667 626.5,512C 625.167,513 623.833,514 622.5,515C 623.833,515.333 625.167,515.667 626.5,516C 625.371,518.168 623.871,518.668 622,517.5C 622.263,518.951 622.096,520.284 621.5,521.5C 619.802,520.319 618.135,520.319 616.5,521.5C 616.709,522.086 617.043,522.586 617.5,523C 615.109,524.309 615.109,525.309 617.5,526C 614.765,529.016 612.598,532.516 611,536.5C 607.333,537.26 606.833,538.76 609.5,541C 608.5,541.333 607.5,541.667 606.5,542C 610.422,544.58 610.422,546.08 606.5,546.5C 607.154,548.115 607.654,549.782 608,551.5C 608.268,561.354 608.434,571.02 608.5,580.5C 608.217,581.289 607.717,581.956 607,582.5C 606.533,577.325 606.7,572.158 607.5,567C 605.963,555.719 602.796,544.885 598,534.5C 595.755,527.649 595.088,520.649 596,513.5C 597.938,506.352 600.271,499.352 603,492.5C 603.497,490.19 603.663,487.857 603.5,485.5C 594.016,485.726 585.35,483.226 577.5,478C 570.894,472.293 568.06,465.126 569,456.5C 575.623,454.543 582.123,452.043 588.5,449C 589.667,447.833 590.833,446.667 592,445.5C 595.357,434.903 602.19,427.737 612.5,424C 615.817,423.502 619.15,423.335 622.5,423.5C 624.794,416.124 627.96,409.124 632,402.5C 634.706,399.022 637.706,398.689 641,401.5C 642.286,404.405 643.286,407.405 644,410.5C 644.803,417.536 645.803,424.536 647,431.5C 651.357,435.546 654.023,440.546 655,446.5C 655.5,455.827 655.666,465.161 655.5,474.5 Z"/></g>
<g><path style="opacity:1" fill="#fc00d7" d="M 359.5,405.5 C 378.167,405.5 396.833,405.5 415.5,405.5C 415.896,408.044 415.229,410.211 413.5,412C 414.928,415.474 414.428,415.974 412,413.5C 409.576,415.449 408.076,417.616 407.5,420C 408.715,422.096 409.549,421.929 410,419.5C 410.483,420.448 410.649,421.448 410.5,422.5C 412.582,422.528 414.416,421.861 416,420.5C 416.492,421.549 416.326,422.549 415.5,423.5C 405.188,424.499 394.855,424.832 384.5,424.5C 365.671,423.668 346.671,423.168 327.5,423C 327.833,422.667 328.167,422.333 328.5,422C 327.167,421.667 325.833,421.333 324.5,421C 325.888,420.111 325.722,419.611 324,419.5C 323.454,420.289 322.787,421.289 322,422.5C 321.5,422 321,421.5 320.5,421C 321.198,420.029 321.198,418.863 320.5,417.5C 321.02,415.528 322.187,415.528 324,417.5C 323.981,415.893 323.815,414.226 323.5,412.5C 328.303,412.754 329.636,411.087 327.5,407.5C 338.326,406.833 348.992,406.167 359.5,405.5 Z"/></g>
<g><path style="opacity:1" fill="#f50cb0" d="M 523.5,367.5 C 525.988,370.767 527.821,374.434 529,378.5C 533.754,394.914 534.754,411.581 532,428.5C 531.29,433.193 529.457,437.36 526.5,441C 524.333,441.167 522.167,441.333 520,441.5C 510.375,441.986 507.875,437.986 512.5,429.5C 513.302,430.952 513.802,432.618 514,434.5C 514.333,433.167 514.667,431.833 515,430.5C 516,430.833 517,431.167 518,431.5C 519.541,429.523 520.041,427.523 519.5,425.5C 521.991,424.459 521.991,423.626 519.5,423C 519.5,421 519.5,419 519.5,417C 520.167,415 521.5,413.667 523.5,413C 522.692,412.692 522.025,412.192 521.5,411.5C 523.909,408.959 526.576,407.626 529.5,407.5C 531.24,409.674 532.24,409.007 532.5,405.5C 532.263,402.937 531.763,402.937 531,405.5C 530.667,399.833 530.333,394.167 530,388.5C 527.919,381.426 525.752,374.426 523.5,367.5 Z"/></g>
<g><path style="opacity:1" fill="#eb05be" d="M 415.5,405.5 C 432.036,407.539 439.536,416.872 438,433.5C 433.167,448.672 427.167,463.339 420,477.5C 414.446,484.526 407.279,488.859 398.5,490.5C 391.018,489.508 383.352,489.175 375.5,489.5C 379.647,488.675 383.981,488.175 388.5,488C 385.5,487.667 382.5,487.333 379.5,487C 382.091,486.258 384.424,485.758 386.5,485.5C 382.918,484.243 382.251,482.409 384.5,480C 386.9,479.814 389.234,479.314 391.5,478.5C 392.641,477.575 392.641,476.741 391.5,476C 395.5,475.333 395.5,474.667 391.5,474C 393.167,473.667 394.833,473.333 396.5,473C 386.839,472.5 377.172,472.334 367.5,472.5C 332.5,472.5 297.5,472.5 262.5,472.5C 261.5,472.5 260.5,472.5 259.5,472.5C 305.332,471.667 351.332,471.167 397.5,471C 399.96,469.542 402.127,467.709 404,465.5C 409.293,454.283 413.793,442.783 417.5,431C 417.646,428.966 416.98,427.299 415.5,426C 363.332,425.833 311.332,425.333 259.5,424.5C 301.167,424.5 342.833,424.5 384.5,424.5C 394.855,424.832 405.188,424.499 415.5,423.5C 416.326,422.549 416.492,421.549 416,420.5C 414.416,421.861 412.582,422.528 410.5,422.5C 410.649,421.448 410.483,420.448 410,419.5C 409.549,421.929 408.715,422.096 407.5,420C 408.076,417.616 409.576,415.449 412,413.5C 414.428,415.974 414.928,415.474 413.5,412C 415.229,410.211 415.896,408.044 415.5,405.5 Z"/></g>
<g><path style="opacity:1" fill="#e14f47" d="M 785.5,393.5 C 786.931,402.961 787.598,412.628 787.5,422.5C 787.678,431.054 787.011,439.388 785.5,447.5C 786.782,429.499 786.782,411.499 785.5,393.5 Z"/></g>
<g><path style="opacity:1" fill="#fb14a5" d="M 522.5,471.5 C 521.504,471.414 520.671,471.748 520,472.5C 517.508,470.503 514.675,469.503 511.5,469.5C 511.146,467.459 511.146,465.626 511.5,464C 509.82,463.966 508.32,463.799 507,463.5C 506.667,464.167 506.333,464.833 506,465.5C 505.577,464.044 504.744,463.544 503.5,464C 504.849,465.635 504.682,467.135 503,468.5C 502.333,467.833 501.667,467.167 501,466.5C 500.71,468.952 500.044,471.285 499,473.5C 497.915,471.343 496.749,471.176 495.5,473C 496.641,473.741 496.641,474.575 495.5,475.5C 496.025,476.192 496.692,476.692 497.5,477C 496.107,478.171 495.273,479.671 495,481.5C 493.284,480.448 492.284,481.114 492,483.5C 491.667,483.167 491.333,482.833 491,482.5C 490.544,483.744 491.044,484.577 492.5,485C 491.809,486.067 491.309,487.234 491,488.5C 490.667,488.167 490.333,487.833 490,487.5C 488.933,488.191 487.766,488.691 486.5,489C 486.957,489.414 487.291,489.914 487.5,490.5C 486.271,491.281 484.938,491.781 483.5,492C 485.345,492.187 487.011,493.02 488.5,494.5C 487.286,496.069 485.619,496.902 483.5,497C 487.325,499.232 487.325,501.232 483.5,503C 484.604,504.131 484.271,504.965 482.5,505.5C 481.031,508.305 480.697,511.139 481.5,514C 481.241,515.261 480.574,516.261 479.5,517C 480.5,517.333 481.5,517.667 482.5,518C 480.606,519.079 480.273,520.413 481.5,522C 480.833,522.333 480.167,522.667 479.5,523C 480.428,523.388 481.095,524.055 481.5,525C 481,526.5 480.5,528 480,529.5C 477.656,532.211 475.489,535.044 473.5,538C 474.167,539.333 474.833,540.667 475.5,542C 473.98,543.885 472.98,546.051 472.5,548.5C 473.025,549.192 473.692,549.692 474.5,550C 473.016,551.574 471.349,552.907 469.5,554C 472.279,554.149 472.779,554.983 471,556.5C 469.443,555.795 468.277,556.461 467.5,558.5C 468.04,559.748 468.707,560.915 469.5,562C 467.295,563.077 465.295,563.743 463.5,564C 466.755,565.232 467.088,567.232 464.5,570C 465.634,571.016 465.301,571.683 463.5,572C 463.833,572.333 464.167,572.667 464.5,573C 463.552,573.483 462.552,573.649 461.5,573.5C 461.703,575.39 461.037,576.89 459.5,578C 460.167,578.333 460.833,578.667 461.5,579C 460.034,583.237 457.034,585.237 452.5,585C 454.074,585.353 455.741,586.02 457.5,587C 456.747,588.487 455.914,588.654 455,587.5C 454.517,588.448 454.351,589.448 454.5,590.5C 453.448,590.351 452.448,590.517 451.5,591C 452.604,592.131 452.271,592.965 450.5,593.5C 449.808,592.975 449.308,592.308 449,591.5C 448.627,593.698 448.127,595.865 447.5,598C 447.645,598.772 447.978,599.439 448.5,600C 446.5,600.667 444.5,601.333 442.5,602C 441.17,603.633 440.504,605.133 440.5,606.5C 439.614,605.675 439.281,604.675 439.5,603.5C 436.355,604.077 434.855,606.077 435,609.5C 434.465,607.729 433.631,607.396 432.5,608.5C 431.181,610.532 431.181,612.532 432.5,614.5C 426.825,613.494 421.825,611.161 417.5,607.5C 417.703,605.61 417.037,604.11 415.5,603C 416.701,602.097 417.535,600.931 418,599.5C 418.308,600.308 418.808,600.975 419.5,601.5C 419.489,600.559 419.989,599.892 421,599.5C 422.162,600.187 423.328,600.353 424.5,600C 426.621,597.802 428.288,595.302 429.5,592.5C 430.192,593.025 430.692,593.692 431,594.5C 431.5,592.667 432.667,591.5 434.5,591C 433.833,590.667 433.167,590.333 432.5,590C 433.678,589.033 435.011,588.533 436.5,588.5C 437.429,587.311 437.762,585.978 437.5,584.5C 440.388,584.78 441.888,583.447 442,580.5C 442.903,579.299 444.069,578.465 445.5,578C 444.167,577.667 442.833,577.333 441.5,577C 443.615,576.497 445.615,575.164 447.5,573C 446.366,571.984 446.699,571.317 448.5,571C 447.549,570.282 447.383,569.449 448,568.5C 448.667,567.167 449.333,567.167 450,568.5C 448.899,566.208 449.732,564.708 452.5,564C 451.207,563.51 449.873,563.343 448.5,563.5C 448.351,562.448 448.517,561.448 449,560.5C 449.333,560.833 449.667,561.167 450,561.5C 453.959,559.749 454.126,557.083 450.5,553.5C 452.045,551.56 454.045,550.394 456.5,550C 451.556,547.595 451.889,546.595 457.5,547C 454.983,544.806 455.316,542.806 458.5,541C 459.089,539.127 458.422,537.46 456.5,536C 457.448,535.517 458.448,535.351 459.5,535.5C 459.297,533.61 459.963,532.11 461.5,531C 462.013,529.424 461.346,528.091 459.5,527C 461.756,525.166 461.756,523.499 459.5,522C 460.711,520.887 460.711,519.72 459.5,518.5C 460.65,515.68 461.816,515.346 463,517.5C 463.684,516.216 463.517,515.049 462.5,514C 465.544,513.641 465.878,512.974 463.5,512C 466.078,509.772 467.411,506.939 467.5,503.5C 466.824,481.527 472.657,461.527 485,443.5C 488.167,440.333 491.333,437.167 494.5,434C 495.784,433.316 496.951,433.483 498,434.5C 499.869,440.715 501.203,447.048 502,453.5C 509.137,455.739 515.137,459.739 520,465.5C 521.122,467.407 521.955,469.407 522.5,471.5 Z"/></g>
<g><path style="opacity:1" fill="#fc169f" d="M 522.5,471.5 C 524.09,475.098 525.59,478.764 527,482.5C 530.138,483.403 532.805,485.07 535,487.5C 534.442,493.771 531.609,498.937 526.5,503C 520.562,505.243 514.895,507.743 509.5,510.5C 508.683,512.969 508.183,515.635 508,518.5C 507.503,516.19 507.337,513.857 507.5,511.5C 506.448,511.351 505.448,511.517 504.5,512C 505.654,512.914 505.487,513.747 504,514.5C 503.667,512.833 503.333,511.167 503,509.5C 502.654,511.848 501.487,513.681 499.5,515C 500.833,515.667 501.833,516.667 502.5,518C 501.167,518.667 501.167,519.333 502.5,520C 499.093,522.233 499.093,524.733 502.5,527.5C 500.648,528.215 498.648,528.549 496.5,528.5C 497.105,530.481 498.105,530.815 499.5,529.5C 500.731,530.651 500.731,531.817 499.5,533C 500.167,533.333 500.833,533.667 501.5,534C 500.216,534.684 499.049,534.517 498,533.5C 496.559,535.305 496.392,537.305 497.5,539.5C 493.446,539.21 492.946,539.877 496,541.5C 496.667,542.167 496.667,542.833 496,543.5C 495.333,542.167 494.667,542.167 494,543.5C 493.667,542.833 493.333,542.167 493,541.5C 492.495,544.517 490.995,546.851 488.5,548.5C 489.274,549.711 490.107,549.711 491,548.5C 491.667,549.167 491.667,549.833 491,550.5C 489.581,551.46 488.081,552.293 486.5,553C 487.061,554.676 488.061,556.009 489.5,557C 488.213,558.41 487.046,559.91 486,561.5C 485.667,561.167 485.333,560.833 485,560.5C 482.332,561.98 482.165,563.48 484.5,565C 483.788,566.425 483.621,567.925 484,569.5C 483.333,570.833 482.667,570.833 482,569.5C 479.887,571.271 480.053,572.771 482.5,574C 480.089,575.955 477.589,577.789 475,579.5C 475.225,582.825 473.892,585.158 471,586.5C 470.781,587.938 470.281,589.271 469.5,590.5C 468.914,590.291 468.414,589.957 468,589.5C 467.487,591.521 466.32,593.021 464.5,594C 466.007,594.837 466.507,596.004 466,597.5C 464.187,597.747 462.353,598.08 460.5,598.5C 460.709,599.086 461.043,599.586 461.5,600C 459.789,601.435 458.622,603.269 458,605.5C 457.586,605.043 457.086,604.709 456.5,604.5C 453.5,606.333 450.5,608.167 447.5,610C 448.167,610.333 448.833,610.667 449.5,611C 448.417,613.056 446.75,614.389 444.5,615C 448.71,616.608 452.71,618.442 456.5,620.5C 448.067,619.725 440.067,617.725 432.5,614.5C 431.181,612.532 431.181,610.532 432.5,608.5C 433.631,607.396 434.465,607.729 435,609.5C 434.855,606.077 436.355,604.077 439.5,603.5C 439.281,604.675 439.614,605.675 440.5,606.5C 440.504,605.133 441.17,603.633 442.5,602C 444.5,601.333 446.5,600.667 448.5,600C 447.978,599.439 447.645,598.772 447.5,598C 448.127,595.865 448.627,593.698 449,591.5C 449.308,592.308 449.808,592.975 450.5,593.5C 452.271,592.965 452.604,592.131 451.5,591C 452.448,590.517 453.448,590.351 454.5,590.5C 454.351,589.448 454.517,588.448 455,587.5C 455.914,588.654 456.747,588.487 457.5,587C 455.741,586.02 454.074,585.353 452.5,585C 457.034,585.237 460.034,583.237 461.5,579C 460.833,578.667 460.167,578.333 459.5,578C 461.037,576.89 461.703,575.39 461.5,573.5C 462.552,573.649 463.552,573.483 464.5,573C 464.167,572.667 463.833,572.333 463.5,572C 465.301,571.683 465.634,571.016 464.5,570C 467.088,567.232 466.755,565.232 463.5,564C 465.295,563.743 467.295,563.077 469.5,562C 468.707,560.915 468.04,559.748 467.5,558.5C 468.277,556.461 469.443,555.795 471,556.5C 472.779,554.983 472.279,554.149 469.5,554C 471.349,552.907 473.016,551.574 474.5,550C 473.692,549.692 473.025,549.192 472.5,548.5C 472.98,546.051 473.98,543.885 475.5,542C 474.833,540.667 474.167,539.333 473.5,538C 475.489,535.044 477.656,532.211 480,529.5C 480.5,528 481,526.5 481.5,525C 481.095,524.055 480.428,523.388 479.5,523C 480.167,522.667 480.833,522.333 481.5,522C 480.273,520.413 480.606,519.079 482.5,518C 481.5,517.667 480.5,517.333 479.5,517C 480.574,516.261 481.241,515.261 481.5,514C 480.697,511.139 481.031,508.305 482.5,505.5C 484.271,504.965 484.604,504.131 483.5,503C 487.325,501.232 487.325,499.232 483.5,497C 485.619,496.902 487.286,496.069 488.5,494.5C 487.011,493.02 485.345,492.187 483.5,492C 484.938,491.781 486.271,491.281 487.5,490.5C 487.291,489.914 486.957,489.414 486.5,489C 487.766,488.691 488.933,488.191 490,487.5C 490.333,487.833 490.667,488.167 491,488.5C 491.309,487.234 491.809,486.067 492.5,485C 491.044,484.577 490.544,483.744 491,482.5C 491.333,482.833 491.667,483.167 492,483.5C 492.284,481.114 493.284,480.448 495,481.5C 495.273,479.671 496.107,478.171 497.5,477C 496.692,476.692 496.025,476.192 495.5,475.5C 496.641,474.575 496.641,473.741 495.5,473C 496.749,471.176 497.915,471.343 499,473.5C 500.044,471.285 500.71,468.952 501,466.5C 501.667,467.167 502.333,467.833 503,468.5C 504.682,467.135 504.849,465.635 503.5,464C 504.744,463.544 505.577,464.044 506,465.5C 506.333,464.833 506.667,464.167 507,463.5C 508.32,463.799 509.82,463.966 511.5,464C 511.146,465.626 511.146,467.459 511.5,469.5C 514.675,469.503 517.508,470.503 520,472.5C 520.671,471.748 521.504,471.414 522.5,471.5 Z"/></g>
<g><path style="opacity:1" fill="#11b9d2" d="M 132.5,373.5 C 148.28,373.422 153.78,380.755 149,395.5C 146.961,397.874 144.628,399.874 142,401.5C 141.333,413.833 141.333,426.167 142,438.5C 157.667,454.167 173.333,469.833 189,485.5C 189.987,489.506 188.487,491.339 184.5,491C 167.638,474.472 151.138,457.638 135,440.5C 134.667,427.833 134.333,415.167 134,402.5C 123.356,397.236 120.69,389.236 126,378.5C 128.326,376.934 130.492,375.268 132.5,373.5 Z"/></g>
<g><path style="opacity:1" fill="#1e1c21" d="M 134.5,380.5 C 141.657,380.155 144.824,383.488 144,390.5C 139.965,395.364 135.632,395.698 131,391.5C 129.662,386.96 130.829,383.293 134.5,380.5 Z"/></g>
<g><path style="opacity:1" fill="#ee02d9" d="M 262.5,472.5 C 297.5,472.5 332.5,472.5 367.5,472.5C 354.34,473.331 341.006,473.831 327.5,474C 331.716,475.204 336.049,475.87 340.5,476C 339.359,476.741 339.359,477.575 340.5,478.5C 339.349,479.731 338.183,479.731 337,478.5C 335.883,479.949 335.216,481.616 335,483.5C 333.615,482.449 332.615,481.116 332,479.5C 331.15,480.424 330.15,480.424 329,479.5C 327.274,480.648 327.441,481.815 329.5,483C 327.384,484.171 326.718,485.671 327.5,487.5C 326.271,488.281 324.938,488.781 323.5,489C 340.83,489.5 358.163,489.667 375.5,489.5C 383.352,489.175 391.018,489.508 398.5,490.5C 352.876,491.49 307.209,491.823 261.5,491.5C 261.414,490.504 261.748,489.671 262.5,489C 266.219,488.612 269.886,487.945 273.5,487C 271.106,485.048 269.606,482.548 269,479.5C 268.751,480.624 268.251,481.624 267.5,482.5C 266.289,481.726 266.289,480.893 267.5,480C 265.699,479.683 265.366,479.016 266.5,478C 264.77,476.148 263.604,476.314 263,478.5C 262,477.167 261,477.167 260,478.5C 259.312,477.668 259.479,477.002 260.5,476.5C 262.61,475.039 264.61,474.206 266.5,474C 264.942,473.79 263.609,473.29 262.5,472.5 Z"/></g>
<g><path style="opacity:1" fill="#10b8d2" d="M 69.5,453.5 C 78.2228,452.361 84.5561,455.694 88.5,463.5C 102.822,464.333 117.155,464.833 131.5,465C 148.667,482.167 165.833,499.333 183,516.5C 183.339,520.487 181.506,521.987 177.5,521C 161.167,504.667 144.833,488.333 128.5,472C 115.167,471.333 101.833,471.333 88.5,472C 81.6492,483.63 73.1492,485.13 63,476.5C 58.0203,466.608 60.187,458.942 69.5,453.5 Z"/></g>
<g><path style="opacity:1" fill="#1e1c20" d="M 71.5,460.5 C 78.6545,460.153 81.8212,463.486 81,470.5C 76.5706,475.808 72.2373,475.808 68,470.5C 67.3333,468.5 67.3333,466.5 68,464.5C 69.3756,463.295 70.5423,461.962 71.5,460.5 Z"/></g>
<g><path style="opacity:1" fill="#f801d4" d="M 367.5,472.5 C 377.172,472.334 386.839,472.5 396.5,473C 394.833,473.333 393.167,473.667 391.5,474C 395.5,474.667 395.5,475.333 391.5,476C 392.641,476.741 392.641,477.575 391.5,478.5C 389.234,479.314 386.9,479.814 384.5,480C 382.251,482.409 382.918,484.243 386.5,485.5C 384.424,485.758 382.091,486.258 379.5,487C 382.5,487.333 385.5,487.667 388.5,488C 383.981,488.175 379.647,488.675 375.5,489.5C 358.163,489.667 340.83,489.5 323.5,489C 324.938,488.781 326.271,488.281 327.5,487.5C 326.718,485.671 327.384,484.171 329.5,483C 327.441,481.815 327.274,480.648 329,479.5C 330.15,480.424 331.15,480.424 332,479.5C 332.615,481.116 333.615,482.449 335,483.5C 335.216,481.616 335.883,479.949 337,478.5C 338.183,479.731 339.349,479.731 340.5,478.5C 339.359,477.575 339.359,476.741 340.5,476C 336.049,475.87 331.716,475.204 327.5,474C 341.006,473.831 354.34,473.331 367.5,472.5 Z"/></g>
<g><path style="opacity:1" fill="#de07e4" d="M 259.5,472.5 C 260.5,472.5 261.5,472.5 262.5,472.5C 263.609,473.29 264.942,473.79 266.5,474C 264.61,474.206 262.61,475.039 260.5,476.5C 259.479,477.002 259.312,477.668 260,478.5C 261,477.167 262,477.167 263,478.5C 263.604,476.314 264.77,476.148 266.5,478C 265.366,479.016 265.699,479.683 267.5,480C 266.289,480.893 266.289,481.726 267.5,482.5C 268.251,481.624 268.751,480.624 269,479.5C 269.606,482.548 271.106,485.048 273.5,487C 269.886,487.945 266.219,488.612 262.5,489C 261.748,489.671 261.414,490.504 261.5,491.5C 253.907,492.884 248.074,496.884 244,503.5C 238.195,517.915 232.195,532.248 226,546.5C 225.059,548.989 225.559,550.989 227.5,552.5C 244.471,554.322 261.804,555.156 279.5,555C 274.5,555.333 269.5,555.667 264.5,556C 265.833,556.667 266.833,557.667 267.5,559C 264.08,560.208 260.747,561.708 257.5,563.5C 257.667,563.833 257.833,564.167 258,564.5C 259.333,563.833 260.667,563.167 262,562.5C 262.692,563.025 263.192,563.692 263.5,564.5C 262.009,565.244 260.509,565.91 259,566.5C 258.667,566.167 258.333,565.833 258,565.5C 257.097,566.701 255.931,567.535 254.5,568C 258.186,568.559 261.853,569.226 265.5,570C 248.328,570.168 231.328,570.668 214.5,571.5C 204.458,568.605 200.291,561.938 202,551.5C 209.534,535.094 216.534,518.427 223,501.5C 229.498,484.484 241.664,474.817 259.5,472.5 Z"/></g>
<g><path style="opacity:1" fill="#fb1899" d="M 509.5,510.5 C 508.965,516.521 510.132,522.187 513,527.5C 513.667,535.5 513.667,543.5 513,551.5C 509.516,563.788 505.349,575.788 500.5,587.5C 499.676,591.312 499.176,595.312 499,599.5C 498.689,597.444 498.189,595.444 497.5,593.5C 496.277,592.386 494.944,592.219 493.5,593C 494.654,593.914 494.487,594.747 493,595.5C 492.667,595.167 492.333,594.833 492,594.5C 491.871,597.003 490.871,599.003 489,600.5C 488.692,599.692 488.192,599.025 487.5,598.5C 484.445,600.178 482.112,602.511 480.5,605.5C 479.158,604.098 478.324,604.431 478,606.5C 477.282,605.549 476.449,605.383 475.5,606C 474.54,607.419 473.707,608.919 473,610.5C 471.243,610.133 469.743,610.966 468.5,613C 469.654,613.914 469.487,614.747 468,615.5C 465.05,614.768 463.55,616.101 463.5,619.5C 465.199,619.34 466.866,619.506 468.5,620C 465.518,620.498 462.518,620.665 459.5,620.5C 458.5,620.5 457.5,620.5 456.5,620.5C 452.71,618.442 448.71,616.608 444.5,615C 446.75,614.389 448.417,613.056 449.5,611C 448.833,610.667 448.167,610.333 447.5,610C 450.5,608.167 453.5,606.333 456.5,604.5C 457.086,604.709 457.586,605.043 458,605.5C 458.622,603.269 459.789,601.435 461.5,600C 461.043,599.586 460.709,599.086 460.5,598.5C 462.353,598.08 464.187,597.747 466,597.5C 466.507,596.004 466.007,594.837 464.5,594C 466.32,593.021 467.487,591.521 468,589.5C 468.414,589.957 468.914,590.291 469.5,590.5C 470.281,589.271 470.781,587.938 471,586.5C 473.892,585.158 475.225,582.825 475,579.5C 477.589,577.789 480.089,575.955 482.5,574C 480.053,572.771 479.887,571.271 482,569.5C 482.667,570.833 483.333,570.833 484,569.5C 483.621,567.925 483.788,566.425 484.5,565C 482.165,563.48 482.332,561.98 485,560.5C 485.333,560.833 485.667,561.167 486,561.5C 487.046,559.91 488.213,558.41 489.5,557C 488.061,556.009 487.061,554.676 486.5,553C 488.081,552.293 489.581,551.46 491,550.5C 491.667,549.833 491.667,549.167 491,548.5C 490.107,549.711 489.274,549.711 488.5,548.5C 490.995,546.851 492.495,544.517 493,541.5C 493.333,542.167 493.667,542.833 494,543.5C 494.667,542.167 495.333,542.167 496,543.5C 496.667,542.833 496.667,542.167 496,541.5C 492.946,539.877 493.446,539.21 497.5,539.5C 496.392,537.305 496.559,535.305 498,533.5C 499.049,534.517 500.216,534.684 501.5,534C 500.833,533.667 500.167,533.333 499.5,533C 500.731,531.817 500.731,530.651 499.5,529.5C 498.105,530.815 497.105,530.481 496.5,528.5C 498.648,528.549 500.648,528.215 502.5,527.5C 499.093,524.733 499.093,522.233 502.5,520C 501.167,519.333 501.167,518.667 502.5,518C 501.833,516.667 500.833,515.667 499.5,515C 501.487,513.681 502.654,511.848 503,509.5C 503.333,511.167 503.667,512.833 504,514.5C 505.487,513.747 505.654,512.914 504.5,512C 505.448,511.517 506.448,511.351 507.5,511.5C 507.337,513.857 507.503,516.19 508,518.5C 508.183,515.635 508.683,512.969 509.5,510.5 Z"/></g>
<g><path style="opacity:1" fill="#fc4e35" d="M 751.5,551.5 C 729.118,588.548 699.118,617.881 661.5,639.5C 661.937,637.926 662.937,636.759 664.5,636C 663.359,635.259 663.359,634.425 664.5,633.5C 665.729,632.719 667.062,632.219 668.5,632C 668.004,630.004 667.004,628.337 665.5,627C 666.5,626.667 667.5,626.333 668.5,626C 664.188,624.456 662.022,625.956 662,630.5C 661.517,629.552 661.351,628.552 661.5,627.5C 659.856,627.714 658.356,627.38 657,626.5C 656.63,628.664 655.796,630.664 654.5,632.5C 654.331,631.603 653.998,630.603 653.5,629.5C 652.167,630.833 650.833,630.833 649.5,629.5C 648.719,630.737 647.719,631.737 646.5,632.5C 644.899,631.835 643.399,631.501 642,631.5C 640.386,632.023 638.886,633.356 637.5,635.5C 634.807,634.855 632.307,634.855 630,635.5C 627.147,638.037 623.98,638.87 620.5,638C 622.901,638.805 622.734,639.638 620,640.5C 617.4,639.693 615.066,640.36 613,642.5C 612.374,640.009 611.541,640.009 610.5,642.5C 609.483,639.972 608.316,639.972 607,642.5C 606.333,641.833 605.667,641.167 605,640.5C 602.41,641.45 600.41,643.116 599,645.5C 596.248,643.094 593.582,643.094 591,645.5C 589.043,644.116 588.043,644.783 588,647.5C 586.413,646.273 585.079,646.606 584,648.5C 583.333,645.833 582.667,645.833 582,648.5C 581.333,647.167 580.667,647.167 580,648.5C 579.333,645.833 578.667,645.833 578,648.5C 577.667,647.833 577.333,647.167 577,646.5C 576.15,647.424 575.15,647.424 574,646.5C 572.941,646.63 572.108,647.13 571.5,648C 572.299,652.496 571.466,652.663 569,648.5C 567.573,650.584 565.907,650.584 564,648.5C 562.893,648.585 561.893,648.919 561,649.5C 561.349,653.376 560.516,653.376 558.5,649.5C 552.345,652.639 546.512,655.639 541,658.5C 540.333,655.833 539.667,655.833 539,658.5C 534.717,658.933 530.55,660.433 526.5,663C 526.833,663.333 527.167,663.667 527.5,664C 523.833,664.333 520.167,664.667 516.5,665C 516.167,665.333 515.833,665.667 515.5,666C 516.357,666.689 517.023,667.522 517.5,668.5C 520.977,669.167 524.311,669.834 527.5,670.5C 512.075,670.724 497.075,668.724 482.5,664.5C 486.059,664.716 489.559,664.382 493,663.5C 494.872,664.068 496.705,664.735 498.5,665.5C 499.696,665.154 499.696,664.654 498.5,664C 497.5,663.667 496.5,663.333 495.5,663C 500.31,662.509 504.644,660.842 508.5,658C 506.071,657.549 505.904,656.715 508,655.5C 509.147,656.458 510.147,656.125 511,654.5C 512,655.167 513,655.833 514,656.5C 515.938,653.894 518.438,652.061 521.5,651C 520.167,649.16 520.334,648.66 522,649.5C 524.935,647.383 527.602,645.049 530,642.5C 531.53,643.636 532.863,644.636 534,645.5C 534.483,644.552 534.649,643.552 534.5,642.5C 536.564,642.313 538.564,641.813 540.5,641C 542.721,637.777 545.554,635.277 549,633.5C 549.667,636.167 550.333,636.167 551,633.5C 553.333,633.833 555.667,634.167 558,634.5C 558.915,633.672 559.581,632.672 560,631.5C 561.113,632.76 561.28,633.927 560.5,635C 563.79,635.589 565.29,634.089 565,630.5C 565.308,631.308 565.808,631.975 566.5,632.5C 567.696,632.154 567.696,631.654 566.5,631C 567.766,630.691 568.933,630.191 570,629.5C 571.147,630.458 572.147,630.125 573,628.5C 573.617,629.449 573.451,630.282 572.5,631C 573.025,631.692 573.692,632.192 574.5,632.5C 576.275,631.371 577.942,630.371 579.5,629.5C 582.018,629.523 584.684,629.856 587.5,630.5C 587.413,627.402 587.913,627.068 589,629.5C 590.883,628.347 591.716,626.681 591.5,624.5C 592.552,624.351 593.552,624.517 594.5,625C 593.112,625.889 593.278,626.389 595,626.5C 595.945,626.095 596.612,625.428 597,624.5C 597.419,625.672 598.085,626.672 599,627.5C 600.999,627.454 602.832,626.454 604.5,624.5C 606.029,624.529 607.196,625.196 608,626.5C 608.333,625.5 608.667,624.5 609,623.5C 610.388,624.554 611.888,624.72 613.5,624C 612.027,623.29 611.36,622.124 611.5,620.5C 612.873,620.343 614.207,620.51 615.5,621C 614.216,622.297 614.383,623.464 616,624.5C 616.471,622.754 617.138,621.087 618,619.5C 618.807,623.449 619.307,623.449 619.5,619.5C 621.124,619.36 622.29,620.027 623,621.5C 624.044,620.377 624.71,619.044 625,617.5C 626.53,618.636 627.863,619.636 629,620.5C 630.399,619.773 631.899,619.273 633.5,619C 632.692,618.692 632.025,618.192 631.5,617.5C 632.727,616.41 633.56,615.076 634,613.5C 635.019,614.687 636.186,615.687 637.5,616.5C 637.296,615.471 637.796,614.471 639,613.5C 639.84,616.464 640.84,616.797 642,614.5C 642.414,614.957 642.914,615.291 643.5,615.5C 644.281,614.271 644.781,612.938 645,611.5C 646.016,612.634 646.683,612.301 647,610.5C 647.414,610.957 647.914,611.291 648.5,611.5C 650.882,609.929 653.549,609.096 656.5,609C 656.833,608.667 657.167,608.333 657.5,608C 654.803,605.19 655.303,604.357 659,605.5C 660.912,601.967 662.745,602.3 664.5,606.5C 664.749,605.418 664.915,604.085 665,602.5C 665.667,603.833 666.333,603.833 667,602.5C 668.043,606.226 668.543,605.893 668.5,601.5C 669.822,601.67 670.989,601.337 672,600.5C 673,604.167 674.667,604.5 677,601.5C 677.333,601.833 677.667,602.167 678,602.5C 679,600.833 680.333,599.5 682,598.5C 683.073,599.28 684.24,599.113 685.5,598C 684.833,597.667 684.167,597.333 683.5,597C 685.985,595.513 688.152,593.679 690,591.5C 691.031,593.421 692.531,593.421 694.5,591.5C 693.098,590.158 693.431,589.324 695.5,589C 693.122,588.026 693.456,587.359 696.5,587C 694.071,586.549 693.904,585.715 696,584.5C 696.414,584.957 696.914,585.291 697.5,585.5C 697.833,584.833 698.167,584.167 698.5,583.5C 700.098,584.485 701.765,584.651 703.5,584C 703.167,583.667 702.833,583.333 702.5,583C 704.578,581.39 706.578,580.39 708.5,580C 708.167,579.667 707.833,579.333 707.5,579C 710.31,578.638 712.977,577.805 715.5,576.5C 717.297,574.869 718.464,572.869 719,570.5C 719.414,570.957 719.914,571.291 720.5,571.5C 722.18,569.638 723.847,567.805 725.5,566C 725.167,565.667 724.833,565.333 724.5,565C 726.93,564.357 728.597,562.857 729.5,560.5C 730.192,561.025 730.692,561.692 731,562.5C 732.61,560.269 734.443,558.269 736.5,556.5C 735.359,555.575 735.359,554.741 736.5,554C 737.993,552.632 739.493,552.465 741,553.5C 741.896,550.975 741.396,548.808 739.5,547C 740.167,546.333 740.833,546.333 741.5,547C 744.107,551.716 746.107,551.382 747.5,546C 746.256,545.544 745.423,546.044 745,547.5C 744.607,545.801 745.107,544.301 746.5,543C 746.095,542.055 745.428,541.388 744.5,541C 746.108,540.342 747.275,540.842 748,542.5C 749.396,540.473 751.062,540.14 753,541.5C 754.678,540.318 754.512,539.152 752.5,538C 752.667,537.5 752.833,537 753,536.5C 753.308,537.308 753.808,537.975 754.5,538.5C 758.082,536.816 758.915,537.483 757,540.5C 755.334,539.66 755.167,540.16 756.5,542C 754.114,542.284 753.448,543.284 754.5,545C 753.328,545.419 752.328,546.085 751.5,547C 752.413,548.414 752.413,549.914 751.5,551.5 Z"/></g>
<g><path style="opacity:1" fill="#f60ec4" d="M 367.5,584.5 C 367.631,585.239 367.464,585.906 367,586.5C 366,584.833 365,583.167 364,581.5C 363.309,583.891 362.309,583.891 361,581.5C 360.492,583.904 359.325,584.571 357.5,583.5C 356.692,583.808 356.025,584.308 355.5,585C 357.041,587.916 358.707,590.749 360.5,593.5C 360.376,594.107 360.043,594.44 359.5,594.5C 351.942,584.763 349.442,573.763 352,561.5C 359.263,544.302 371.429,539.468 388.5,547C 398.603,554.516 399.936,563.183 392.5,573C 383.157,575.995 380.657,573.161 385,564.5C 385.324,560.454 383.491,557.621 379.5,556C 369.224,555.772 363.891,560.939 363.5,571.5C 364.036,576.105 365.369,580.438 367.5,584.5 Z"/></g>
<g><path style="opacity:1" fill="#e30bd8" d="M 227.5,552.5 C 263.671,552.168 299.671,552.502 335.5,553.5C 325.347,554.494 315.014,554.828 304.5,554.5C 304.725,558.056 303.892,558.39 302,555.5C 301.5,555.667 301,555.833 300.5,556C 299.91,557.509 299.244,559.009 298.5,560.5C 297.284,561.002 296.117,561.335 295,561.5C 294.333,562.5 294.333,563.5 295,564.5C 296.566,565.061 297.899,564.394 299,562.5C 299.5,563 300,563.5 300.5,564C 299.027,564.71 298.36,565.876 298.5,567.5C 286.391,567.078 286.058,567.912 297.5,570C 309.674,570.169 321.674,570.669 333.5,571.5C 293.833,572.833 254.167,572.833 214.5,571.5C 231.328,570.668 248.328,570.168 265.5,570C 261.853,569.226 258.186,568.559 254.5,568C 255.931,567.535 257.097,566.701 258,565.5C 258.333,565.833 258.667,566.167 259,566.5C 260.509,565.91 262.009,565.244 263.5,564.5C 263.192,563.692 262.692,563.025 262,562.5C 260.667,563.167 259.333,563.833 258,564.5C 257.833,564.167 257.667,563.833 257.5,563.5C 260.747,561.708 264.08,560.208 267.5,559C 266.833,557.667 265.833,556.667 264.5,556C 269.5,555.667 274.5,555.333 279.5,555C 261.804,555.156 244.471,554.322 227.5,552.5 Z"/></g>
<g><path style="opacity:1" fill="#ee07d8" d="M 335.5,553.5 C 336.458,553.953 337.292,554.619 338,555.5C 338.667,559.5 338.667,563.5 338,567.5C 337.252,569.751 335.752,571.084 333.5,571.5C 321.674,570.669 309.674,570.169 297.5,570C 286.058,567.912 286.391,567.078 298.5,567.5C 298.36,565.876 299.027,564.71 300.5,564C 300,563.5 299.5,563 299,562.5C 297.899,564.394 296.566,565.061 295,564.5C 294.333,563.5 294.333,562.5 295,561.5C 296.117,561.335 297.284,561.002 298.5,560.5C 299.244,559.009 299.91,557.509 300.5,556C 301,555.833 301.5,555.667 302,555.5C 303.892,558.39 304.725,558.056 304.5,554.5C 315.014,554.828 325.347,554.494 335.5,553.5 Z"/></g>
<g><path style="opacity:1" fill="#f46110" d="M 843.5,475.5 C 854.266,474.936 860.599,479.936 862.5,490.5C 861.183,496.798 857.683,501.465 852,504.5C 851.667,519.833 851.333,535.167 851,550.5C 834.167,567.333 817.333,584.167 800.5,601C 788.262,602.294 775.929,602.961 763.5,603C 737.917,628.248 712.751,653.748 688,679.5C 687.667,687.5 687.333,695.5 687,703.5C 684.959,704.423 682.792,704.756 680.5,704.5C 680.334,695.161 680.5,685.827 681,676.5C 707.111,649.388 733.611,622.555 760.5,596C 772.738,594.706 785.071,594.039 797.5,594C 813,578.5 828.5,563 844,547.5C 844.5,532.837 844.667,518.17 844.5,503.5C 837.18,501.834 833.513,497.167 833.5,489.5C 834.147,482.861 837.481,478.195 843.5,475.5 Z"/></g>
<g><path style="opacity:1" fill="#211b20" d="M 845.5,482.5 C 852.685,482.848 855.519,486.515 854,493.5C 847.653,499.455 843.153,498.288 840.5,490C 840.831,486.52 842.498,484.02 845.5,482.5 Z"/></g>
<g><path style="opacity:1" fill="#f913ab" d="M 467.5,503.5 C 467.411,506.939 466.078,509.772 463.5,512C 465.878,512.974 465.544,513.641 462.5,514C 463.517,515.049 463.684,516.216 463,517.5C 461.816,515.346 460.65,515.68 459.5,518.5C 460.711,519.72 460.711,520.887 459.5,522C 461.756,523.499 461.756,525.166 459.5,527C 461.346,528.091 462.013,529.424 461.5,531C 459.963,532.11 459.297,533.61 459.5,535.5C 458.448,535.351 457.448,535.517 456.5,536C 458.422,537.46 459.089,539.127 458.5,541C 455.316,542.806 454.983,544.806 457.5,547C 451.889,546.595 451.556,547.595 456.5,550C 454.045,550.394 452.045,551.56 450.5,553.5C 454.126,557.083 453.959,559.749 450,561.5C 449.667,561.167 449.333,560.833 449,560.5C 448.517,561.448 448.351,562.448 448.5,563.5C 449.873,563.343 451.207,563.51 452.5,564C 449.732,564.708 448.899,566.208 450,568.5C 449.333,567.167 448.667,567.167 448,568.5C 447.383,569.449 447.549,570.282 448.5,571C 446.699,571.317 446.366,571.984 447.5,573C 445.615,575.164 443.615,576.497 441.5,577C 442.833,577.333 444.167,577.667 445.5,578C 444.069,578.465 442.903,579.299 442,580.5C 441.888,583.447 440.388,584.78 437.5,584.5C 437.762,585.978 437.429,587.311 436.5,588.5C 435.011,588.533 433.678,589.033 432.5,590C 433.167,590.333 433.833,590.667 434.5,591C 432.667,591.5 431.5,592.667 431,594.5C 430.692,593.692 430.192,593.025 429.5,592.5C 428.288,595.302 426.621,597.802 424.5,600C 423.328,600.353 422.162,600.187 421,599.5C 419.989,599.892 419.489,600.559 419.5,601.5C 418.808,600.975 418.308,600.308 418,599.5C 417.535,600.931 416.701,602.097 415.5,603C 417.037,604.11 417.703,605.61 417.5,607.5C 411.404,602.749 408.737,596.416 409.5,588.5C 413.459,553.401 430.792,527.234 461.5,510C 463.734,507.937 465.734,505.771 467.5,503.5 Z"/></g>
<g><path style="opacity:1" fill="#fc4b3c" d="M 779.5,483.5 C 774.737,505.282 766.904,525.949 756,545.5C 754.723,547.747 753.223,549.747 751.5,551.5C 752.413,549.914 752.413,548.414 751.5,547C 752.328,546.085 753.328,545.419 754.5,545C 753.448,543.284 754.114,542.284 756.5,542C 755.167,540.16 755.334,539.66 757,540.5C 758.915,537.483 758.082,536.816 754.5,538.5C 753.808,537.975 753.308,537.308 753,536.5C 752.833,537 752.667,537.5 752.5,538C 754.512,539.152 754.678,540.318 753,541.5C 751.062,540.14 749.396,540.473 748,542.5C 747.275,540.842 746.108,540.342 744.5,541C 745.428,541.388 746.095,542.055 746.5,543C 745.107,544.301 744.607,545.801 745,547.5C 745.423,546.044 746.256,545.544 747.5,546C 746.107,551.382 744.107,551.716 741.5,547C 740.833,546.333 740.167,546.333 739.5,547C 741.396,548.808 741.896,550.975 741,553.5C 739.493,552.465 737.993,552.632 736.5,554C 735.359,554.741 735.359,555.575 736.5,556.5C 734.443,558.269 732.61,560.269 731,562.5C 730.692,561.692 730.192,561.025 729.5,560.5C 728.597,562.857 726.93,564.357 724.5,565C 724.833,565.333 725.167,565.667 725.5,566C 723.847,567.805 722.18,569.638 720.5,571.5C 719.914,571.291 719.414,570.957 719,570.5C 718.464,572.869 717.297,574.869 715.5,576.5C 712.977,577.805 710.31,578.638 707.5,579C 707.833,579.333 708.167,579.667 708.5,580C 706.578,580.39 704.578,581.39 702.5,583C 702.833,583.333 703.167,583.667 703.5,584C 701.765,584.651 700.098,584.485 698.5,583.5C 698.167,584.167 697.833,584.833 697.5,585.5C 696.914,585.291 696.414,584.957 696,584.5C 693.904,585.715 694.071,586.549 696.5,587C 693.456,587.359 693.122,588.026 695.5,589C 693.431,589.324 693.098,590.158 694.5,591.5C 692.531,593.421 691.031,593.421 690,591.5C 688.152,593.679 685.985,595.513 683.5,597C 684.167,597.333 684.833,597.667 685.5,598C 684.24,599.113 683.073,599.28 682,598.5C 680.333,599.5 679,600.833 678,602.5C 677.667,602.167 677.333,601.833 677,601.5C 674.667,604.5 673,604.167 672,600.5C 670.989,601.337 669.822,601.67 668.5,601.5C 668.543,605.893 668.043,606.226 667,602.5C 666.333,603.833 665.667,603.833 665,602.5C 664.915,604.085 664.749,605.418 664.5,606.5C 662.745,602.3 660.912,601.967 659,605.5C 655.303,604.357 654.803,605.19 657.5,608C 657.167,608.333 656.833,608.667 656.5,609C 653.549,609.096 650.882,609.929 648.5,611.5C 647.914,611.291 647.414,610.957 647,610.5C 646.683,612.301 646.016,612.634 645,611.5C 644.781,612.938 644.281,614.271 643.5,615.5C 642.914,615.291 642.414,614.957 642,614.5C 640.84,616.797 639.84,616.464 639,613.5C 637.796,614.471 637.296,615.471 637.5,616.5C 636.186,615.687 635.019,614.687 634,613.5C 633.56,615.076 632.727,616.41 631.5,617.5C 632.025,618.192 632.692,618.692 633.5,619C 631.899,619.273 630.399,619.773 629,620.5C 627.863,619.636 626.53,618.636 625,617.5C 624.71,619.044 624.044,620.377 623,621.5C 622.29,620.027 621.124,619.36 619.5,619.5C 619.307,623.449 618.807,623.449 618,619.5C 617.138,621.087 616.471,622.754 616,624.5C 614.383,623.464 614.216,622.297 615.5,621C 614.207,620.51 612.873,620.343 611.5,620.5C 611.36,622.124 612.027,623.29 613.5,624C 611.888,624.72 610.388,624.554 609,623.5C 608.667,624.5 608.333,625.5 608,626.5C 607.196,625.196 606.029,624.529 604.5,624.5C 602.832,626.454 600.999,627.454 599,627.5C 598.085,626.672 597.419,625.672 597,624.5C 596.612,625.428 595.945,626.095 595,626.5C 593.278,626.389 593.112,625.889 594.5,625C 593.552,624.517 592.552,624.351 591.5,624.5C 591.716,626.681 590.883,628.347 589,629.5C 587.913,627.068 587.413,627.402 587.5,630.5C 584.684,629.856 582.018,629.523 579.5,629.5C 577.942,630.371 576.275,631.371 574.5,632.5C 573.692,632.192 573.025,631.692 572.5,631C 573.451,630.282 573.617,629.449 573,628.5C 572.147,630.125 571.147,630.458 570,629.5C 568.933,630.191 567.766,630.691 566.5,631C 567.696,631.654 567.696,632.154 566.5,632.5C 565.808,631.975 565.308,631.308 565,630.5C 565.29,634.089 563.79,635.589 560.5,635C 561.28,633.927 561.113,632.76 560,631.5C 559.581,632.672 558.915,633.672 558,634.5C 555.667,634.167 553.333,633.833 551,633.5C 550.333,636.167 549.667,636.167 549,633.5C 545.554,635.277 542.721,637.777 540.5,641C 538.564,641.813 536.564,642.313 534.5,642.5C 534.649,643.552 534.483,644.552 534,645.5C 532.863,644.636 531.53,643.636 530,642.5C 527.602,645.049 524.935,647.383 522,649.5C 520.334,648.66 520.167,649.16 521.5,651C 518.438,652.061 515.938,653.894 514,656.5C 513,655.833 512,655.167 511,654.5C 510.147,656.125 509.147,656.458 508,655.5C 505.904,656.715 506.071,657.549 508.5,658C 504.644,660.842 500.31,662.509 495.5,663C 496.5,663.333 497.5,663.667 498.5,664C 499.696,664.654 499.696,665.154 498.5,665.5C 496.705,664.735 494.872,664.068 493,663.5C 489.559,664.382 486.059,664.716 482.5,664.5C 478.313,663.787 474.313,662.787 470.5,661.5C 470.389,660.883 470.056,660.383 469.5,660C 470.657,658.411 472.657,657.078 475.5,656C 473,653.442 473.5,651.275 477,649.5C 478,649.833 479,650.167 480,650.5C 480.483,649.552 480.649,648.552 480.5,647.5C 483.718,647.349 484.051,646.516 481.5,645C 482.793,644.51 484.127,644.343 485.5,644.5C 485.502,640.459 486.835,639.792 489.5,642.5C 490.354,641.478 491.354,640.645 492.5,640C 491.692,639.692 491.025,639.192 490.5,638.5C 491.436,637.026 492.77,636.026 494.5,635.5C 495.747,633.994 495.747,632.494 494.5,631C 495.737,630.768 496.737,630.268 497.5,629.5C 530.219,626.26 560.885,616.593 589.5,600.5C 590.583,600.539 591.583,600.873 592.5,601.5C 591.984,600.242 592.65,599.242 594.5,598.5C 594.109,599.718 594.776,600.552 596.5,601C 597.872,601.402 599.205,601.902 600.5,602.5C 602.559,600.314 604.892,600.148 607.5,602C 606.304,602.654 606.304,603.154 607.5,603.5C 608.167,602.5 608.833,601.5 609.5,600.5C 611.486,602.783 612.653,602.116 613,598.5C 613.684,600.359 614.684,602.026 616,603.5C 617.154,601.043 618.488,601.043 620,603.5C 620.249,602.376 620.749,601.376 621.5,600.5C 622.716,601.002 623.883,601.335 625,601.5C 625.346,599.152 626.513,597.319 628.5,596C 630.925,595.707 632.758,594.541 634,592.5C 634.691,594.891 635.691,594.891 637,592.5C 637.317,594.301 637.984,594.634 639,593.5C 639.423,594.956 640.256,595.456 641.5,595C 640.167,593.16 640.334,592.66 642,593.5C 643.067,592.809 644.234,592.309 645.5,592C 643.178,590.308 642.678,588.474 644,586.5C 645.044,587.623 645.71,588.956 646,590.5C 647.115,588.092 648.782,586.092 651,584.5C 651.333,584.833 651.667,585.167 652,585.5C 653.399,584.773 654.899,584.273 656.5,584C 655.5,583.667 654.5,583.333 653.5,583C 656.167,582.333 656.167,581.667 653.5,581C 654.635,580.251 655.635,580.417 656.5,581.5C 656.919,582.672 657.585,583.672 658.5,584.5C 659.167,582.833 659.833,581.167 660.5,579.5C 662.378,579.623 664.211,579.623 666,579.5C 666.333,578.167 666.667,576.833 667,575.5C 667.249,576.624 667.749,577.624 668.5,578.5C 669.893,577.137 671.559,576.304 673.5,576C 671.744,575.798 670.078,575.298 668.5,574.5C 669.066,573.709 669.899,573.709 671,574.5C 672.581,572.153 673.914,572.153 675,574.5C 675.711,572.633 675.211,571.133 673.5,570C 674.899,569.405 676.232,569.572 677.5,570.5C 678.799,569.91 679.632,568.91 680,567.5C 680.333,568.167 680.667,568.833 681,569.5C 681.595,568.101 681.428,566.768 680.5,565.5C 681.65,562.68 682.816,562.346 684,564.5C 684.667,563.167 685.333,563.167 686,564.5C 686.333,563.833 686.667,563.167 687,562.5C 687.718,563.451 688.551,563.617 689.5,563C 692.167,561.667 692.167,560.333 689.5,559C 690.716,557.26 692.382,556.26 694.5,556C 693.167,554.667 693.167,553.333 694.5,552C 695.744,551.544 696.577,552.044 697,553.5C 698.833,552.333 700.667,551.167 702.5,550C 701.167,549.667 699.833,549.333 698.5,549C 702.415,547.936 704.582,549.436 705,553.5C 704.593,549.553 704.927,545.553 706,541.5C 706.333,543.167 706.667,544.833 707,546.5C 708.672,545.027 710.506,544.193 712.5,544C 711.376,543.751 710.376,543.251 709.5,542.5C 710.603,542.002 711.603,541.669 712.5,541.5C 710.887,540.573 709.221,539.739 707.5,539C 708.76,537.887 709.927,537.72 711,538.5C 711.667,535.833 712.333,535.833 713,538.5C 713.522,536.559 714.355,534.892 715.5,533.5C 716.415,534.328 717.081,535.328 717.5,536.5C 718.365,537.583 719.365,537.749 720.5,537C 719.833,536.667 719.167,536.333 718.5,536C 719.833,535.333 719.833,534.667 718.5,534C 720.878,533.026 720.544,532.359 717.5,532C 719.869,531.464 721.869,530.297 723.5,528.5C 724.223,526.31 725.39,524.31 727,522.5C 727.333,522.833 727.667,523.167 728,523.5C 728.419,522.328 729.085,521.328 730,520.5C 731.52,522.835 733.02,522.668 734.5,520C 733.128,519.598 731.795,519.098 730.5,518.5C 729.288,516.59 729.621,516.256 731.5,517.5C 732.281,516.271 732.781,514.938 733,513.5C 733.615,515.116 734.615,516.449 736,517.5C 736.346,514.424 737.012,511.424 738,508.5C 739.333,508.5 740.667,508.5 742,508.5C 742.317,506.699 742.984,506.366 744,507.5C 745.589,505.974 747.423,504.807 749.5,504C 747.479,503.86 745.645,503.693 744,503.5C 743.667,504.167 743.333,504.833 743,505.5C 742.5,504.333 741.667,503.5 740.5,503C 741.025,502.308 741.692,501.808 742.5,501.5C 744.518,502.813 745.685,502.147 746,499.5C 746.333,500.167 746.667,500.833 747,501.5C 747.387,497.697 749.387,495.363 753,494.5C 753.684,493.216 753.517,492.049 752.5,491C 753.584,488.175 754.751,488.008 756,490.5C 756.75,489.874 757.584,489.374 758.5,489C 757.874,488.25 757.374,487.416 757,486.5C 756.667,486.833 756.333,487.167 756,487.5C 755.517,486.552 755.351,485.552 755.5,484.5C 756.93,484.421 758.264,484.754 759.5,485.5C 759.032,483.887 759.699,482.387 761.5,481C 766.508,480.131 766.175,479.464 760.5,479C 761.833,478.333 761.833,477.667 760.5,477C 761.5,476.333 762.5,476.333 763.5,477C 762.304,477.654 762.304,478.154 763.5,478.5C 765.225,477.985 766.892,477.318 768.5,476.5C 764.735,476.705 764.735,475.872 768.5,474C 767.209,471.91 767.876,470.576 770.5,470C 769.167,468.667 769.167,467.333 770.5,466C 768.299,465.223 768.299,464.056 770.5,462.5C 770.296,463.529 770.796,464.529 772,465.5C 773,463.833 774,462.167 775,460.5C 775.667,463.167 776.333,463.167 777,460.5C 778.011,461.337 779.178,461.67 780.5,461.5C 780.351,462.552 780.517,463.552 781,464.5C 781.36,462.392 782.027,460.392 783,458.5C 783.167,459.167 783.333,459.833 783.5,460.5C 782.163,468.174 780.83,475.841 779.5,483.5 Z"/></g>
<g><path style="opacity:1" fill="#f819ac" d="M 367.5,584.5 C 370.092,588.432 373.092,592.099 376.5,595.5C 375.852,597.086 375.352,598.753 375,600.5C 373.951,599.483 372.784,599.316 371.5,600C 370.087,601.122 369.254,602.288 369,603.5C 367.862,603.011 366.695,602.678 365.5,602.5C 363.115,600.116 361.115,597.45 359.5,594.5C 360.043,594.44 360.376,594.107 360.5,593.5C 358.707,590.749 357.041,587.916 355.5,585C 356.025,584.308 356.692,583.808 357.5,583.5C 359.325,584.571 360.492,583.904 361,581.5C 362.309,583.891 363.309,583.891 364,581.5C 365,583.167 366,584.833 367,586.5C 367.464,585.906 367.631,585.239 367.5,584.5 Z"/></g>
<g><path style="opacity:1" fill="#f81d90" d="M 500.5,587.5 C 499.979,596.194 500.979,604.694 503.5,613C 503.646,615.034 502.98,616.701 501.5,618C 499.043,619.562 496.376,620.562 493.5,621C 481.992,621.826 470.659,621.659 459.5,620.5C 462.518,620.665 465.518,620.498 468.5,620C 466.866,619.506 465.199,619.34 463.5,619.5C 463.55,616.101 465.05,614.768 468,615.5C 469.487,614.747 469.654,613.914 468.5,613C 469.743,610.966 471.243,610.133 473,610.5C 473.707,608.919 474.54,607.419 475.5,606C 476.449,605.383 477.282,605.549 478,606.5C 478.324,604.431 479.158,604.098 480.5,605.5C 482.112,602.511 484.445,600.178 487.5,598.5C 488.192,599.025 488.692,599.692 489,600.5C 490.871,599.003 491.871,597.003 492,594.5C 492.333,594.833 492.667,595.167 493,595.5C 494.487,594.747 494.654,593.914 493.5,593C 494.944,592.219 496.277,592.386 497.5,593.5C 498.189,595.444 498.689,597.444 499,599.5C 499.176,595.312 499.676,591.312 500.5,587.5 Z"/></g>
<g><path style="opacity:1" fill="#f82791" d="M 376.5,595.5 C 383.654,601.247 391.321,606.247 399.5,610.5C 399.368,614.964 397.701,615.63 394.5,612.5C 394.089,613.262 393.923,614.262 394,615.5C 393.667,615.167 393.333,614.833 393,614.5C 391.681,616.487 389.848,617.654 387.5,618C 388.634,619.016 388.301,619.683 386.5,620C 389.079,621.076 390.746,622.909 391.5,625.5C 382.041,618.764 373.374,611.097 365.5,602.5C 366.695,602.678 367.862,603.011 369,603.5C 369.254,602.288 370.087,601.122 371.5,600C 372.784,599.316 373.951,599.483 375,600.5C 375.352,598.753 375.852,597.086 376.5,595.5 Z"/></g>
<g><path style="opacity:1" fill="#fa317c" d="M 399.5,610.5 C 409.934,615.09 420.601,619.09 431.5,622.5C 430.791,623.404 429.791,623.737 428.5,623.5C 425.216,621.901 421.716,620.567 418,619.5C 414.375,622.45 410.208,623.95 405.5,624C 404.773,625.399 404.273,626.899 404,628.5C 402.42,625.746 401.254,625.912 400.5,629C 402.018,630.351 403.351,631.851 404.5,633.5C 400.027,631.095 395.694,628.429 391.5,625.5C 390.746,622.909 389.079,621.076 386.5,620C 388.301,619.683 388.634,619.016 387.5,618C 389.848,617.654 391.681,616.487 393,614.5C 393.333,614.833 393.667,615.167 394,615.5C 393.923,614.262 394.089,613.262 394.5,612.5C 397.701,615.63 399.368,614.964 399.5,610.5 Z"/></g>
<g><path style="opacity:1" fill="#fc356f" d="M 428.5,623.5 C 425.358,623.799 423.191,625.466 422,628.5C 421.667,628.167 421.333,627.833 421,627.5C 419.997,630.156 418.33,631.156 416,630.5C 415.505,632.473 415.338,634.473 415.5,636.5C 413.007,636.131 412.34,636.797 413.5,638.5C 410.008,637.59 407.008,635.924 404.5,633.5C 403.351,631.851 402.018,630.351 400.5,629C 401.254,625.912 402.42,625.746 404,628.5C 404.273,626.899 404.773,625.399 405.5,624C 410.208,623.95 414.375,622.45 418,619.5C 421.716,620.567 425.216,621.901 428.5,623.5 Z"/></g>
<g><path style="opacity:1" fill="#f93b64" d="M 431.5,622.5 C 440.235,624.597 448.902,626.597 457.5,628.5C 454.428,628.183 451.428,628.516 448.5,629.5C 448,630.5 447.5,631.5 447,632.5C 443.748,633.002 440.748,633.002 438,632.5C 437.667,634.047 438.167,635.38 439.5,636.5C 438.284,637.096 436.951,637.263 435.5,637C 434.789,638.255 433.956,639.421 433,640.5C 432.667,640.167 432.333,639.833 432,639.5C 431.5,640.5 431,641.5 430.5,642.5C 431.026,644.265 431.359,645.932 431.5,647.5C 424.903,645.535 418.903,642.535 413.5,638.5C 412.34,636.797 413.007,636.131 415.5,636.5C 415.338,634.473 415.505,632.473 416,630.5C 418.33,631.156 419.997,630.156 421,627.5C 421.333,627.833 421.667,628.167 422,628.5C 423.191,625.466 425.358,623.799 428.5,623.5C 429.791,623.737 430.791,623.404 431.5,622.5 Z"/></g>
<g><path style="opacity:1" fill="#10b8d1" d="M 143.5,509.5 C 145.199,509.34 146.866,509.506 148.5,510C 158.364,519.53 167.864,529.363 177,539.5C 177.173,560.406 177.673,581.24 178.5,602C 193.167,602.333 207.833,602.667 222.5,603C 234.5,615 246.5,627 258.5,639C 285.167,639.333 311.833,639.667 338.5,640C 347.974,649.702 357.641,659.035 367.5,668C 380.167,668.333 392.833,668.667 405.5,669C 407.325,670.466 407.825,672.299 407,674.5C 392.908,675.656 378.742,675.823 364.5,675C 354.53,666.03 344.863,656.697 335.5,647C 308.833,646.667 282.167,646.333 255.5,646C 243.5,634 231.5,622 219.5,610C 204.833,609.667 190.167,609.333 175.5,609C 173.274,607.773 171.774,605.939 171,603.5C 170.667,582.833 170.333,562.167 170,541.5C 161,532.5 152,523.5 143,514.5C 142.36,512.735 142.527,511.068 143.5,509.5 Z"/></g>
<g><path style="opacity:1" fill="#fb4056" d="M 457.5,628.5 C 462.845,628.687 468.178,629.02 473.5,629.5C 469.267,630.949 465.601,632.782 462.5,635C 462.957,635.414 463.291,635.914 463.5,636.5C 462.284,637.096 460.951,637.263 459.5,637C 458.874,637.75 458.374,638.584 458,639.5C 457.667,639.167 457.333,638.833 457,638.5C 456.779,641.943 455.779,642.276 454,639.5C 451.473,642.027 448.973,644.527 446.5,647C 447.167,647.333 447.833,647.667 448.5,648C 447.833,649.333 447.167,650.667 446.5,652C 448.093,652.949 449.426,654.115 450.5,655.5C 443.764,653.594 437.431,650.927 431.5,647.5C 431.359,645.932 431.026,644.265 430.5,642.5C 431,641.5 431.5,640.5 432,639.5C 432.333,639.833 432.667,640.167 433,640.5C 433.956,639.421 434.789,638.255 435.5,637C 436.951,637.263 438.284,637.096 439.5,636.5C 438.167,635.38 437.667,634.047 438,632.5C 440.748,633.002 443.748,633.002 447,632.5C 447.5,631.5 448,630.5 448.5,629.5C 451.428,628.516 454.428,628.183 457.5,628.5 Z"/></g>
<g><path style="opacity:1" fill="#fc4649" d="M 473.5,629.5 C 481.5,629.5 489.5,629.5 497.5,629.5C 496.737,630.268 495.737,630.768 494.5,631C 495.747,632.494 495.747,633.994 494.5,635.5C 492.77,636.026 491.436,637.026 490.5,638.5C 491.025,639.192 491.692,639.692 492.5,640C 491.354,640.645 490.354,641.478 489.5,642.5C 486.835,639.792 485.502,640.459 485.5,644.5C 484.127,644.343 482.793,644.51 481.5,645C 484.051,646.516 483.718,647.349 480.5,647.5C 480.649,648.552 480.483,649.552 480,650.5C 479,650.167 478,649.833 477,649.5C 473.5,651.275 473,653.442 475.5,656C 472.657,657.078 470.657,658.411 469.5,660C 470.056,660.383 470.389,660.883 470.5,661.5C 463.631,660.059 456.964,658.059 450.5,655.5C 449.426,654.115 448.093,652.949 446.5,652C 447.167,650.667 447.833,649.333 448.5,648C 447.833,647.667 447.167,647.333 446.5,647C 448.973,644.527 451.473,642.027 454,639.5C 455.779,642.276 456.779,641.943 457,638.5C 457.333,638.833 457.667,639.167 458,639.5C 458.374,638.584 458.874,637.75 459.5,637C 460.951,637.263 462.284,637.096 463.5,636.5C 463.291,635.914 462.957,635.414 462.5,635C 465.601,632.782 469.267,630.949 473.5,629.5 Z"/></g>
<g><path style="opacity:1" fill="#f5630e" d="M 914.5,535.5 C 930.037,534.531 935.87,541.531 932,556.5C 926.02,564.061 918.853,565.395 910.5,560.5C 881.456,590.045 852.122,619.545 822.5,649C 798.261,649.827 774.094,649.661 750,648.5C 749.137,646.251 749.637,644.418 751.5,643C 774.167,642.667 796.833,642.333 819.5,642C 848.162,613.338 876.662,584.838 905,556.5C 903.375,547.097 906.541,540.097 914.5,535.5 Z"/></g>
<g><path style="opacity:1" fill="#1f1b21" d="M 916.5,542.5 C 923.655,542.153 926.821,545.486 926,552.5C 921.162,558.036 916.829,557.703 913,551.5C 912.333,549.833 912.333,548.167 913,546.5C 914.376,545.295 915.542,543.962 916.5,542.5 Z"/></g>
<g><path style="opacity:1" fill="#fb522d" d="M 661.5,639.5 C 619.804,663.11 575.137,673.443 527.5,670.5C 524.311,669.834 520.977,669.167 517.5,668.5C 517.023,667.522 516.357,666.689 515.5,666C 515.833,665.667 516.167,665.333 516.5,665C 520.167,664.667 523.833,664.333 527.5,664C 527.167,663.667 526.833,663.333 526.5,663C 530.55,660.433 534.717,658.933 539,658.5C 539.667,655.833 540.333,655.833 541,658.5C 546.512,655.639 552.345,652.639 558.5,649.5C 560.516,653.376 561.349,653.376 561,649.5C 561.893,648.919 562.893,648.585 564,648.5C 565.907,650.584 567.573,650.584 569,648.5C 571.466,652.663 572.299,652.496 571.5,648C 572.108,647.13 572.941,646.63 574,646.5C 575.15,647.424 576.15,647.424 577,646.5C 577.333,647.167 577.667,647.833 578,648.5C 578.667,645.833 579.333,645.833 580,648.5C 580.667,647.167 581.333,647.167 582,648.5C 582.667,645.833 583.333,645.833 584,648.5C 585.079,646.606 586.413,646.273 588,647.5C 588.043,644.783 589.043,644.116 591,645.5C 593.582,643.094 596.248,643.094 599,645.5C 600.41,643.116 602.41,641.45 605,640.5C 605.667,641.167 606.333,641.833 607,642.5C 608.316,639.972 609.483,639.972 610.5,642.5C 611.541,640.009 612.374,640.009 613,642.5C 615.066,640.36 617.4,639.693 620,640.5C 622.734,639.638 622.901,638.805 620.5,638C 623.98,638.87 627.147,638.037 630,635.5C 632.307,634.855 634.807,634.855 637.5,635.5C 638.886,633.356 640.386,632.023 642,631.5C 643.399,631.501 644.899,631.835 646.5,632.5C 647.719,631.737 648.719,630.737 649.5,629.5C 650.833,630.833 652.167,630.833 653.5,629.5C 653.998,630.603 654.331,631.603 654.5,632.5C 655.796,630.664 656.63,628.664 657,626.5C 658.356,627.38 659.856,627.714 661.5,627.5C 661.351,628.552 661.517,629.552 662,630.5C 662.022,625.956 664.188,624.456 668.5,626C 667.5,626.333 666.5,626.667 665.5,627C 667.004,628.337 668.004,630.004 668.5,632C 667.062,632.219 665.729,632.719 664.5,633.5C 663.359,634.425 663.359,635.259 664.5,636C 662.937,636.759 661.937,637.926 661.5,639.5 Z"/></g>
<g><path style="opacity:1" fill="#07b5d0" d="M 128.5,661.5 C 128.5,661.167 128.5,660.833 128.5,660.5C 129.404,659.791 129.737,658.791 129.5,657.5C 179.834,657.333 230.168,657.5 280.5,658C 281.337,659.011 281.67,660.178 281.5,661.5C 230.5,661.5 179.5,661.5 128.5,661.5 Z"/></g>
<g><path style="opacity:1" fill="#15c2d9" d="M 128.5,661.5 C 179.5,661.5 230.5,661.5 281.5,661.5C 281.67,660.178 281.337,659.011 280.5,658C 230.168,657.5 179.834,657.333 129.5,657.5C 129.737,658.791 129.404,659.791 128.5,660.5C 128.5,659.167 128.5,657.833 128.5,656.5C 179.501,656.333 230.501,656.5 281.5,657C 282.833,659 282.833,661 281.5,663C 256,663.167 230.5,663.333 205,663.5C 179.158,663.5 153.658,662.833 128.5,661.5 Z"/></g>
</svg>
