<svg xmlns="http://www.w3.org/2000/svg" version="1.1" viewBox="0.00 0.00 1000.00 1000.00" width="1000.00" height="1000.00">
<g stroke-width="2.00" fill="none" stroke-linecap="butt">
<path stroke="#8d0f84" d="&#10;  M 419.16 194.96&#10;  Q 405.18 194.86 391.13 195.02&#10;  Q 376.96 195.17 369.50 196.79&#10;  C 343.74 202.35 321.82 220.71 311.58 244.85&#10;  Q 302.20 266.97 296.30 280.54&#10;  A 5.50 5.37 -31.6 0 0 295.85 282.33&#10;  Q 295.37 288.18 295.66 289.36&#10;  Q 297.22 295.72 304.75 295.72&#10;  Q 375.60 295.79 446.59 295.71"/>
<path stroke="#8e1a61" d="&#10;  M 446.59 295.71&#10;  Q 466.45 295.75 486.39 295.71&#10;  Q 503.33 295.68 508.96 294.17&#10;  Q 522.80 290.46 532.45 279.38&#10;  C 534.75 276.73 536.50 273.40 538.21 270.75&#10;  Q 539.79 268.30 541.68 263.79&#10;  Q 550.30 243.16 557.40 227.02&#10;  Q 561.48 217.75 557.05 209.67&#10;  C 551.24 199.06 541.46 194.95 529.73 194.91&#10;  Q 506.26 194.84 419.16 194.96"/>
<path stroke="#fd0bc3" d="&#10;  M 446.59 295.71&#10;  C 446.77 287.10 451.27 281.64 457.73 276.55"/>
<path stroke="#8e1a61" d="&#10;  M 457.73 276.55&#10;  Q 477.08 276.44 496.51 276.58&#10;  Q 509.72 276.67 517.64 267.56&#10;  Q 520.63 264.12 523.81 255.84&#10;  C 528.34 244.05 532.75 234.42 536.89 224.02&#10;  Q 538.60 219.72 537.98 217.75&#10;  Q 536.94 214.48 533.00 214.49&#10;  Q 472.23 214.74 411.14 214.58"/>
<path stroke="#fd0bc3" d="&#10;  M 411.14 214.58&#10;  C 417.83 209.28 420.74 203.31 419.16 194.96"/>
<path stroke="#8d0f84" d="&#10;  M 411.14 214.58&#10;  Q 399.65 214.62 387.99 214.57&#10;  Q 377.95 214.53 372.68 215.73&#10;  C 352.99 220.22 336.95 233.67 329.15 252.39&#10;  Q 322.90 267.38 320.92 271.94&#10;  Q 320.20 273.60 320.35 274.59&#10;  A 2.42 2.40 85.7 0 0 322.74 276.67&#10;  Q 390.31 276.53 457.73 276.55"/>
<path stroke="#8e1a61" d="&#10;  M 399.50 600.50&#10;  Q 382.94 593.94 370.65 584.34&#10;  Q 364.75 579.73 359.79 572.02"/>
<path stroke="#8d0f84" d="&#10;  M 359.79 572.02&#10;  Q 356.79 566.97 355.71 562.28&#10;  C 354.00 554.80 357.63 545.23 365.39 543.18&#10;  Q 371.45 541.59 375.12 545.91&#10;  C 378.05 549.36 376.86 551.74 374.65 555.36&#10;  C 373.53 557.21 374.00 560.85 376.73 561.47&#10;  C 383.77 563.08 389.07 555.01 388.40 548.85&#10;  C 387.37 539.57 379.78 532.90 370.85 531.41&#10;  C 358.97 529.42 347.42 538.87 344.48 549.93&#10;  C 341.30 561.91 345.81 573.82 353.57 583.94"/>
<path stroke="#8e1a61" d="&#10;  M 353.57 583.94&#10;  Q 358.51 590.71 364.06 595.70&#10;  Q 369.78 600.84 371.75 602.75&#10;  Q 375.69 606.55 389.50 615.68"/>
<path stroke="#8e3136" d="&#10;  M 389.50 615.68&#10;  Q 410.98 629.75 435.00 638.69&#10;  Q 474.16 653.27 515.07 655.63&#10;  Q 548.59 657.56 581.70 650.35&#10;  Q 613.87 643.35 644.04 626.40&#10;  Q 687.07 602.24 717.11 564.62&#10;  Q 749.02 524.66 762.47 472.65&#10;  Q 763.77 467.64 765.08 459.74&#10;  Q 766.41 451.67 767.12 446.74&#10;  C 772.29 410.55 769.35 371.88 756.44 337.61&#10;  Q 739.26 292.00 705.28 258.83&#10;  Q 682.23 236.32 655.64 224.08&#10;  Q 629.16 211.90 599.78 209.87&#10;  Q 594.87 209.53 590.78 211.62&#10;  A 0.51 0.51 0.0 0 0 590.69 212.46&#10;  Q 591.76 213.35 592.81 213.93&#10;  Q 621.88 229.91 643.32 255.40&#10;  Q 685.86 305.98 691.69 369.57&#10;  C 695.24 408.37 688.30 447.61 672.05 483.29&#10;  Q 669.01 489.98 665.58 495.60&#10;  A 1.39 1.39 0.0 0 1 663.34 495.78&#10;  Q 647.98 477.90 646.50 476.09&#10;  Q 642.48 471.16 641.71 465.80&#10;  Q 640.58 457.98 640.97 447.50&#10;  C 641.20 441.45 639.38 427.39 633.29 423.43&#10;  A 3.95 3.94 -76.4 0 1 631.52 420.52&#10;  Q 630.75 412.80 629.46 403.54&#10;  Q 628.57 397.15 625.93 392.33&#10;  Q 625.12 390.86 623.01 390.20&#10;  A 1.43 1.41 42.2 0 0 622.03 390.24&#10;  Q 619.70 391.19 618.84 392.36&#10;  C 614.35 398.47 611.37 405.70 608.24 413.39&#10;  A 1.31 1.30 -77.4 0 1 606.96 414.21&#10;  Q 604.14 414.07 602.33 414.08&#10;  C 596.44 414.10 589.62 418.88 585.90 423.13&#10;  C 582.66 426.85 580.86 431.21 578.34 436.11&#10;  Q 577.57 437.61 575.34 439.08&#10;  Q 567.81 444.03 558.74 444.15&#10;  A 2.31 2.31 0.0 0 0 556.76 445.33&#10;  C 554.75 448.90 555.73 453.82 557.48 457.50&#10;  C 564.03 471.39 575.63 473.00 589.57 474.62&#10;  A 1.19 1.19 0.0 0 1 590.62 475.91&#10;  Q 590.22 480.07 589.36 482.33&#10;  C 584.23 495.80 579.25 508.63 584.70 522.83&#10;  Q 589.96 536.56 590.27 537.41&#10;  Q 595.07 550.52 592.99 564.24&#10;  Q 592.68 566.25 592.87 568.65&#10;  A 0.32 0.32 0.0 0 0 593.37 568.89&#10;  Q 613.85 554.49 630.08 539.55&#10;  A 0.36 0.35 -44.4 0 1 630.57 539.55&#10;  L 630.59 539.56&#10;  A 0.34 0.33 38.8 0 1 630.64 540.00&#10;  Q 618.58 556.44 602.88 568.62&#10;  C 568.05 595.65 526.59 612.68 482.84 615.28&#10;  C 454.35 616.97 425.66 611.56 399.50 600.50"/>
<path stroke="#fe2e75" d="&#10;  M 389.50 615.68&#10;  Q 391.74 609.81 397.94 606.43&#10;  Q 402.62 603.88 404.88 603.46&#10;  A 0.63 0.62 -26.0 0 1 405.45 603.65&#10;  Q 405.83 604.08 406.14 603.82&#10;  A 0.20 0.20 0.0 0 0 406.09 603.49&#10;  L 399.50 600.50"/>
<path stroke="#fd0bc3" d="&#10;  M 359.79 572.02&#10;  Q 353.83 576.05 353.57 583.94"/>
<path stroke="#8d0f84" d="&#10;  M 223.23 559.31&#10;  Q 272.69 559.28 322.00 559.29&#10;  Q 328.01 559.30 330.16 555.32&#10;  C 331.72 552.44 331.30 547.68 331.15 544.64&#10;  A 2.64 2.52 31.8 0 0 330.90 543.68&#10;  C 328.88 539.65 325.92 540.13 321.12 540.13&#10;  Q 272.72 540.06 224.27 540.24"/>
<path stroke="#8d0f84" d="&#10;  M 224.27 540.24&#10;  C 218.08 540.18 221.23 534.41 222.55 531.30&#10;  Q 230.96 511.34 236.44 497.77&#10;  Q 239.34 490.60 242.26 487.57&#10;  C 248.32 481.29 254.95 479.81 263.57 479.89&#10;  Q 298.85 480.20 371.99 480.09&#10;  Q 388.00 480.07 391.53 479.23&#10;  Q 400.95 477.00 408.17 469.22&#10;  Q 412.26 464.82 414.83 459.31&#10;  Q 417.96 452.60 421.73 442.51"/>
<path stroke="#8e1a61" d="&#10;  M 421.73 442.51&#10;  Q 427.23 431.83 428.55 422.26&#10;  Q 430.04 411.41 422.25 403.12"/>
<path stroke="#8d0f84" d="&#10;  M 422.25 403.12&#10;  Q 415.18 396.00 404.50 396.04&#10;  Q 340.91 396.29 277.31 396.24&#10;  Q 277.24 396.24 276.19 396.31&#10;  C 274.16 396.44 272.64 394.54 273.43 392.66&#10;  Q 287.00 360.67 296.54 337.80&#10;  Q 298.20 333.81 301.77 333.81&#10;  Q 394.87 333.90 435.05 333.75&#10;  Q 449.01 333.70 455.22 335.23&#10;  Q 473.84 339.79 485.65 353.63&#10;  Q 498.19 368.33 501.95 389.37"/>
<path stroke="#8e1a61" d="&#10;  M 501.95 389.37&#10;  Q 504.14 402.38 501.51 415.54&#10;  Q 500.05 422.81 499.57 426.00&#10;  Q 499.23 428.26 500.36 429.83&#10;  A 1.54 1.52 79.2 0 0 501.20 430.41&#10;  Q 507.67 432.07 513.30 431.41&#10;  A 4.45 4.44 -80.5 0 0 516.77 428.93&#10;  C 520.11 422.05 520.75 413.96 521.42 406.01&#10;  Q 521.93 399.98 521.45 393.44&#10;  Q 519.76 370.31 507.31 350.51"/>
<path stroke="#8d0f84" d="&#10;  M 507.31 350.51&#10;  Q 502.23 343.62 499.03 340.21&#10;  Q 480.74 320.74 455.22 315.80&#10;  Q 447.94 314.40 435.21 314.46&#10;  Q 375.48 314.73 294.58 314.48&#10;  Q 289.53 314.47 287.14 315.79&#10;  Q 283.86 317.61 282.25 321.53&#10;  Q 260.15 375.00 249.23 399.56&#10;  Q 247.51 403.45 247.61 405.80&#10;  Q 248.01 415.49 257.49 415.48&#10;  Q 375.42 415.48 402.49 415.30&#10;  C 407.58 415.27 409.93 419.54 408.25 423.98&#10;  Q 404.89 432.84 396.76 452.31&#10;  Q 394.94 456.69 389.47 460.51&#10;  A 4.05 4.03 -69.6 0 1 388.21 461.09&#10;  Q 385.77 461.72 385.25 461.71&#10;  C 344.19 461.08 305.94 461.68 263.79 461.47&#10;  Q 253.25 461.41 247.85 462.77&#10;  C 234.30 466.18 224.40 476.57 219.10 489.33&#10;  Q 217.44 493.35 214.35 501.36&#10;  Q 211.16 509.64 198.46 538.51&#10;  Q 195.31 545.66 199.50 551.55&#10;  C 205.43 559.90 214.07 559.47 223.23 559.31"/>
<path stroke="#fd0bc3" d="&#10;  M 507.31 350.51&#10;  L 512.19 361.28&#10;  A 0.05 0.05 0.0 0 1 512.16 361.35&#10;  L 511.93 361.46&#10;  A 0.28 0.27 64.8 0 1 511.56 361.32&#10;  Q 507.72 352.59 501.21 345.78&#10;  A 0.85 0.85 0.0 0 0 500.42 345.54&#10;  Q 493.06 347.07 488.93 353.40&#10;  A 0.86 0.85 -43.6 0 0 488.90 354.31&#10;  Q 491.96 359.53 495.51 365.73&#10;  Q 498.69 371.30 501.12 380.05&#10;  Q 502.55 385.17 501.95 389.37"/>
<path stroke="#fd0bc3" d="&#10;  M 422.25 403.12&#10;  Q 423.64 406.35 425.59 408.91&#10;  A 2.65 2.56 -77.6 0 1 425.91 409.43&#10;  Q 428.06 413.99 428.25 418.97&#10;  Q 428.36 421.82 427.37 424.32&#10;  A 3.46 3.28 59.4 0 0 427.15 425.28&#10;  C 426.87 428.58 425.11 431.92 424.16 434.97&#10;  A 5.30 5.12 -23.5 0 1 423.80 435.84&#10;  Q 422.15 438.91 421.73 442.51"/>
<path stroke="#fc00e6" d="&#10;  M 224.27 540.24&#10;  C 226.62 541.79 229.45 543.09 229.64 546.31&#10;  C 230.00 552.41 229.80 556.79 223.23 559.31"/>
<path stroke="#156b7b" d="&#10;  M 138.93 392.62&#10;  Q 142.51 390.84 145.04 387.87&#10;  C 154.30 377.02 142.50 360.99 129.46 366.21&#10;  Q 123.27 368.68 121.45 374.44&#10;  C 118.77 382.90 122.59 389.10 130.26 392.65&#10;  A 2.37 2.37 0.0 0 1 131.62 394.76&#10;  Q 131.73 406.27 131.66 426.59&#10;  C 131.66 429.20 132.12 430.87 133.86 432.64&#10;  Q 163.54 462.74 180.11 479.16&#10;  A 3.16 3.16 0.0 0 0 184.67 479.04&#10;  L 184.76 478.94&#10;  A 3.46 3.46 0.0 0 0 184.65 474.16&#10;  Q 163.48 452.99 139.64 428.85&#10;  Q 138.40 427.59 138.40 425.50&#10;  Q 138.45 409.71 138.51 393.30&#10;  A 0.76 0.76 0.0 0 1 138.93 392.62"/>
<path stroke="#8e1a61" d="&#10;  M 483.93 424.03&#10;  C 478.30 428.49 474.59 433.09 470.47 439.70&#10;  C 463.27 451.27 459.20 464.21 459.08 477.74&#10;  C 458.98 488.32 457.78 494.57 448.30 500.41&#10;  Q 441.60 504.55 437.40 507.86&#10;  C 422.33 519.70 409.53 536.12 404.80 554.78&#10;  C 401.34 568.41 395.43 587.41 411.47 596.01&#10;  C 431.37 606.70 455.87 608.14 478.24 607.27&#10;  Q 483.46 607.07 488.09 605.05&#10;  Q 493.07 602.88 491.80 597.26&#10;  C 490.82 592.91 488.98 587.99 488.60 583.44&#10;  C 487.82 573.86 490.68 567.05 494.92 558.66&#10;  Q 501.66 545.32 502.20 530.26&#10;  Q 502.49 522.24 501.16 517.01&#10;  C 500.10 512.83 496.60 506.07 498.02 499.34&#10;  A 2.97 2.96 87.8 0 1 500.07 497.12&#10;  Q 505.17 495.59 507.63 494.76&#10;  C 514.35 492.50 519.15 488.11 522.24 481.78&#10;  Q 523.20 479.83 523.02 477.60&#10;  C 522.80 474.88 518.80 473.53 516.84 472.99&#10;  A 4.28 4.26 -2.1 0 1 513.96 470.33&#10;  Q 511.61 463.80 509.82 459.19&#10;  C 506.42 450.39 500.03 447.40 491.65 444.61&#10;  A 1.93 1.87 76.8 0 1 490.87 444.11&#10;  Q 489.63 442.80 489.55 440.72&#10;  C 489.38 436.24 488.52 427.68 485.72 424.23&#10;  A 1.29 1.28 51.3 0 0 483.93 424.03"/>
<path stroke="#156b7b" d="&#10;  M 86.34 461.81&#10;  A 2.01 2.01 0.0 0 1 87.99 460.95&#10;  Q 97.01 460.93 122.31 460.85&#10;  Q 125.56 460.84 127.89 463.18&#10;  Q 146.88 482.24 173.46 509.05&#10;  A 3.25 3.25 0.0 0 0 178.16 508.97&#10;  L 178.26 508.86&#10;  A 3.54 3.53 43.9 0 0 178.16 503.95&#10;  Q 149.10 475.03 131.03 456.43&#10;  Q 128.44 453.77 123.79 453.82&#10;  Q 95.42 454.14 87.83 453.89&#10;  A 1.47 1.47 0.0 0 1 86.53 453.01&#10;  Q 83.93 447.08 79.13 444.70&#10;  C 69.49 439.92 59.12 447.32 59.45 457.89&#10;  C 59.65 464.44 64.63 470.12 71.13 471.10&#10;  C 76.00 471.83 81.93 469.22 84.36 465.09&#10;  Q 85.97 462.34 86.34 461.81"/>
<path stroke="#8c3f17" d="&#10;  M 746.80 588.95&#10;  A 1.79 1.77 22.3 0 1 748.06 588.43&#10;  Q 771.37 588.44 778.51 588.49&#10;  Q 781.09 588.51 782.80 586.79&#10;  Q 796.11 573.42 829.64 540.10&#10;  Q 832.02 537.73 832.02 533.51&#10;  Q 831.97 500.59 831.90 496.01&#10;  Q 831.86 492.92 833.82 491.97&#10;  C 847.44 485.39 843.77 466.67 828.95 465.18&#10;  C 823.42 464.62 817.59 468.40 815.63 473.62&#10;  Q 812.31 482.44 818.68 488.84&#10;  C 820.01 490.17 822.62 491.41 824.06 492.19&#10;  A 1.83 1.83 0.0 0 1 825.03 493.82&#10;  Q 824.86 513.62 824.89 532.93&#10;  Q 824.90 535.10 823.14 536.89&#10;  Q 804.81 555.51 779.74 580.14&#10;  A 4.18 4.16 -67.0 0 1 776.79 581.34&#10;  Q 760.87 581.32 746.76 581.30&#10;  Q 744.91 581.30 743.11 583.10&#10;  Q 677.16 649.07 666.24 660.05&#10;  A 4.28 4.27 -22.6 0 0 665.00 663.06&#10;  L 665.00 686.06&#10;  A 2.89 2.89 0.0 0 0 667.89 688.95&#10;  L 668.94 688.95&#10;  A 3.01 3.01 0.0 0 0 671.95 685.94&#10;  L 671.95 665.69&#10;  A 4.59 4.56 -22.7 0 1 673.28 662.47&#10;  L 746.80 588.95"/>
<path stroke="#156b7b" d="&#10;  M 174.25 586.88&#10;  Q 174.26 561.78 174.27 531.50&#10;  Q 174.27 527.61 171.96 525.27&#10;  Q 159.23 512.41 145.60 498.66&#10;  A 3.53 3.52 47.0 0 0 140.77 498.49&#10;  L 140.62 498.61&#10;  A 3.02 3.02 0.0 0 0 140.43 503.05&#10;  L 166.28 529.01&#10;  A 3.74 3.69 22.9 0 1 167.36 531.62&#10;  Q 167.49 561.75 167.38 585.44&#10;  C 167.34 593.13 170.15 596.08 178.33 595.94&#10;  Q 187.94 595.79 211.77 595.86&#10;  Q 214.95 595.87 217.88 598.84&#10;  Q 229.60 610.72 248.17 629.41&#10;  C 249.82 631.07 251.29 632.01 253.50 632.02&#10;  Q 264.51 632.08 326.62 632.04&#10;  A 4.06 4.06 0.0 0 1 329.50 633.24&#10;  Q 349.91 653.80 354.48 658.27&#10;  Q 356.49 660.24 358.79 660.24&#10;  Q 394.69 660.29 395.05 660.29&#10;  A 3.29 3.29 0.0 0 0 398.31 656.87&#10;  L 398.32 656.60&#10;  A 3.25 3.25 0.0 0 0 395.07 653.33&#10;  L 360.20 653.33&#10;  A 2.18 2.16 -22.5 0 1 358.68 652.71&#10;  Q 335.03 629.02 333.91 627.90&#10;  C 332.61 626.60 330.53 625.01 329.01 625.02&#10;  Q 268.27 625.08 255.41 625.06&#10;  Q 253.39 625.06 252.03 623.69&#10;  Q 232.66 604.22 220.38 591.81&#10;  Q 217.74 589.14 215.74 589.11&#10;  Q 196.44 588.84 176.35 588.97&#10;  A 2.09 2.09 0.0 0 1 174.25 586.88"/>
<path stroke="#8c3f17" d="&#10;  M 890.97 548.32&#10;  C 896.20 552.02 903.58 551.60 908.10 546.92&#10;  C 916.30 538.43 911.64 525.05 900.20 523.46&#10;  Q 893.40 522.52 888.24 527.92&#10;  Q 883.40 532.99 885.52 541.13&#10;  A 1.31 1.29 50.1 0 1 885.45 542.00&#10;  Q 884.95 543.12 883.15 544.90&#10;  Q 862.96 564.88 802.66 625.57&#10;  C 801.51 626.73 800.36 628.02 798.76 628.02&#10;  Q 737.28 628.08 735.77 628.04&#10;  A 3.33 3.33 0.0 0 0 732.35 631.17&#10;  L 732.30 631.68&#10;  A 2.99 2.98 -87.5 0 0 735.28 634.94&#10;  L 801.64 634.94&#10;  A 2.26 2.24 -67.4 0 0 803.23 634.28&#10;  L 889.03 548.48&#10;  A 1.51 1.51 0.0 0 1 890.97 548.32"/>
<path stroke="#156b7b" d="&#10;  M 126.03 642.66&#10;  L 126.03 647.06&#10;  A 1.27 1.27 0.0 0 0 127.30 648.33&#10;  L 273.56 648.33&#10;  A 3.01 2.65 -0.0 0 0 276.57 645.68&#10;  L 276.57 644.04&#10;  A 3.01 2.65 0.0 0 0 273.56 641.39&#10;  L 127.30 641.39&#10;  A 1.27 1.27 0.0 0 0 126.03 642.66"/>
<path stroke="#156b7b" d="&#10;  M 141.43 379.22&#10;  A 7.01 7.01 0.0 0 0 134.42 372.21&#10;  A 7.01 7.01 0.0 0 0 127.41 379.22&#10;  A 7.01 7.01 0.0 0 0 134.42 386.23&#10;  A 7.01 7.01 0.0 0 0 141.43 379.22"/>
<path stroke="#156b7b" d="&#10;  M 80.07 457.19&#10;  A 6.96 6.96 0.0 0 0 73.11 450.23&#10;  A 6.96 6.96 0.0 0 0 66.15 457.19&#10;  A 6.96 6.96 0.0 0 0 73.11 464.15&#10;  A 6.96 6.96 0.0 0 0 80.07 457.19"/>
<path stroke="#8c3f17" d="&#10;  M 833.8148 483.3677&#10;  A 6.36 6.36 0.0 0 0 833.5479 474.3773&#10;  L 832.6164 473.4994&#10;  A 6.36 6.36 0.0 0 0 823.6259 473.7663&#10;  L 822.8852 474.5523&#10;  A 6.36 6.36 0.0 0 0 823.1521 483.5427&#10;  L 824.0836 484.4206&#10;  A 6.36 6.36 0.0 0 0 833.0741 484.1537&#10;  L 833.8148 483.3677"/>
<path stroke="#8c3f17" d="&#10;  M 905.42 537.06&#10;  A 6.89 6.89 0.0 0 0 898.53 530.17&#10;  A 6.89 6.89 0.0 0 0 891.64 537.06&#10;  A 6.89 6.89 0.0 0 0 898.53 543.95&#10;  A 6.89 6.89 0.0 0 0 905.42 537.06"/>
</g>
<path fill="#1e1d22" d="&#10;  M 1000.00 0.00&#10;  L 1000.00 1000.00&#10;  L 0.00 1000.00&#10;  L 0.00 0.00&#10;  L 1000.00 0.00&#10;  Z&#10;  M 419.16 194.96&#10;  Q 405.18 194.86 391.13 195.02&#10;  Q 376.96 195.17 369.50 196.79&#10;  C 343.74 202.35 321.82 220.71 311.58 244.85&#10;  Q 302.20 266.97 296.30 280.54&#10;  A 5.50 5.37 -31.6 0 0 295.85 282.33&#10;  Q 295.37 288.18 295.66 289.36&#10;  Q 297.22 295.72 304.75 295.72&#10;  Q 375.60 295.79 446.59 295.71&#10;  Q 466.45 295.75 486.39 295.71&#10;  Q 503.33 295.68 508.96 294.17&#10;  Q 522.80 290.46 532.45 279.38&#10;  C 534.75 276.73 536.50 273.40 538.21 270.75&#10;  Q 539.79 268.30 541.68 263.79&#10;  Q 550.30 243.16 557.40 227.02&#10;  Q 561.48 217.75 557.05 209.67&#10;  C 551.24 199.06 541.46 194.95 529.73 194.91&#10;  Q 506.26 194.84 419.16 194.96&#10;  Z&#10;  M 399.50 600.50&#10;  Q 382.94 593.94 370.65 584.34&#10;  Q 364.75 579.73 359.79 572.02&#10;  Q 356.79 566.97 355.71 562.28&#10;  C 354.00 554.80 357.63 545.23 365.39 543.18&#10;  Q 371.45 541.59 375.12 545.91&#10;  C 378.05 549.36 376.86 551.74 374.65 555.36&#10;  C 373.53 557.21 374.00 560.85 376.73 561.47&#10;  C 383.77 563.08 389.07 555.01 388.40 548.85&#10;  C 387.37 539.57 379.78 532.90 370.85 531.41&#10;  C 358.97 529.42 347.42 538.87 344.48 549.93&#10;  C 341.30 561.91 345.81 573.82 353.57 583.94&#10;  Q 358.51 590.71 364.06 595.70&#10;  Q 369.78 600.84 371.75 602.75&#10;  Q 375.69 606.55 389.50 615.68&#10;  Q 410.98 629.75 435.00 638.69&#10;  Q 474.16 653.27 515.07 655.63&#10;  Q 548.59 657.56 581.70 650.35&#10;  Q 613.87 643.35 644.04 626.40&#10;  Q 687.07 602.24 717.11 564.62&#10;  Q 749.02 524.66 762.47 472.65&#10;  Q 763.77 467.64 765.08 459.74&#10;  Q 766.41 451.67 767.12 446.74&#10;  C 772.29 410.55 769.35 371.88 756.44 337.61&#10;  Q 739.26 292.00 705.28 258.83&#10;  Q 682.23 236.32 655.64 224.08&#10;  Q 629.16 211.90 599.78 209.87&#10;  Q 594.87 209.53 590.78 211.62&#10;  A 0.51 0.51 0.0 0 0 590.69 212.46&#10;  Q 591.76 213.35 592.81 213.93&#10;  Q 621.88 229.91 643.32 255.40&#10;  Q 685.86 305.98 691.69 369.57&#10;  C 695.24 408.37 688.30 447.61 672.05 483.29&#10;  Q 669.01 489.98 665.58 495.60&#10;  A 1.39 1.39 0.0 0 1 663.34 495.78&#10;  Q 647.98 477.90 646.50 476.09&#10;  Q 642.48 471.16 641.71 465.80&#10;  Q 640.58 457.98 640.97 447.50&#10;  C 641.20 441.45 639.38 427.39 633.29 423.43&#10;  A 3.95 3.94 -76.4 0 1 631.52 420.52&#10;  Q 630.75 412.80 629.46 403.54&#10;  Q 628.57 397.15 625.93 392.33&#10;  Q 625.12 390.86 623.01 390.20&#10;  A 1.43 1.41 42.2 0 0 622.03 390.24&#10;  Q 619.70 391.19 618.84 392.36&#10;  C 614.35 398.47 611.37 405.70 608.24 413.39&#10;  A 1.31 1.30 -77.4 0 1 606.96 414.21&#10;  Q 604.14 414.07 602.33 414.08&#10;  C 596.44 414.10 589.62 418.88 585.90 423.13&#10;  C 582.66 426.85 580.86 431.21 578.34 436.11&#10;  Q 577.57 437.61 575.34 439.08&#10;  Q 567.81 444.03 558.74 444.15&#10;  A 2.31 2.31 0.0 0 0 556.76 445.33&#10;  C 554.75 448.90 555.73 453.82 557.48 457.50&#10;  C 564.03 471.39 575.63 473.00 589.57 474.62&#10;  A 1.19 1.19 0.0 0 1 590.62 475.91&#10;  Q 590.22 480.07 589.36 482.33&#10;  C 584.23 495.80 579.25 508.63 584.70 522.83&#10;  Q 589.96 536.56 590.27 537.41&#10;  Q 595.07 550.52 592.99 564.24&#10;  Q 592.68 566.25 592.87 568.65&#10;  A 0.32 0.32 0.0 0 0 593.37 568.89&#10;  Q 613.85 554.49 630.08 539.55&#10;  A 0.36 0.35 -44.4 0 1 630.57 539.55&#10;  L 630.59 539.56&#10;  A 0.34 0.33 38.8 0 1 630.64 540.00&#10;  Q 618.58 556.44 602.88 568.62&#10;  C 568.05 595.65 526.59 612.68 482.84 615.28&#10;  C 454.35 616.97 425.66 611.56 399.50 600.50&#10;  Z&#10;  M 223.23 559.31&#10;  Q 272.69 559.28 322.00 559.29&#10;  Q 328.01 559.30 330.16 555.32&#10;  C 331.72 552.44 331.30 547.68 331.15 544.64&#10;  A 2.64 2.52 31.8 0 0 330.90 543.68&#10;  C 328.88 539.65 325.92 540.13 321.12 540.13&#10;  Q 272.72 540.06 224.27 540.24&#10;  C 218.08 540.18 221.23 534.41 222.55 531.30&#10;  Q 230.96 511.34 236.44 497.77&#10;  Q 239.34 490.60 242.26 487.57&#10;  C 248.32 481.29 254.95 479.81 263.57 479.89&#10;  Q 298.85 480.20 371.99 480.09&#10;  Q 388.00 480.07 391.53 479.23&#10;  Q 400.95 477.00 408.17 469.22&#10;  Q 412.26 464.82 414.83 459.31&#10;  Q 417.96 452.60 421.73 442.51&#10;  Q 427.23 431.83 428.55 422.26&#10;  Q 430.04 411.41 422.25 403.12&#10;  Q 415.18 396.00 404.50 396.04&#10;  Q 340.91 396.29 277.31 396.24&#10;  Q 277.24 396.24 276.19 396.31&#10;  C 274.16 396.44 272.64 394.54 273.43 392.66&#10;  Q 287.00 360.67 296.54 337.80&#10;  Q 298.20 333.81 301.77 333.81&#10;  Q 394.87 333.90 435.05 333.75&#10;  Q 449.01 333.70 455.22 335.23&#10;  Q 473.84 339.79 485.65 353.63&#10;  Q 498.19 368.33 501.95 389.37&#10;  Q 504.14 402.38 501.51 415.54&#10;  Q 500.05 422.81 499.57 426.00&#10;  Q 499.23 428.26 500.36 429.83&#10;  A 1.54 1.52 79.2 0 0 501.20 430.41&#10;  Q 507.67 432.07 513.30 431.41&#10;  A 4.45 4.44 -80.5 0 0 516.77 428.93&#10;  C 520.11 422.05 520.75 413.96 521.42 406.01&#10;  Q 521.93 399.98 521.45 393.44&#10;  Q 519.76 370.31 507.31 350.51&#10;  Q 502.23 343.62 499.03 340.21&#10;  Q 480.74 320.74 455.22 315.80&#10;  Q 447.94 314.40 435.21 314.46&#10;  Q 375.48 314.73 294.58 314.48&#10;  Q 289.53 314.47 287.14 315.79&#10;  Q 283.86 317.61 282.25 321.53&#10;  Q 260.15 375.00 249.23 399.56&#10;  Q 247.51 403.45 247.61 405.80&#10;  Q 248.01 415.49 257.49 415.48&#10;  Q 375.42 415.48 402.49 415.30&#10;  C 407.58 415.27 409.93 419.54 408.25 423.98&#10;  Q 404.89 432.84 396.76 452.31&#10;  Q 394.94 456.69 389.47 460.51&#10;  A 4.05 4.03 -69.6 0 1 388.21 461.09&#10;  Q 385.77 461.72 385.25 461.71&#10;  C 344.19 461.08 305.94 461.68 263.79 461.47&#10;  Q 253.25 461.41 247.85 462.77&#10;  C 234.30 466.18 224.40 476.57 219.10 489.33&#10;  Q 217.44 493.35 214.35 501.36&#10;  Q 211.16 509.64 198.46 538.51&#10;  Q 195.31 545.66 199.50 551.55&#10;  C 205.43 559.90 214.07 559.47 223.23 559.31&#10;  Z&#10;  M 138.93 392.62&#10;  Q 142.51 390.84 145.04 387.87&#10;  C 154.30 377.02 142.50 360.99 129.46 366.21&#10;  Q 123.27 368.68 121.45 374.44&#10;  C 118.77 382.90 122.59 389.10 130.26 392.65&#10;  A 2.37 2.37 0.0 0 1 131.62 394.76&#10;  Q 131.73 406.27 131.66 426.59&#10;  C 131.66 429.20 132.12 430.87 133.86 432.64&#10;  Q 163.54 462.74 180.11 479.16&#10;  A 3.16 3.16 0.0 0 0 184.67 479.04&#10;  L 184.76 478.94&#10;  A 3.46 3.46 0.0 0 0 184.65 474.16&#10;  Q 163.48 452.99 139.64 428.85&#10;  Q 138.40 427.59 138.40 425.50&#10;  Q 138.45 409.71 138.51 393.30&#10;  A 0.76 0.76 0.0 0 1 138.93 392.62&#10;  Z&#10;  M 483.93 424.03&#10;  C 478.30 428.49 474.59 433.09 470.47 439.70&#10;  C 463.27 451.27 459.20 464.21 459.08 477.74&#10;  C 458.98 488.32 457.78 494.57 448.30 500.41&#10;  Q 441.60 504.55 437.40 507.86&#10;  C 422.33 519.70 409.53 536.12 404.80 554.78&#10;  C 401.34 568.41 395.43 587.41 411.47 596.01&#10;  C 431.37 606.70 455.87 608.14 478.24 607.27&#10;  Q 483.46 607.07 488.09 605.05&#10;  Q 493.07 602.88 491.80 597.26&#10;  C 490.82 592.91 488.98 587.99 488.60 583.44&#10;  C 487.82 573.86 490.68 567.05 494.92 558.66&#10;  Q 501.66 545.32 502.20 530.26&#10;  Q 502.49 522.24 501.16 517.01&#10;  C 500.10 512.83 496.60 506.07 498.02 499.34&#10;  A 2.97 2.96 87.8 0 1 500.07 497.12&#10;  Q 505.17 495.59 507.63 494.76&#10;  C 514.35 492.50 519.15 488.11 522.24 481.78&#10;  Q 523.20 479.83 523.02 477.60&#10;  C 522.80 474.88 518.80 473.53 516.84 472.99&#10;  A 4.28 4.26 -2.1 0 1 513.96 470.33&#10;  Q 511.61 463.80 509.82 459.19&#10;  C 506.42 450.39 500.03 447.40 491.65 444.61&#10;  A 1.93 1.87 76.8 0 1 490.87 444.11&#10;  Q 489.63 442.80 489.55 440.72&#10;  C 489.38 436.24 488.52 427.68 485.72 424.23&#10;  A 1.29 1.28 51.3 0 0 483.93 424.03&#10;  Z&#10;  M 86.34 461.81&#10;  A 2.01 2.01 0.0 0 1 87.99 460.95&#10;  Q 97.01 460.93 122.31 460.85&#10;  Q 125.56 460.84 127.89 463.18&#10;  Q 146.88 482.24 173.46 509.05&#10;  A 3.25 3.25 0.0 0 0 178.16 508.97&#10;  L 178.26 508.86&#10;  A 3.54 3.53 43.9 0 0 178.16 503.95&#10;  Q 149.10 475.03 131.03 456.43&#10;  Q 128.44 453.77 123.79 453.82&#10;  Q 95.42 454.14 87.83 453.89&#10;  A 1.47 1.47 0.0 0 1 86.53 453.01&#10;  Q 83.93 447.08 79.13 444.70&#10;  C 69.49 439.92 59.12 447.32 59.45 457.89&#10;  C 59.65 464.44 64.63 470.12 71.13 471.10&#10;  C 76.00 471.83 81.93 469.22 84.36 465.09&#10;  Q 85.97 462.34 86.34 461.81&#10;  Z&#10;  M 746.80 588.95&#10;  A 1.79 1.77 22.3 0 1 748.06 588.43&#10;  Q 771.37 588.44 778.51 588.49&#10;  Q 781.09 588.51 782.80 586.79&#10;  Q 796.11 573.42 829.64 540.10&#10;  Q 832.02 537.73 832.02 533.51&#10;  Q 831.97 500.59 831.90 496.01&#10;  Q 831.86 492.92 833.82 491.97&#10;  C 847.44 485.39 843.77 466.67 828.95 465.18&#10;  C 823.42 464.62 817.59 468.40 815.63 473.62&#10;  Q 812.31 482.44 818.68 488.84&#10;  C 820.01 490.17 822.62 491.41 824.06 492.19&#10;  A 1.83 1.83 0.0 0 1 825.03 493.82&#10;  Q 824.86 513.62 824.89 532.93&#10;  Q 824.90 535.10 823.14 536.89&#10;  Q 804.81 555.51 779.74 580.14&#10;  A 4.18 4.16 -67.0 0 1 776.79 581.34&#10;  Q 760.87 581.32 746.76 581.30&#10;  Q 744.91 581.30 743.11 583.10&#10;  Q 677.16 649.07 666.24 660.05&#10;  A 4.28 4.27 -22.6 0 0 665.00 663.06&#10;  L 665.00 686.06&#10;  A 2.89 2.89 0.0 0 0 667.89 688.95&#10;  L 668.94 688.95&#10;  A 3.01 3.01 0.0 0 0 671.95 685.94&#10;  L 671.95 665.69&#10;  A 4.59 4.56 -22.7 0 1 673.28 662.47&#10;  L 746.80 588.95&#10;  Z&#10;  M 174.25 586.88&#10;  Q 174.26 561.78 174.27 531.50&#10;  Q 174.27 527.61 171.96 525.27&#10;  Q 159.23 512.41 145.60 498.66&#10;  A 3.53 3.52 47.0 0 0 140.77 498.49&#10;  L 140.62 498.61&#10;  A 3.02 3.02 0.0 0 0 140.43 503.05&#10;  L 166.28 529.01&#10;  A 3.74 3.69 22.9 0 1 167.36 531.62&#10;  Q 167.49 561.75 167.38 585.44&#10;  C 167.34 593.13 170.15 596.08 178.33 595.94&#10;  Q 187.94 595.79 211.77 595.86&#10;  Q 214.95 595.87 217.88 598.84&#10;  Q 229.60 610.72 248.17 629.41&#10;  C 249.82 631.07 251.29 632.01 253.50 632.02&#10;  Q 264.51 632.08 326.62 632.04&#10;  A 4.06 4.06 0.0 0 1 329.50 633.24&#10;  Q 349.91 653.80 354.48 658.27&#10;  Q 356.49 660.24 358.79 660.24&#10;  Q 394.69 660.29 395.05 660.29&#10;  A 3.29 3.29 0.0 0 0 398.31 656.87&#10;  L 398.32 656.60&#10;  A 3.25 3.25 0.0 0 0 395.07 653.33&#10;  L 360.20 653.33&#10;  A 2.18 2.16 -22.5 0 1 358.68 652.71&#10;  Q 335.03 629.02 333.91 627.90&#10;  C 332.61 626.60 330.53 625.01 329.01 625.02&#10;  Q 268.27 625.08 255.41 625.06&#10;  Q 253.39 625.06 252.03 623.69&#10;  Q 232.66 604.22 220.38 591.81&#10;  Q 217.74 589.14 215.74 589.11&#10;  Q 196.44 588.84 176.35 588.97&#10;  A 2.09 2.09 0.0 0 1 174.25 586.88&#10;  Z&#10;  M 890.97 548.32&#10;  C 896.20 552.02 903.58 551.60 908.10 546.92&#10;  C 916.30 538.43 911.64 525.05 900.20 523.46&#10;  Q 893.40 522.52 888.24 527.92&#10;  Q 883.40 532.99 885.52 541.13&#10;  A 1.31 1.29 50.1 0 1 885.45 542.00&#10;  Q 884.95 543.12 883.15 544.90&#10;  Q 862.96 564.88 802.66 625.57&#10;  C 801.51 626.73 800.36 628.02 798.76 628.02&#10;  Q 737.28 628.08 735.77 628.04&#10;  A 3.33 3.33 0.0 0 0 732.35 631.17&#10;  L 732.30 631.68&#10;  A 2.99 2.98 -87.5 0 0 735.28 634.94&#10;  L 801.64 634.94&#10;  A 2.26 2.24 -67.4 0 0 803.23 634.28&#10;  L 889.03 548.48&#10;  A 1.51 1.51 0.0 0 1 890.97 548.32&#10;  Z&#10;  M 126.03 642.66&#10;  L 126.03 647.06&#10;  A 1.27 1.27 0.0 0 0 127.30 648.33&#10;  L 273.56 648.33&#10;  A 3.01 2.65 -0.0 0 0 276.57 645.68&#10;  L 276.57 644.04&#10;  A 3.01 2.65 0.0 0 0 273.56 641.39&#10;  L 127.30 641.39&#10;  A 1.27 1.27 0.0 0 0 126.03 642.66&#10;  Z"/>
<path fill="#fd16a0" d="&#10;  M 446.59 295.71&#10;  C 446.77 287.10 451.27 281.64 457.73 276.55&#10;  Q 477.08 276.44 496.51 276.58&#10;  Q 509.72 276.67 517.64 267.56&#10;  Q 520.63 264.12 523.81 255.84&#10;  C 528.34 244.05 532.75 234.42 536.89 224.02&#10;  Q 538.60 219.72 537.98 217.75&#10;  Q 536.94 214.48 533.00 214.49&#10;  Q 472.23 214.74 411.14 214.58&#10;  C 417.83 209.28 420.74 203.31 419.16 194.96&#10;  Q 506.26 194.84 529.73 194.91&#10;  C 541.46 194.95 551.24 199.06 557.05 209.67&#10;  Q 561.48 217.75 557.40 227.02&#10;  Q 550.30 243.16 541.68 263.79&#10;  Q 539.79 268.30 538.21 270.75&#10;  C 536.50 273.40 534.75 276.73 532.45 279.38&#10;  Q 522.80 290.46 508.96 294.17&#10;  Q 503.33 295.68 486.39 295.71&#10;  Q 466.45 295.75 446.59 295.71&#10;  Z"/>
<path fill="#fc00e6" d="&#10;  M 419.16 194.96&#10;  C 420.74 203.31 417.83 209.28 411.14 214.58&#10;  Q 399.65 214.62 387.99 214.57&#10;  Q 377.95 214.53 372.68 215.73&#10;  C 352.99 220.22 336.95 233.67 329.15 252.39&#10;  Q 322.90 267.38 320.92 271.94&#10;  Q 320.20 273.60 320.35 274.59&#10;  A 2.42 2.40 85.7 0 0 322.74 276.67&#10;  Q 390.31 276.53 457.73 276.55&#10;  C 451.27 281.64 446.77 287.10 446.59 295.71&#10;  Q 375.60 295.79 304.75 295.72&#10;  Q 297.22 295.72 295.66 289.36&#10;  Q 295.37 288.18 295.85 282.33&#10;  A 5.50 5.37 -31.6 0 1 296.30 280.54&#10;  Q 302.20 266.97 311.58 244.85&#10;  C 321.82 220.71 343.74 202.35 369.50 196.79&#10;  Q 376.96 195.17 391.13 195.02&#10;  Q 405.18 194.86 419.16 194.96&#10;  Z"/>
<path fill="#fe4549" d="&#10;  M 389.50 615.68&#10;  Q 391.74 609.81 397.94 606.43&#10;  Q 402.62 603.88 404.88 603.46&#10;  A 0.63 0.62 -26.0 0 1 405.45 603.65&#10;  Q 405.83 604.08 406.14 603.82&#10;  A 0.20 0.20 0.0 0 0 406.09 603.49&#10;  L 399.50 600.50&#10;  C 425.66 611.56 454.35 616.97 482.84 615.28&#10;  C 526.59 612.68 568.05 595.65 602.88 568.62&#10;  Q 618.58 556.44 630.64 540.00&#10;  A 0.34 0.33 38.8 0 0 630.59 539.56&#10;  L 630.57 539.55&#10;  A 0.36 0.35 -44.4 0 0 630.08 539.55&#10;  Q 613.85 554.49 593.37 568.89&#10;  A 0.32 0.32 0.0 0 1 592.87 568.65&#10;  Q 592.68 566.25 592.99 564.24&#10;  Q 595.07 550.52 590.27 537.41&#10;  Q 589.96 536.56 584.70 522.83&#10;  C 579.25 508.63 584.23 495.80 589.36 482.33&#10;  Q 590.22 480.07 590.62 475.91&#10;  A 1.19 1.19 0.0 0 0 589.57 474.62&#10;  C 575.63 473.00 564.03 471.39 557.48 457.50&#10;  C 555.73 453.82 554.75 448.90 556.76 445.33&#10;  A 2.31 2.31 0.0 0 1 558.74 444.15&#10;  Q 567.81 444.03 575.34 439.08&#10;  Q 577.57 437.61 578.34 436.11&#10;  C 580.86 431.21 582.66 426.85 585.90 423.13&#10;  C 589.62 418.88 596.44 414.10 602.33 414.08&#10;  Q 604.14 414.07 606.96 414.21&#10;  A 1.31 1.30 -77.4 0 0 608.24 413.39&#10;  C 611.37 405.70 614.35 398.47 618.84 392.36&#10;  Q 619.70 391.19 622.03 390.24&#10;  A 1.43 1.41 42.2 0 1 623.01 390.20&#10;  Q 625.12 390.86 625.93 392.33&#10;  Q 628.57 397.15 629.46 403.54&#10;  Q 630.75 412.80 631.52 420.52&#10;  A 3.95 3.94 -76.4 0 0 633.29 423.43&#10;  C 639.38 427.39 641.20 441.45 640.97 447.50&#10;  Q 640.58 457.98 641.71 465.80&#10;  Q 642.48 471.16 646.50 476.09&#10;  Q 647.98 477.90 663.34 495.78&#10;  A 1.39 1.39 0.0 0 0 665.58 495.60&#10;  Q 669.01 489.98 672.05 483.29&#10;  C 688.30 447.61 695.24 408.37 691.69 369.57&#10;  Q 685.86 305.98 643.32 255.40&#10;  Q 621.88 229.91 592.81 213.93&#10;  Q 591.76 213.35 590.69 212.46&#10;  A 0.51 0.51 0.0 0 1 590.78 211.62&#10;  Q 594.87 209.53 599.78 209.87&#10;  Q 629.16 211.90 655.64 224.08&#10;  Q 682.23 236.32 705.28 258.83&#10;  Q 739.26 292.00 756.44 337.61&#10;  C 769.35 371.88 772.29 410.55 767.12 446.74&#10;  Q 766.41 451.67 765.08 459.74&#10;  Q 763.77 467.64 762.47 472.65&#10;  Q 749.02 524.66 717.11 564.62&#10;  Q 687.07 602.24 644.04 626.40&#10;  Q 613.87 643.35 581.70 650.35&#10;  Q 548.59 657.56 515.07 655.63&#10;  Q 474.16 653.27 435.00 638.69&#10;  Q 410.98 629.75 389.50 615.68&#10;  Z"/>
<path fill="#1e1d22" d="&#10;  M 411.14 214.58&#10;  Q 472.23 214.74 533.00 214.49&#10;  Q 536.94 214.48 537.98 217.75&#10;  Q 538.60 219.72 536.89 224.02&#10;  C 532.75 234.42 528.34 244.05 523.81 255.84&#10;  Q 520.63 264.12 517.64 267.56&#10;  Q 509.72 276.67 496.51 276.58&#10;  Q 477.08 276.44 457.73 276.55&#10;  Q 390.31 276.53 322.74 276.67&#10;  A 2.42 2.40 85.7 0 1 320.35 274.59&#10;  Q 320.20 273.60 320.92 271.94&#10;  Q 322.90 267.38 329.15 252.39&#10;  C 336.95 233.67 352.99 220.22 372.68 215.73&#10;  Q 377.95 214.53 387.99 214.57&#10;  Q 399.65 214.62 411.14 214.58&#10;  Z"/>
<path fill="#fc00e6" d="&#10;  M 507.31 350.51&#10;  L 512.19 361.28&#10;  A 0.05 0.05 0.0 0 1 512.16 361.35&#10;  L 511.93 361.46&#10;  A 0.28 0.27 64.8 0 1 511.56 361.32&#10;  Q 507.72 352.59 501.21 345.78&#10;  A 0.85 0.85 0.0 0 0 500.42 345.54&#10;  Q 493.06 347.07 488.93 353.40&#10;  A 0.86 0.85 -43.6 0 0 488.90 354.31&#10;  Q 491.96 359.53 495.51 365.73&#10;  Q 498.69 371.30 501.12 380.05&#10;  Q 502.55 385.17 501.95 389.37&#10;  Q 498.19 368.33 485.65 353.63&#10;  Q 473.84 339.79 455.22 335.23&#10;  Q 449.01 333.70 435.05 333.75&#10;  Q 394.87 333.90 301.77 333.81&#10;  Q 298.20 333.81 296.54 337.80&#10;  Q 287.00 360.67 273.43 392.66&#10;  C 272.64 394.54 274.16 396.44 276.19 396.31&#10;  Q 277.24 396.24 277.31 396.24&#10;  Q 340.91 396.29 404.50 396.04&#10;  Q 415.18 396.00 422.25 403.12&#10;  Q 423.64 406.35 425.59 408.91&#10;  A 2.65 2.56 -77.6 0 1 425.91 409.43&#10;  Q 428.06 413.99 428.25 418.97&#10;  Q 428.36 421.82 427.37 424.32&#10;  A 3.46 3.28 59.4 0 0 427.15 425.28&#10;  C 426.87 428.58 425.11 431.92 424.16 434.97&#10;  A 5.30 5.12 -23.5 0 1 423.80 435.84&#10;  Q 422.15 438.91 421.73 442.51&#10;  Q 417.96 452.60 414.83 459.31&#10;  Q 412.26 464.82 408.17 469.22&#10;  Q 400.95 477.00 391.53 479.23&#10;  Q 388.00 480.07 371.99 480.09&#10;  Q 298.85 480.20 263.57 479.89&#10;  C 254.95 479.81 248.32 481.29 242.26 487.57&#10;  Q 239.34 490.60 236.44 497.77&#10;  Q 230.96 511.34 222.55 531.30&#10;  C 221.23 534.41 218.08 540.18 224.27 540.24&#10;  C 226.62 541.79 229.45 543.09 229.64 546.31&#10;  C 230.00 552.41 229.80 556.79 223.23 559.31&#10;  C 214.07 559.47 205.43 559.90 199.50 551.55&#10;  Q 195.31 545.66 198.46 538.51&#10;  Q 211.16 509.64 214.35 501.36&#10;  Q 217.44 493.35 219.10 489.33&#10;  C 224.40 476.57 234.30 466.18 247.85 462.77&#10;  Q 253.25 461.41 263.79 461.47&#10;  C 305.94 461.68 344.19 461.08 385.25 461.71&#10;  Q 385.77 461.72 388.21 461.09&#10;  A 4.05 4.03 -69.6 0 0 389.47 460.51&#10;  Q 394.94 456.69 396.76 452.31&#10;  Q 404.89 432.84 408.25 423.98&#10;  C 409.93 419.54 407.58 415.27 402.49 415.30&#10;  Q 375.42 415.48 257.49 415.48&#10;  Q 248.01 415.49 247.61 405.80&#10;  Q 247.51 403.45 249.23 399.56&#10;  Q 260.15 375.00 282.25 321.53&#10;  Q 283.86 317.61 287.14 315.79&#10;  Q 289.53 314.47 294.58 314.48&#10;  Q 375.48 314.73 435.21 314.46&#10;  Q 447.94 314.40 455.22 315.80&#10;  Q 480.74 320.74 499.03 340.21&#10;  Q 502.23 343.62 507.31 350.51&#10;  Z"/>
<path fill="#fd16a0" d="&#10;  M 507.31 350.51&#10;  Q 519.76 370.31 521.45 393.44&#10;  Q 521.93 399.98 521.42 406.01&#10;  C 520.75 413.96 520.11 422.05 516.77 428.93&#10;  A 4.45 4.44 -80.5 0 1 513.30 431.41&#10;  Q 507.67 432.07 501.20 430.41&#10;  A 1.54 1.52 79.2 0 1 500.36 429.83&#10;  Q 499.23 428.26 499.57 426.00&#10;  Q 500.05 422.81 501.51 415.54&#10;  Q 504.14 402.38 501.95 389.37&#10;  Q 502.55 385.17 501.12 380.05&#10;  Q 498.69 371.30 495.51 365.73&#10;  Q 491.96 359.53 488.90 354.31&#10;  A 0.86 0.85 -43.6 0 1 488.93 353.40&#10;  Q 493.06 347.07 500.42 345.54&#10;  A 0.85 0.85 0.0 0 1 501.21 345.78&#10;  Q 507.72 352.59 511.56 361.32&#10;  A 0.28 0.27 64.8 0 0 511.93 361.46&#10;  L 512.16 361.35&#10;  A 0.05 0.05 0.0 0 0 512.19 361.28&#10;  L 507.31 350.51&#10;  Z"/>
<path fill="#0bb8d4" d="&#10;  M 138.93 392.62&#10;  A 0.76 0.76 0.0 0 0 138.51 393.30&#10;  Q 138.45 409.71 138.40 425.50&#10;  Q 138.40 427.59 139.64 428.85&#10;  Q 163.48 452.99 184.65 474.16&#10;  A 3.46 3.46 0.0 0 1 184.76 478.94&#10;  L 184.67 479.04&#10;  A 3.16 3.16 0.0 0 1 180.11 479.16&#10;  Q 163.54 462.74 133.86 432.64&#10;  C 132.12 430.87 131.66 429.20 131.66 426.59&#10;  Q 131.73 406.27 131.62 394.76&#10;  A 2.37 2.37 0.0 0 0 130.26 392.65&#10;  C 122.59 389.10 118.77 382.90 121.45 374.44&#10;  Q 123.27 368.68 129.46 366.21&#10;  C 142.50 360.99 154.30 377.02 145.04 387.87&#10;  Q 142.51 390.84 138.93 392.62&#10;  Z&#10;  M 141.43 379.22&#10;  A 7.01 7.01 0.0 0 0 134.42 372.21&#10;  A 7.01 7.01 0.0 0 0 127.41 379.22&#10;  A 7.01 7.01 0.0 0 0 134.42 386.23&#10;  A 7.01 7.01 0.0 0 0 141.43 379.22&#10;  Z"/>
<circle fill="#1e1d22" cx="134.42" cy="379.22" r="7.01"/>
<path fill="#fd16a0" d="&#10;  M 421.73 442.51&#10;  Q 422.15 438.91 423.80 435.84&#10;  A 5.30 5.12 -23.5 0 0 424.16 434.97&#10;  C 425.11 431.92 426.87 428.58 427.15 425.28&#10;  A 3.46 3.28 59.4 0 1 427.37 424.32&#10;  Q 428.36 421.82 428.25 418.97&#10;  Q 428.06 413.99 425.91 409.43&#10;  A 2.65 2.56 -77.6 0 0 425.59 408.91&#10;  Q 423.64 406.35 422.25 403.12&#10;  Q 430.04 411.41 428.55 422.26&#10;  Q 427.23 431.83 421.73 442.51&#10;  Z"/>
<path fill="#fd16a0" d="&#10;  M 483.93 424.03&#10;  A 1.29 1.28 51.3 0 1 485.72 424.23&#10;  C 488.52 427.68 489.38 436.24 489.55 440.72&#10;  Q 489.63 442.80 490.87 444.11&#10;  A 1.93 1.87 76.8 0 0 491.65 444.61&#10;  C 500.03 447.40 506.42 450.39 509.82 459.19&#10;  Q 511.61 463.80 513.96 470.33&#10;  A 4.28 4.26 -2.1 0 0 516.84 472.99&#10;  C 518.80 473.53 522.80 474.88 523.02 477.60&#10;  Q 523.20 479.83 522.24 481.78&#10;  C 519.15 488.11 514.35 492.50 507.63 494.76&#10;  Q 505.17 495.59 500.07 497.12&#10;  A 2.97 2.96 87.8 0 0 498.02 499.34&#10;  C 496.60 506.07 500.10 512.83 501.16 517.01&#10;  Q 502.49 522.24 502.20 530.26&#10;  Q 501.66 545.32 494.92 558.66&#10;  C 490.68 567.05 487.82 573.86 488.60 583.44&#10;  C 488.98 587.99 490.82 592.91 491.80 597.26&#10;  Q 493.07 602.88 488.09 605.05&#10;  Q 483.46 607.07 478.24 607.27&#10;  C 455.87 608.14 431.37 606.70 411.47 596.01&#10;  C 395.43 587.41 401.34 568.41 404.80 554.78&#10;  C 409.53 536.12 422.33 519.70 437.40 507.86&#10;  Q 441.60 504.55 448.30 500.41&#10;  C 457.78 494.57 458.98 488.32 459.08 477.74&#10;  C 459.20 464.21 463.27 451.27 470.47 439.70&#10;  C 474.59 433.09 478.30 428.49 483.93 424.03&#10;  Z"/>
<path fill="#0bb8d4" d="&#10;  M 86.34 461.81&#10;  Q 85.97 462.34 84.36 465.09&#10;  C 81.93 469.22 76.00 471.83 71.13 471.10&#10;  C 64.63 470.12 59.65 464.44 59.45 457.89&#10;  C 59.12 447.32 69.49 439.92 79.13 444.70&#10;  Q 83.93 447.08 86.53 453.01&#10;  A 1.47 1.47 0.0 0 0 87.83 453.89&#10;  Q 95.42 454.14 123.79 453.82&#10;  Q 128.44 453.77 131.03 456.43&#10;  Q 149.10 475.03 178.16 503.95&#10;  A 3.54 3.53 43.9 0 1 178.26 508.86&#10;  L 178.16 508.97&#10;  A 3.25 3.25 0.0 0 1 173.46 509.05&#10;  Q 146.88 482.24 127.89 463.18&#10;  Q 125.56 460.84 122.31 460.85&#10;  Q 97.01 460.93 87.99 460.95&#10;  A 2.01 2.01 0.0 0 0 86.34 461.81&#10;  Z&#10;  M 80.07 457.19&#10;  A 6.96 6.96 0.0 0 0 73.11 450.23&#10;  A 6.96 6.96 0.0 0 0 66.15 457.19&#10;  A 6.96 6.96 0.0 0 0 73.11 464.15&#10;  A 6.96 6.96 0.0 0 0 80.07 457.19&#10;  Z"/>
<circle fill="#1e1d22" cx="73.11" cy="457.19" r="6.96"/>
<path fill="#fa600c" d="&#10;  M 746.80 588.95&#10;  L 673.28 662.47&#10;  A 4.59 4.56 -22.7 0 0 671.95 665.69&#10;  L 671.95 685.94&#10;  A 3.01 3.01 0.0 0 1 668.94 688.95&#10;  L 667.89 688.95&#10;  A 2.89 2.89 0.0 0 1 665.00 686.06&#10;  L 665.00 663.06&#10;  A 4.28 4.27 -22.6 0 1 666.24 660.05&#10;  Q 677.16 649.07 743.11 583.10&#10;  Q 744.91 581.30 746.76 581.30&#10;  Q 760.87 581.32 776.79 581.34&#10;  A 4.18 4.16 -67.0 0 0 779.74 580.14&#10;  Q 804.81 555.51 823.14 536.89&#10;  Q 824.90 535.10 824.89 532.93&#10;  Q 824.86 513.62 825.03 493.82&#10;  A 1.83 1.83 0.0 0 0 824.06 492.19&#10;  C 822.62 491.41 820.01 490.17 818.68 488.84&#10;  Q 812.31 482.44 815.63 473.62&#10;  C 817.59 468.40 823.42 464.62 828.95 465.18&#10;  C 843.77 466.67 847.44 485.39 833.82 491.97&#10;  Q 831.86 492.92 831.90 496.01&#10;  Q 831.97 500.59 832.02 533.51&#10;  Q 832.02 537.73 829.64 540.10&#10;  Q 796.11 573.42 782.80 586.79&#10;  Q 781.09 588.51 778.51 588.49&#10;  Q 771.37 588.44 748.06 588.43&#10;  A 1.79 1.77 22.3 0 0 746.80 588.95&#10;  Z&#10;  M 833.8148 483.3677&#10;  A 6.36 6.36 0.0 0 0 833.5479 474.3773&#10;  L 832.6164 473.4994&#10;  A 6.36 6.36 0.0 0 0 823.6259 473.7663&#10;  L 822.8852 474.5523&#10;  A 6.36 6.36 0.0 0 0 823.1521 483.5427&#10;  L 824.0836 484.4206&#10;  A 6.36 6.36 0.0 0 0 833.0741 484.1537&#10;  L 833.8148 483.3677&#10;  Z"/>
<rect fill="#1e1d22" x="-7.00" y="-6.90" transform="translate(828.35,478.96) rotate(43.3)" width="14.00" height="13.80" rx="6.36"/>
<path fill="#0bb8d4" d="&#10;  M 174.25 586.88&#10;  A 2.09 2.09 0.0 0 0 176.35 588.97&#10;  Q 196.44 588.84 215.74 589.11&#10;  Q 217.74 589.14 220.38 591.81&#10;  Q 232.66 604.22 252.03 623.69&#10;  Q 253.39 625.06 255.41 625.06&#10;  Q 268.27 625.08 329.01 625.02&#10;  C 330.53 625.01 332.61 626.60 333.91 627.90&#10;  Q 335.03 629.02 358.68 652.71&#10;  A 2.18 2.16 -22.5 0 0 360.20 653.33&#10;  L 395.07 653.33&#10;  A 3.25 3.25 0.0 0 1 398.32 656.60&#10;  L 398.31 656.87&#10;  A 3.29 3.29 0.0 0 1 395.05 660.29&#10;  Q 394.69 660.29 358.79 660.24&#10;  Q 356.49 660.24 354.48 658.27&#10;  Q 349.91 653.80 329.50 633.24&#10;  A 4.06 4.06 0.0 0 0 326.62 632.04&#10;  Q 264.51 632.08 253.50 632.02&#10;  C 251.29 632.01 249.82 631.07 248.17 629.41&#10;  Q 229.60 610.72 217.88 598.84&#10;  Q 214.95 595.87 211.77 595.86&#10;  Q 187.94 595.79 178.33 595.94&#10;  C 170.15 596.08 167.34 593.13 167.38 585.44&#10;  Q 167.49 561.75 167.36 531.62&#10;  A 3.74 3.69 22.9 0 0 166.28 529.01&#10;  L 140.43 503.05&#10;  A 3.02 3.02 0.0 0 1 140.62 498.61&#10;  L 140.77 498.49&#10;  A 3.53 3.52 47.0 0 1 145.60 498.66&#10;  Q 159.23 512.41 171.96 525.27&#10;  Q 174.27 527.61 174.27 531.50&#10;  Q 174.26 561.78 174.25 586.88&#10;  Z"/>
<path fill="#fa600c" d="&#10;  M 890.97 548.32&#10;  A 1.51 1.51 0.0 0 0 889.03 548.48&#10;  L 803.23 634.28&#10;  A 2.26 2.24 -67.4 0 1 801.64 634.94&#10;  L 735.28 634.94&#10;  A 2.99 2.98 -87.5 0 1 732.30 631.68&#10;  L 732.35 631.17&#10;  A 3.33 3.33 0.0 0 1 735.77 628.04&#10;  Q 737.28 628.08 798.76 628.02&#10;  C 800.36 628.02 801.51 626.73 802.66 625.57&#10;  Q 862.96 564.88 883.15 544.90&#10;  Q 884.95 543.12 885.45 542.00&#10;  A 1.31 1.29 50.1 0 0 885.52 541.13&#10;  Q 883.40 532.99 888.24 527.92&#10;  Q 893.40 522.52 900.20 523.46&#10;  C 911.64 525.05 916.30 538.43 908.10 546.92&#10;  C 903.58 551.60 896.20 552.02 890.97 548.32&#10;  Z&#10;  M 905.42 537.06&#10;  A 6.89 6.89 0.0 0 0 898.53 530.17&#10;  A 6.89 6.89 0.0 0 0 891.64 537.06&#10;  A 6.89 6.89 0.0 0 0 898.53 543.95&#10;  A 6.89 6.89 0.0 0 0 905.42 537.06&#10;  Z"/>
<circle fill="#1e1d22" cx="898.53" cy="537.06" r="6.89"/>
<path fill="#fc00e6" d="&#10;  M 359.79 572.02&#10;  Q 353.83 576.05 353.57 583.94&#10;  C 345.81 573.82 341.30 561.91 344.48 549.93&#10;  C 347.42 538.87 358.97 529.42 370.85 531.41&#10;  C 379.78 532.90 387.37 539.57 388.40 548.85&#10;  C 389.07 555.01 383.77 563.08 376.73 561.47&#10;  C 374.00 560.85 373.53 557.21 374.65 555.36&#10;  C 376.86 551.74 378.05 549.36 375.12 545.91&#10;  Q 371.45 541.59 365.39 543.18&#10;  C 357.63 545.23 354.00 554.80 355.71 562.28&#10;  Q 356.79 566.97 359.79 572.02&#10;  Z"/>
<path fill="#fc00e6" d="&#10;  M 223.23 559.31&#10;  C 229.80 556.79 230.00 552.41 229.64 546.31&#10;  C 229.45 543.09 226.62 541.79 224.27 540.24&#10;  Q 272.72 540.06 321.12 540.13&#10;  C 325.92 540.13 328.88 539.65 330.90 543.68&#10;  A 2.64 2.52 31.8 0 1 331.15 544.64&#10;  C 331.30 547.68 331.72 552.44 330.16 555.32&#10;  Q 328.01 559.30 322.00 559.29&#10;  Q 272.69 559.28 223.23 559.31&#10;  Z"/>
<path fill="#fd16a0" d="&#10;  M 399.50 600.50&#10;  L 406.09 603.49&#10;  A 0.20 0.20 0.0 0 1 406.14 603.82&#10;  Q 405.83 604.08 405.45 603.65&#10;  A 0.63 0.62 -26.0 0 0 404.88 603.46&#10;  Q 402.62 603.88 397.94 606.43&#10;  Q 391.74 609.81 389.50 615.68&#10;  Q 375.69 606.55 371.75 602.75&#10;  Q 369.78 600.84 364.06 595.70&#10;  Q 358.51 590.71 353.57 583.94&#10;  Q 353.83 576.05 359.79 572.02&#10;  Q 364.75 579.73 370.65 584.34&#10;  Q 382.94 593.94 399.50 600.50&#10;  Z"/>
<path fill="#0bb8d4" d="&#10;  M 126.03 642.66&#10;  A 1.27 1.27 0.0 0 1 127.30 641.39&#10;  L 273.56 641.39&#10;  A 3.01 2.65 0.0 0 1 276.57 644.04&#10;  L 276.57 645.68&#10;  A 3.01 2.65 0.0 0 1 273.56 648.33&#10;  L 127.30 648.33&#10;  A 1.27 1.27 0.0 0 1 126.03 647.06&#10;  L 126.03 642.66&#10;  Z"/>
</svg>