<?xml version="1.0" encoding="UTF-8"?>
<!DOCTYPE svg PUBLIC "-//W3C//DTD SVG 1.1//EN" "http://www.w3.org/Graphics/SVG/1.1/DTD/svg11.dtd">
<svg xmlns="http://www.w3.org/2000/svg" version="1.1" width="1024px" height="1024px" style="shape-rendering:geometricPrecision; text-rendering:geometricPrecision; image-rendering:optimizeQuality; fill-rule:evenodd; clip-rule:evenodd" xmlns:xlink="http://www.w3.org/1999/xlink">
<g><path style="opacity:1" fill="#0a0e19" d="M -0.5,-0.5 C 340.833,-0.5 682.167,-0.5 1023.5,-0.5C 1023.5,340.833 1023.5,682.167 1023.5,1023.5C 682.167,1023.5 340.833,1023.5 -0.5,1023.5C -0.5,682.167 -0.5,340.833 -0.5,-0.5 Z"/></g>
<g><path style="opacity:1" fill="#7644fc" d="M 672.5,323.5 C 674.947,325.245 677.28,327.245 679.5,329.5C 678.469,331.382 677.635,333.382 677,335.5C 676.667,335.167 676.333,334.833 676,334.5C 674.933,335.191 673.766,335.691 672.5,336C 672.463,338.715 670.797,340.382 667.5,341C 668.167,341.333 668.833,341.667 669.5,342C 668.069,342.465 666.903,343.299 666,344.5C 664.434,343.939 663.101,344.606 662,346.5C 661.275,344.842 660.108,344.342 658.5,345C 660.709,345.957 660.543,347.124 658,348.5C 656.951,347.483 655.784,347.316 654.5,348C 656.066,348.608 657.4,349.442 658.5,350.5C 654.185,350.043 649.851,349.709 645.5,349.5C 636.506,350.314 627.506,350.981 618.5,351.5C 613.821,351.666 609.155,351.499 604.5,351C 605,350.5 605.5,350 606,349.5C 608.064,350.591 610.231,350.758 612.5,350C 611.24,348.887 610.073,348.72 609,349.5C 608.5,348.5 608,347.5 607.5,346.5C 608.167,346.167 608.833,345.833 609.5,345.5C 608.975,344.808 608.308,344.308 607.5,344C 612.231,342.937 615.398,340.103 617,335.5C 617.333,336.167 617.667,336.833 618,337.5C 619.385,336.449 620.385,335.116 621,333.5C 621.667,334.167 622.333,334.833 623,335.5C 624.616,332.395 625.95,329.395 627,326.5C 627.333,327.5 627.667,328.5 628,329.5C 628.667,327.5 630,326.167 632,325.5C 632.563,324.275 632.23,323.275 631,322.5C 624.853,323.221 618.353,323.721 611.5,324C 607.776,324.797 604.11,325.797 600.5,327C 601.167,327.667 601.833,328.333 602.5,329C 602.067,333.712 600.734,333.545 598.5,328.5C 598.709,327.914 599.043,327.414 599.5,327C 597.236,326.764 595.069,326.264 593,325.5C 590.699,326.867 588.199,327.534 585.5,327.5C 585.843,329.483 585.176,330.817 583.5,331.5C 583.5,330.167 583.5,328.833 583.5,327.5C 581.5,327.167 579.5,326.833 577.5,326.5C 604.526,322.033 631.86,319.867 659.5,320C 663.947,320.873 668.28,322.04 672.5,323.5 Z"/></g>
<g><path style="opacity:1" fill="#8f36f3" d="M 577.5,326.5 C 579.5,326.833 581.5,327.167 583.5,327.5C 583.5,328.833 583.5,330.167 583.5,331.5C 583.279,334.097 582.779,334.097 582,331.5C 580.837,333.285 580.17,335.285 580,337.5C 579.667,337.167 579.333,336.833 579,336.5C 576.332,337.98 576.165,339.48 578.5,341C 575.456,341.359 575.122,342.026 577.5,343C 576.929,344.205 576.262,345.372 575.5,346.5C 573.322,347.762 570.988,349.596 568.5,352C 572.361,352.569 572.361,353.402 568.5,354.5C 568.833,354.833 569.167,355.167 569.5,355.5C 572.034,354.212 574.534,354.212 577,355.5C 577.5,355 578,354.5 578.5,354C 582.039,353.718 585.539,353.218 589,352.5C 596.128,353.143 603.295,353.143 610.5,352.5C 593.039,355.07 575.372,357.07 557.5,358.5C 552.615,358.248 547.781,358.581 543,359.5C 541.5,359 540,358.5 538.5,358C 539.308,357.692 539.975,357.192 540.5,356.5C 539.397,356.002 538.397,355.669 537.5,355.5C 538.803,353.623 540.303,351.957 542,350.5C 541.782,352.587 541.949,354.587 542.5,356.5C 544.496,353.84 544.496,351.007 542.5,348C 543.253,346.513 544.086,346.346 545,347.5C 544.852,346.175 545.018,345.008 545.5,344C 549.852,343.581 550.185,342.914 546.5,342C 550.145,341.856 552.479,340.023 553.5,336.5C 555.274,335.813 556.941,334.98 558.5,334C 557.332,332.594 557.665,331.428 559.5,330.5C 561.975,330.036 563.975,329.036 565.5,327.5C 569.434,326.64 573.434,326.307 577.5,326.5 Z"/></g>
<g><path style="opacity:1" fill="#823bf9" d="M 618.5,351.5 C 616.052,352.473 613.385,352.806 610.5,352.5C 603.295,353.143 596.128,353.143 589,352.5C 585.539,353.218 582.039,353.718 578.5,354C 578,354.5 577.5,355 577,355.5C 574.534,354.212 572.034,354.212 569.5,355.5C 569.167,355.167 568.833,354.833 568.5,354.5C 572.361,353.402 572.361,352.569 568.5,352C 570.988,349.596 573.322,347.762 575.5,346.5C 576.262,345.372 576.929,344.205 577.5,343C 575.122,342.026 575.456,341.359 578.5,341C 576.165,339.48 576.332,337.98 579,336.5C 579.333,336.833 579.667,337.167 580,337.5C 580.17,335.285 580.837,333.285 582,331.5C 582.779,334.097 583.279,334.097 583.5,331.5C 585.176,330.817 585.843,329.483 585.5,327.5C 588.199,327.534 590.699,326.867 593,325.5C 595.069,326.264 597.236,326.764 599.5,327C 599.043,327.414 598.709,327.914 598.5,328.5C 600.734,333.545 602.067,333.712 602.5,329C 601.833,328.333 601.167,327.667 600.5,327C 604.11,325.797 607.776,324.797 611.5,324C 618.353,323.721 624.853,323.221 631,322.5C 632.23,323.275 632.563,324.275 632,325.5C 630,326.167 628.667,327.5 628,329.5C 627.667,328.5 627.333,327.5 627,326.5C 625.95,329.395 624.616,332.395 623,335.5C 622.333,334.833 621.667,334.167 621,333.5C 620.385,335.116 619.385,336.449 618,337.5C 617.667,336.833 617.333,336.167 617,335.5C 615.398,340.103 612.231,342.937 607.5,344C 608.308,344.308 608.975,344.808 609.5,345.5C 608.833,345.833 608.167,346.167 607.5,346.5C 608,347.5 608.5,348.5 609,349.5C 610.073,348.72 611.24,348.887 612.5,350C 610.231,350.758 608.064,350.591 606,349.5C 605.5,350 605,350.5 604.5,351C 609.155,351.499 613.821,351.666 618.5,351.5 Z"/></g>
<g><path style="opacity:1" fill="#b125eb" d="M 548.5,329.5 C 551.187,329.336 553.854,329.503 556.5,330C 544.364,330.788 532.364,332.455 520.5,335C 519.324,338.079 517.324,339.245 514.5,338.5C 513.749,339.376 513.249,340.376 513,341.5C 512.667,341.167 512.333,340.833 512,340.5C 511.801,342.402 510.967,343.902 509.5,345C 509.957,345.414 510.291,345.914 510.5,346.5C 509.478,347.354 508.645,348.354 508,349.5C 507.667,348.5 507.333,347.5 507,346.5C 506,347.833 505,349.167 504,350.5C 503.667,350.167 503.333,349.833 503,349.5C 501.351,350.648 499.851,351.981 498.5,353.5C 497.289,354.72 497.289,355.887 498.5,357C 497.285,359.096 496.451,358.929 496,356.5C 495.691,357.766 495.191,358.933 494.5,360C 494.833,360.333 495.167,360.667 495.5,361C 493.62,360.49 491.787,360.657 490,361.5C 489.833,361.833 489.667,362.167 489.5,362.5C 492.333,362.833 495.167,363.167 498,363.5C 504.012,362.757 509.845,362.757 515.5,363.5C 499.84,365.233 484.174,366.899 468.5,368.5C 465.695,367.681 462.695,367.181 459.5,367C 461.833,366.667 464.167,366.333 466.5,366C 465.5,365.667 464.5,365.333 463.5,365C 466.319,364.932 468.486,363.766 470,361.5C 470.333,361.833 470.667,362.167 471,362.5C 471.456,361.256 470.956,360.423 469.5,360C 471.99,359.505 473.49,358.005 474,355.5C 474.333,355.833 474.667,356.167 475,356.5C 476.713,355.122 478.047,353.455 479,351.5C 479.333,351.833 479.667,352.167 480,352.5C 480.5,351.333 481.333,350.5 482.5,350C 481.833,349.667 481.167,349.333 480.5,349C 481.551,347.615 482.884,346.615 484.5,346C 483.346,345.086 483.513,344.253 485,343.5C 485.333,343.833 485.667,344.167 486,344.5C 485.825,342.143 485.658,339.977 485.5,338C 488.051,337.998 490.051,337.164 491.5,335.5C 510.477,333.302 529.477,331.302 548.5,329.5 Z"/></g>
<g><path style="opacity:1" fill="#9f2cef" d="M 565.5,327.5 C 563.975,329.036 561.975,330.036 559.5,330.5C 557.665,331.428 557.332,332.594 558.5,334C 556.941,334.98 555.274,335.813 553.5,336.5C 552.479,340.023 550.145,341.856 546.5,342C 550.185,342.914 549.852,343.581 545.5,344C 545.018,345.008 544.852,346.175 545,347.5C 544.086,346.346 543.253,346.513 542.5,348C 544.496,351.007 544.496,353.84 542.5,356.5C 541.949,354.587 541.782,352.587 542,350.5C 540.303,351.957 538.803,353.623 537.5,355.5C 538.397,355.669 539.397,356.002 540.5,356.5C 539.975,357.192 539.308,357.692 538.5,358C 540,358.5 541.5,359 543,359.5C 547.781,358.581 552.615,358.248 557.5,358.5C 543.671,360.445 529.671,362.112 515.5,363.5C 509.845,362.757 504.012,362.757 498,363.5C 495.167,363.167 492.333,362.833 489.5,362.5C 489.667,362.167 489.833,361.833 490,361.5C 491.787,360.657 493.62,360.49 495.5,361C 495.167,360.667 494.833,360.333 494.5,360C 495.191,358.933 495.691,357.766 496,356.5C 496.451,358.929 497.285,359.096 498.5,357C 497.289,355.887 497.289,354.72 498.5,353.5C 499.851,351.981 501.351,350.648 503,349.5C 503.333,349.833 503.667,350.167 504,350.5C 505,349.167 506,347.833 507,346.5C 507.333,347.5 507.667,348.5 508,349.5C 508.645,348.354 509.478,347.354 510.5,346.5C 510.291,345.914 509.957,345.414 509.5,345C 510.967,343.902 511.801,342.402 512,340.5C 512.333,340.833 512.667,341.167 513,341.5C 513.249,340.376 513.749,339.376 514.5,338.5C 517.324,339.245 519.324,338.079 520.5,335C 532.364,332.455 544.364,330.788 556.5,330C 553.854,329.503 551.187,329.336 548.5,329.5C 553.984,328.482 559.651,327.816 565.5,327.5 Z"/></g>
<g><path style="opacity:1" fill="#0c0f1a" d="M 658.5,350.5 C 670.344,353.746 679.678,360.413 686.5,370.5C 689.027,374.221 691.027,378.221 692.5,382.5C 692.5,383.167 692.5,383.833 692.5,384.5C 691.818,451.3 691.318,518.3 691,585.5C 690.667,587.833 690.333,590.167 690,592.5C 689.346,591.304 688.846,591.304 688.5,592.5C 690.739,595.894 690.739,599.394 688.5,603C 690.487,605.47 690.987,608.303 690,611.5C 689.282,610.549 688.449,610.383 687.5,611C 688.781,612.409 689.781,613.909 690.5,615.5C 688.345,621.143 685.678,626.477 682.5,631.5C 679.5,633.833 676.833,636.5 674.5,639.5C 664.106,646.963 652.44,650.63 639.5,650.5C 633.173,649.985 626.84,649.652 620.5,649.5C 609.682,648.35 598.682,647.684 587.5,647.5C 571.169,646.591 554.835,645.591 538.5,644.5C 532.155,644.347 525.822,644.014 519.5,643.5C 504.812,642.795 490.145,641.795 475.5,640.5C 470.833,640.5 466.167,640.5 461.5,640.5C 440.891,639.131 420.224,637.797 399.5,636.5C 386.411,636.229 373.411,635.063 360.5,633C 353.56,630.531 347.226,627.031 341.5,622.5C 330.636,611.091 324.969,597.424 324.5,581.5C 324.5,528.167 324.5,474.833 324.5,421.5C 328.457,398.709 341.79,384.876 364.5,380C 377.469,378.17 390.469,376.67 403.5,375.5C 425.16,373.101 446.826,370.767 468.5,368.5C 484.174,366.899 499.84,365.233 515.5,363.5C 529.671,362.112 543.671,360.445 557.5,358.5C 575.372,357.07 593.039,355.07 610.5,352.5C 613.385,352.806 616.052,352.473 618.5,351.5C 627.506,350.981 636.506,350.314 645.5,349.5C 649.851,349.709 654.185,350.043 658.5,350.5 Z"/></g>
<g><path style="opacity:1" fill="#f900e2" d="M 370.5,348.5 C 371.661,350.447 373.328,351.28 375.5,351C 375.167,350.667 374.833,350.333 374.5,350C 377.303,349.245 379.97,349.578 382.5,351C 379.577,351.207 377.744,352.707 377,355.5C 376.333,354.833 375.667,354.167 375,353.5C 372.729,355.259 371.729,357.259 372,359.5C 371.586,359.043 371.086,358.709 370.5,358.5C 369.757,359.908 368.923,361.241 368,362.5C 367.667,361.833 367.333,361.167 367,360.5C 366.355,361.646 365.522,362.646 364.5,363.5C 364.709,364.086 365.043,364.586 365.5,365C 363.194,366.639 361.194,368.639 359.5,371C 359.833,371.333 360.167,371.667 360.5,372C 357.274,372.872 354.774,374.705 353,377.5C 351.913,375.068 351.413,375.402 351.5,378.5C 349.567,378.729 347.9,379.562 346.5,381C 350.449,381.807 350.449,382.307 346.5,382.5C 346.824,385.68 345.49,386.847 342.5,386C 345.028,385.002 345.028,384.169 342.5,383.5C 340.964,384.249 339.631,385.249 338.5,386.5C 337.105,385.185 336.105,385.519 335.5,387.5C 336.83,390.849 336.33,391.182 334,388.5C 331.76,392.802 328.594,395.302 324.5,396C 324.833,396.333 325.167,396.667 325.5,397C 323.947,400.089 321.78,402.589 319,404.5C 317.989,404.108 317.489,403.441 317.5,402.5C 315.997,403.59 315.664,404.757 316.5,406C 315.5,406.333 314.5,406.667 313.5,407C 314.061,408.566 313.394,409.899 311.5,411C 310.451,411.492 309.451,411.326 308.5,410.5C 307.358,412.378 306.358,414.212 305.5,416C 303.575,417.595 301.575,417.762 299.5,416.5C 298.912,418.911 297.745,420.911 296,422.5C 295.51,421.207 295.343,419.873 295.5,418.5C 299.997,382.831 319.663,360.331 354.5,351C 359.773,349.712 365.106,348.878 370.5,348.5 Z"/></g>
<g><path style="opacity:1" fill="#5c50fe" d="M 672.5,323.5 C 682.839,327.198 691.839,332.865 699.5,340.5C 702.406,345.578 705.906,350.244 710,354.5C 711.789,357.741 713.289,361.074 714.5,364.5C 711.218,364.136 707.884,364.636 704.5,366C 703.897,367.825 703.23,369.659 702.5,371.5C 701.522,371.023 700.689,370.357 700,369.5C 699.667,370.5 699.333,371.5 699,372.5C 696.76,369.833 695.26,370.333 694.5,374C 695.406,375.699 695.739,377.533 695.5,379.5C 691.375,379.277 690.709,377.777 693.5,375C 691.568,372.858 689.235,371.358 686.5,370.5C 679.678,360.413 670.344,353.746 658.5,350.5C 657.4,349.442 656.066,348.608 654.5,348C 655.784,347.316 656.951,347.483 658,348.5C 660.543,347.124 660.709,345.957 658.5,345C 660.108,344.342 661.275,344.842 662,346.5C 663.101,344.606 664.434,343.939 666,344.5C 666.903,343.299 668.069,342.465 669.5,342C 668.833,341.667 668.167,341.333 667.5,341C 670.797,340.382 672.463,338.715 672.5,336C 673.766,335.691 674.933,335.191 676,334.5C 676.333,334.833 676.667,335.167 677,335.5C 677.635,333.382 678.469,331.382 679.5,329.5C 677.28,327.245 674.947,325.245 672.5,323.5 Z"/></g>
<g><path style="opacity:1" fill="#c918e7" d="M 491.5,335.5 C 490.051,337.164 488.051,337.998 485.5,338C 485.658,339.977 485.825,342.143 486,344.5C 485.667,344.167 485.333,343.833 485,343.5C 483.513,344.253 483.346,345.086 484.5,346C 482.884,346.615 481.551,347.615 480.5,349C 481.167,349.333 481.833,349.667 482.5,350C 481.333,350.5 480.5,351.333 480,352.5C 479.667,352.167 479.333,351.833 479,351.5C 478.047,353.455 476.713,355.122 475,356.5C 474.667,356.167 474.333,355.833 474,355.5C 473.49,358.005 471.99,359.505 469.5,360C 470.956,360.423 471.456,361.256 471,362.5C 470.667,362.167 470.333,361.833 470,361.5C 468.486,363.766 466.319,364.932 463.5,365C 464.5,365.333 465.5,365.667 466.5,366C 464.167,366.333 461.833,366.667 459.5,367C 462.695,367.181 465.695,367.681 468.5,368.5C 446.826,370.767 425.16,373.101 403.5,375.5C 402.432,374.566 401.099,374.232 399.5,374.5C 399.338,372.473 399.505,370.473 400,368.5C 400.333,368.833 400.667,369.167 401,369.5C 401.572,366.293 403.405,364.626 406.5,364.5C 406.351,363.448 406.517,362.448 407,361.5C 407.333,361.833 407.667,362.167 408,362.5C 409.167,360 411,358.167 413.5,357C 413.167,356.667 412.833,356.333 412.5,356C 414.5,354.667 416.5,353.333 418.5,352C 416.071,351.549 415.904,350.715 418,349.5C 418.333,349.833 418.667,350.167 419,350.5C 420.02,349.109 420.853,347.609 421.5,346C 423.167,345.667 424.833,345.333 426.5,345C 424.406,343.648 422.073,343.148 419.5,343.5C 443.303,340.337 467.303,337.67 491.5,335.5 Z"/></g>
<g><path style="opacity:1" fill="#4858fe" d="M 714.5,364.5 C 718.197,370.918 720.531,377.918 721.5,385.5C 720.812,388.199 719.479,390.532 717.5,392.5C 717.709,393.086 718.043,393.586 718.5,394C 717.258,394.311 716.258,393.811 715.5,392.5C 714.522,392.977 713.689,393.643 713,394.5C 712.667,394.167 712.333,393.833 712,393.5C 711.508,394.549 711.674,395.549 712.5,396.5C 709.707,397.981 706.873,399.314 704,400.5C 703.667,400.167 703.333,399.833 703,399.5C 701,402.167 699,404.833 697,407.5C 696.667,409.833 696.333,412.167 696,414.5C 695.667,406.167 695.333,397.833 695,389.5C 694.844,386.809 694.011,384.476 692.5,382.5C 691.027,378.221 689.027,374.221 686.5,370.5C 689.235,371.358 691.568,372.858 693.5,375C 690.709,377.777 691.375,379.277 695.5,379.5C 695.739,377.533 695.406,375.699 694.5,374C 695.26,370.333 696.76,369.833 699,372.5C 699.333,371.5 699.667,370.5 700,369.5C 700.689,370.357 701.522,371.023 702.5,371.5C 703.23,369.659 703.897,367.825 704.5,366C 707.884,364.636 711.218,364.136 714.5,364.5 Z"/></g>
<g><path style="opacity:1" fill="#eb03e4" d="M 419.5,343.5 C 422.073,343.148 424.406,343.648 426.5,345C 424.833,345.333 423.167,345.667 421.5,346C 420.853,347.609 420.02,349.109 419,350.5C 418.667,350.167 418.333,349.833 418,349.5C 415.904,350.715 416.071,351.549 418.5,352C 416.5,353.333 414.5,354.667 412.5,356C 412.833,356.333 413.167,356.667 413.5,357C 411,358.167 409.167,360 408,362.5C 407.667,362.167 407.333,361.833 407,361.5C 406.517,362.448 406.351,363.448 406.5,364.5C 403.405,364.626 401.572,366.293 401,369.5C 400.667,369.167 400.333,368.833 400,368.5C 399.505,370.473 399.338,372.473 399.5,374.5C 401.099,374.232 402.432,374.566 403.5,375.5C 390.469,376.67 377.469,378.17 364.5,380C 341.79,384.876 328.457,398.709 324.5,421.5C 324.011,424.542 323.011,428.042 321.5,432C 321.833,432.333 322.167,432.667 322.5,433C 318.874,434.052 317.041,436.552 317,440.5C 316.586,440.043 316.086,439.709 315.5,439.5C 314.646,440.522 313.646,441.355 312.5,442C 315.167,442.667 315.167,443.333 312.5,444C 313.784,445.297 313.617,446.464 312,447.5C 311.86,444.957 311.194,442.623 310,440.5C 308.992,440.982 307.825,441.148 306.5,441C 305.874,441.75 305.374,442.584 305,443.5C 302.357,439.326 300.857,439.826 300.5,445C 298.406,445.445 296.906,444.612 296,442.5C 295.824,438.312 295.324,434.312 294.5,430.5C 294.5,426.5 294.5,422.5 294.5,418.5C 294.833,418.5 295.167,418.5 295.5,418.5C 295.343,419.873 295.51,421.207 296,422.5C 297.745,420.911 298.912,418.911 299.5,416.5C 301.575,417.762 303.575,417.595 305.5,416C 306.358,414.212 307.358,412.378 308.5,410.5C 309.451,411.326 310.451,411.492 311.5,411C 313.394,409.899 314.061,408.566 313.5,407C 314.5,406.667 315.5,406.333 316.5,406C 315.664,404.757 315.997,403.59 317.5,402.5C 317.489,403.441 317.989,404.108 319,404.5C 321.78,402.589 323.947,400.089 325.5,397C 325.167,396.667 324.833,396.333 324.5,396C 328.594,395.302 331.76,392.802 334,388.5C 336.33,391.182 336.83,390.849 335.5,387.5C 336.105,385.519 337.105,385.185 338.5,386.5C 339.631,385.249 340.964,384.249 342.5,383.5C 345.028,384.169 345.028,385.002 342.5,386C 345.49,386.847 346.824,385.68 346.5,382.5C 350.449,382.307 350.449,381.807 346.5,381C 347.9,379.562 349.567,378.729 351.5,378.5C 351.413,375.402 351.913,375.068 353,377.5C 354.774,374.705 357.274,372.872 360.5,372C 360.167,371.667 359.833,371.333 359.5,371C 361.194,368.639 363.194,366.639 365.5,365C 365.043,364.586 364.709,364.086 364.5,363.5C 365.522,362.646 366.355,361.646 367,360.5C 367.333,361.167 367.667,361.833 368,362.5C 368.923,361.241 369.757,359.908 370.5,358.5C 371.086,358.709 371.586,359.043 372,359.5C 371.729,357.259 372.729,355.259 375,353.5C 375.667,354.167 376.333,354.833 377,355.5C 377.744,352.707 379.577,351.207 382.5,351C 379.97,349.578 377.303,349.245 374.5,350C 374.833,350.333 375.167,350.667 375.5,351C 373.328,351.28 371.661,350.447 370.5,348.5C 386.787,346.413 403.12,344.747 419.5,343.5 Z"/></g>
<g><path style="opacity:1" fill="#3164fd" d="M 699.5,340.5 C 711.358,351.237 718.858,364.57 722,380.5C 722.977,385.793 723.477,391.126 723.5,396.5C 722.505,408.989 722.171,421.656 722.5,434.5C 721.766,435.878 721.099,437.378 720.5,439C 721.769,441.139 721.769,443.305 720.5,445.5C 719.304,445.154 719.304,444.654 720.5,444C 719.747,442.513 718.914,442.346 718,443.5C 716.46,439.426 715.127,439.093 714,442.5C 712.324,441.939 710.991,440.939 710,439.5C 709.667,440.5 709.333,441.5 709,442.5C 707.612,441.446 706.112,441.28 704.5,442C 701.949,443.8 699.615,445.8 697.5,448C 697.833,449 698.167,450 698.5,451C 697.23,451.9 696.23,453.066 695.5,454.5C 694.833,448.681 694.167,443.014 693.5,437.5C 693.806,419.786 693.473,402.12 692.5,384.5C 692.5,383.833 692.5,383.167 692.5,382.5C 694.011,384.476 694.844,386.809 695,389.5C 695.333,397.833 695.667,406.167 696,414.5C 696.333,412.167 696.667,409.833 697,407.5C 699,404.833 701,402.167 703,399.5C 703.333,399.833 703.667,400.167 704,400.5C 706.873,399.314 709.707,397.981 712.5,396.5C 711.674,395.549 711.508,394.549 712,393.5C 712.333,393.833 712.667,394.167 713,394.5C 713.689,393.643 714.522,392.977 715.5,392.5C 716.258,393.811 717.258,394.311 718.5,394C 718.043,393.586 717.709,393.086 717.5,392.5C 719.479,390.532 720.812,388.199 721.5,385.5C 720.531,377.918 718.197,370.918 714.5,364.5C 713.289,361.074 711.789,357.741 710,354.5C 705.906,350.244 702.406,345.578 699.5,340.5 Z"/></g>
<g><path style="opacity:1" fill="#131119" d="M 294.5,418.5 C 294.5,422.5 294.5,426.5 294.5,430.5C 294.5,483.5 294.5,536.5 294.5,589.5C 294.5,591.167 294.5,592.833 294.5,594.5C 294.649,595.552 294.483,596.552 294,597.5C 293.667,595.833 293.333,594.167 293,592.5C 292.333,538.5 292.333,484.5 293,430.5C 293.137,425.735 293.637,421.735 294.5,418.5 Z"/></g>
<g><path style="opacity:1" fill="#fefefe" d="M 469.5,433.5 C 474.618,432.889 479.285,434.056 483.5,437C 514.167,454.667 544.833,472.333 575.5,490C 580.263,492.798 584.763,495.964 589,499.5C 592.247,506.73 590.414,512.23 583.5,516C 550.167,535.667 516.833,555.333 483.5,575C 478.494,578.626 473.161,579.292 467.5,577C 465.383,575.269 463.883,573.102 463,570.5C 462.333,527.5 462.333,484.5 463,441.5C 464.479,438.172 466.645,435.506 469.5,433.5 Z"/></g>
<g><path style="opacity:1" fill="#e202eb" d="M 324.5,421.5 C 324.5,474.833 324.5,528.167 324.5,581.5C 324.167,581.5 323.833,581.5 323.5,581.5C 323.667,538.499 323.5,495.499 323,452.5C 322.667,456.833 322.333,461.167 322,465.5C 320.667,464.833 319.667,463.833 319,462.5C 318.424,465.124 317.09,465.791 315,464.5C 314.085,465.328 313.419,466.328 313,467.5C 312.667,466.833 312.333,466.167 312,465.5C 311.716,467.886 310.716,468.552 309,467.5C 307.513,468.253 307.346,469.086 308.5,470C 307.551,470.617 306.718,470.451 306,469.5C 306.276,475.788 304.609,476.121 301,470.5C 300.667,471.167 300.333,471.833 300,472.5C 298.644,471.62 297.144,471.286 295.5,471.5C 295.5,489.5 295.5,507.5 295.5,525.5C 295.5,535.833 295.5,546.167 295.5,556.5C 295.828,567.679 295.495,578.679 294.5,589.5C 294.5,536.5 294.5,483.5 294.5,430.5C 295.324,434.312 295.824,438.312 296,442.5C 296.906,444.612 298.406,445.445 300.5,445C 300.857,439.826 302.357,439.326 305,443.5C 305.374,442.584 305.874,441.75 306.5,441C 307.825,441.148 308.992,440.982 310,440.5C 311.194,442.623 311.86,444.957 312,447.5C 313.617,446.464 313.784,445.297 312.5,444C 315.167,443.333 315.167,442.667 312.5,442C 313.646,441.355 314.646,440.522 315.5,439.5C 316.086,439.709 316.586,440.043 317,440.5C 317.041,436.552 318.874,434.052 322.5,433C 322.167,432.667 321.833,432.333 321.5,432C 323.011,428.042 324.011,424.542 324.5,421.5 Z"/></g>
<g><path style="opacity:1" fill="#168cf4" d="M 723.5,396.5 C 723.834,468.507 723.334,540.507 722,612.5C 720.077,627.672 713.911,640.672 703.5,651.5C 713.15,638.847 718.984,624.513 721,608.5C 721.408,560.831 721.908,513.165 722.5,465.5C 722.5,455.167 722.5,444.833 722.5,434.5C 722.171,421.656 722.505,408.989 723.5,396.5 Z"/></g>
<g><path style="opacity:1" fill="#1771fe" d="M 722.5,434.5 C 722.5,444.833 722.5,455.167 722.5,465.5C 721.51,471.645 721.177,477.978 721.5,484.5C 720.448,484.649 719.448,484.483 718.5,484C 720.014,482.561 720.347,481.061 719.5,479.5C 718.169,480.592 717.336,481.926 717,483.5C 716.586,483.043 716.086,482.709 715.5,482.5C 714.167,484.5 712.5,486.167 710.5,487.5C 708.028,485.652 705.861,485.652 704,487.5C 702.442,486.655 701.442,487.321 701,489.5C 699.984,488.366 699.317,488.699 699,490.5C 698.431,486.639 697.598,486.639 696.5,490.5C 695.824,489.398 695.158,488.398 694.5,487.5C 694.806,484.615 694.473,481.948 693.5,479.5C 693.5,465.5 693.5,451.5 693.5,437.5C 694.167,443.014 694.833,448.681 695.5,454.5C 696.23,453.066 697.23,451.9 698.5,451C 698.167,450 697.833,449 697.5,448C 699.615,445.8 701.949,443.8 704.5,442C 706.112,441.28 707.612,441.446 709,442.5C 709.333,441.5 709.667,440.5 710,439.5C 710.991,440.939 712.324,441.939 714,442.5C 715.127,439.093 716.46,439.426 718,443.5C 718.914,442.346 719.747,442.513 720.5,444C 719.304,444.654 719.304,445.154 720.5,445.5C 721.769,443.305 721.769,441.139 720.5,439C 721.099,437.378 721.766,435.878 722.5,434.5 Z"/></g>
<g><path style="opacity:1" fill="#d300ee" d="M 323.5,581.5 C 322.501,559.575 322.167,536.909 322.5,513.5C 322.666,504.827 322.5,496.16 322,487.5C 321.502,490.817 321.335,494.15 321.5,497.5C 319.669,496.948 318.003,496.948 316.5,497.5C 315.808,496.975 315.308,496.308 315,495.5C 314.1,496.77 312.934,497.77 311.5,498.5C 310.359,499.425 310.359,500.259 311.5,501C 310.833,501.667 310.167,502.333 309.5,503C 310.956,503.423 311.456,504.256 311,505.5C 310.667,505.167 310.333,504.833 310,504.5C 308.54,506.422 306.873,507.089 305,506.5C 303.887,507.76 303.72,508.927 304.5,510C 302.109,510.691 302.109,511.691 304.5,513C 302.633,513.711 301.133,513.211 300,511.5C 299.333,512.167 298.667,512.833 298,513.5C 297.651,515.897 297.818,518.397 298.5,521C 297.103,522.31 296.103,523.81 295.5,525.5C 295.5,507.5 295.5,489.5 295.5,471.5C 297.144,471.286 298.644,471.62 300,472.5C 300.333,471.833 300.667,471.167 301,470.5C 304.609,476.121 306.276,475.788 306,469.5C 306.718,470.451 307.551,470.617 308.5,470C 307.346,469.086 307.513,468.253 309,467.5C 310.716,468.552 311.716,467.886 312,465.5C 312.333,466.167 312.667,466.833 313,467.5C 313.419,466.328 314.085,465.328 315,464.5C 317.09,465.791 318.424,465.124 319,462.5C 319.667,463.833 320.667,464.833 322,465.5C 322.333,461.167 322.667,456.833 323,452.5C 323.5,495.499 323.667,538.499 323.5,581.5 Z"/></g>
<g><path style="opacity:1" fill="#017cfd" d="M 722.5,465.5 C 721.908,513.165 721.408,560.831 721,608.5C 718.984,624.513 713.15,638.847 703.5,651.5C 695.089,662.235 684.422,669.902 671.5,674.5C 676.846,671.494 682.179,668.494 687.5,665.5C 687.579,664.07 687.246,662.736 686.5,661.5C 687.729,660.719 689.062,660.219 690.5,660C 689.552,659.517 688.552,659.351 687.5,659.5C 687.64,657.876 686.973,656.71 685.5,656C 686.167,655.667 686.833,655.333 687.5,655C 685.321,654.558 684.655,653.558 685.5,652C 683.633,651.289 682.133,651.789 681,653.5C 679.526,650.675 678.026,650.342 676.5,652.5C 675.808,651.975 675.308,651.308 675,650.5C 674.773,653.06 673.44,654.726 671,655.5C 669.796,654.529 669.296,653.529 669.5,652.5C 668.201,653.09 667.368,654.09 667,655.5C 663.953,654.364 661.119,652.364 658.5,649.5C 662.896,647.634 667.229,645.467 671.5,643C 672.71,641.961 673.71,640.794 674.5,639.5C 676.833,636.5 679.5,633.833 682.5,631.5C 686.206,629.095 688.706,625.762 690,621.5C 692.352,615.743 693.685,609.743 694,603.5C 694.5,564.835 694.667,526.168 694.5,487.5C 695.158,488.398 695.824,489.398 696.5,490.5C 697.598,486.639 698.431,486.639 699,490.5C 699.317,488.699 699.984,488.366 701,489.5C 701.442,487.321 702.442,486.655 704,487.5C 705.861,485.652 708.028,485.652 710.5,487.5C 712.5,486.167 714.167,484.5 715.5,482.5C 716.086,482.709 716.586,483.043 717,483.5C 717.336,481.926 718.169,480.592 719.5,479.5C 720.347,481.061 720.014,482.561 718.5,484C 719.448,484.483 720.448,484.649 721.5,484.5C 721.177,477.978 721.51,471.645 722.5,465.5 Z"/></g>
<g><path style="opacity:1" fill="#c601f1" d="M 322.5,513.5 C 321.931,520.759 321.097,528.092 320,535.5C 317.965,533.088 316.965,533.755 317,537.5C 316.174,535.595 315.007,535.261 313.5,536.5C 313.931,537.293 314.265,538.127 314.5,539C 313.014,539.251 312.014,540.585 311.5,543C 312.022,543.561 312.355,544.228 312.5,545C 311.142,546.689 309.475,548.022 307.5,549C 310.167,549.667 310.167,550.333 307.5,551C 307.5,552 307.5,553 307.5,554C 306.241,554.982 304.908,555.315 303.5,555C 304.28,553.927 304.113,552.76 303,551.5C 301.244,552.421 301.077,553.588 302.5,555C 300.895,556.388 299.395,557.888 298,559.5C 297.764,557.881 296.931,556.881 295.5,556.5C 295.5,546.167 295.5,535.833 295.5,525.5C 296.103,523.81 297.103,522.31 298.5,521C 297.818,518.397 297.651,515.897 298,513.5C 298.667,512.833 299.333,512.167 300,511.5C 301.133,513.211 302.633,513.711 304.5,513C 302.109,511.691 302.109,510.691 304.5,510C 303.72,508.927 303.887,507.76 305,506.5C 306.873,507.089 308.54,506.422 310,504.5C 310.333,504.833 310.667,505.167 311,505.5C 311.456,504.256 310.956,503.423 309.5,503C 310.167,502.333 310.833,501.667 311.5,501C 310.359,500.259 310.359,499.425 311.5,498.5C 312.934,497.77 314.1,496.77 315,495.5C 315.308,496.308 315.808,496.975 316.5,497.5C 318.003,496.948 319.669,496.948 321.5,497.5C 321.335,494.15 321.502,490.817 322,487.5C 322.5,496.16 322.666,504.827 322.5,513.5 Z"/></g>
<g><path style="opacity:1" fill="#0d0910" d="M 692.5,384.5 C 693.473,402.12 693.806,419.786 693.5,437.5C 693.5,451.5 693.5,465.5 693.5,479.5C 692.723,522.157 692.223,564.824 692,607.5C 691.605,610.207 691.105,612.873 690.5,615.5C 689.781,613.909 688.781,612.409 687.5,611C 688.449,610.383 689.282,610.549 690,611.5C 690.987,608.303 690.487,605.47 688.5,603C 690.739,599.394 690.739,595.894 688.5,592.5C 688.846,591.304 689.346,591.304 690,592.5C 690.333,590.167 690.667,587.833 691,585.5C 691.318,518.3 691.818,451.3 692.5,384.5 Z"/></g>
<g><path style="opacity:1" fill="#b405f5" d="M 322.5,513.5 C 322.167,536.909 322.501,559.575 323.5,581.5C 323.833,581.5 324.167,581.5 324.5,581.5C 324.969,597.424 330.636,611.091 341.5,622.5C 337.224,619.893 333.557,616.559 330.5,612.5C 329.702,610.922 329.202,609.256 329,607.5C 327.43,606.386 326.097,605.053 325,603.5C 323.27,603.509 321.437,603.842 319.5,604.5C 318.296,607.415 316.296,609.581 313.5,611C 313.833,611.333 314.167,611.667 314.5,612C 311.436,613.064 308.936,614.897 307,617.5C 306.549,615.071 305.715,614.904 304.5,617C 305.56,619.737 306.394,622.57 307,625.5C 308.646,626.779 309.813,628.445 310.5,630.5C 311.962,629.529 313.295,629.862 314.5,631.5C 313.833,631.833 313.167,632.167 312.5,632.5C 313.581,636.374 315.915,637.541 319.5,636C 318.833,636.333 318.167,636.667 317.5,637C 320.799,642.965 325.465,647.632 331.5,651C 332.252,651.671 332.586,652.504 332.5,653.5C 310.992,639.475 298.326,619.808 294.5,594.5C 294.5,592.833 294.5,591.167 294.5,589.5C 295.495,578.679 295.828,567.679 295.5,556.5C 296.931,556.881 297.764,557.881 298,559.5C 299.395,557.888 300.895,556.388 302.5,555C 301.077,553.588 301.244,552.421 303,551.5C 304.113,552.76 304.28,553.927 303.5,555C 304.908,555.315 306.241,554.982 307.5,554C 307.5,553 307.5,552 307.5,551C 310.167,550.333 310.167,549.667 307.5,549C 309.475,548.022 311.142,546.689 312.5,545C 312.355,544.228 312.022,543.561 311.5,543C 312.014,540.585 313.014,539.251 314.5,539C 314.265,538.127 313.931,537.293 313.5,536.5C 315.007,535.261 316.174,535.595 317,537.5C 316.965,533.755 317.965,533.088 320,535.5C 321.097,528.092 321.931,520.759 322.5,513.5 Z"/></g>
<g><path style="opacity:1" fill="#067fec" d="M 693.5,479.5 C 694.473,481.948 694.806,484.615 694.5,487.5C 694.667,526.168 694.5,564.835 694,603.5C 693.685,609.743 692.352,615.743 690,621.5C 688.706,625.762 686.206,629.095 682.5,631.5C 685.678,626.477 688.345,621.143 690.5,615.5C 691.105,612.873 691.605,610.207 692,607.5C 692.223,564.824 692.723,522.157 693.5,479.5 Z"/></g>
<g><path style="opacity:1" fill="#9d0ef9" d="M 341.5,622.5 C 347.226,627.031 353.56,630.531 360.5,633C 373.411,635.063 386.411,636.229 399.5,636.5C 399.5,636.833 399.5,637.167 399.5,637.5C 383.702,637.277 368.035,636.11 352.5,634C 351.917,635.619 351.917,637.452 352.5,639.5C 351.352,641.149 350.019,642.649 348.5,644C 349.956,644.423 350.456,645.256 350,646.5C 348.732,646.384 347.398,646.051 346,645.5C 345.691,646.766 345.191,647.933 344.5,649C 344.833,649.333 345.167,649.667 345.5,650C 344.687,651.314 343.687,652.481 342.5,653.5C 342.918,657.418 345.084,659.418 349,659.5C 349.333,659.167 349.667,658.833 350,658.5C 350.483,659.448 350.649,660.448 350.5,661.5C 344.26,659.38 338.26,656.713 332.5,653.5C 332.586,652.504 332.252,651.671 331.5,651C 325.465,647.632 320.799,642.965 317.5,637C 318.167,636.667 318.833,636.333 319.5,636C 315.915,637.541 313.581,636.374 312.5,632.5C 313.167,632.167 313.833,631.833 314.5,631.5C 313.295,629.862 311.962,629.529 310.5,630.5C 309.813,628.445 308.646,626.779 307,625.5C 306.394,622.57 305.56,619.737 304.5,617C 305.715,614.904 306.549,615.071 307,617.5C 308.936,614.897 311.436,613.064 314.5,612C 314.167,611.667 313.833,611.333 313.5,611C 316.296,609.581 318.296,607.415 319.5,604.5C 321.437,603.842 323.27,603.509 325,603.5C 326.097,605.053 327.43,606.386 329,607.5C 329.202,609.256 329.702,610.922 330.5,612.5C 333.557,616.559 337.224,619.893 341.5,622.5 Z"/></g>
<g><path style="opacity:1" fill="#791ffe" d="M 399.5,637.5 C 407.284,638.991 415.284,639.991 423.5,640.5C 424.767,642.371 424.767,644.204 423.5,646C 424.167,646.667 424.833,647.333 425.5,648C 424.019,648.98 422.685,650.147 421.5,651.5C 422.108,653.684 421.441,655.684 419.5,657.5C 420.09,658.799 421.09,659.632 422.5,660C 421.167,660.333 419.833,660.667 418.5,661C 419.833,661.667 419.833,662.333 418.5,663C 420.087,663.862 421.754,664.529 423.5,665C 415.907,665.827 408.407,665.327 401,663.5C 396.028,665.329 390.861,665.995 385.5,665.5C 373.651,665.549 361.985,664.215 350.5,661.5C 350.649,660.448 350.483,659.448 350,658.5C 349.667,658.833 349.333,659.167 349,659.5C 345.084,659.418 342.918,657.418 342.5,653.5C 343.687,652.481 344.687,651.314 345.5,650C 345.167,649.667 344.833,649.333 344.5,649C 345.191,647.933 345.691,646.766 346,645.5C 347.398,646.051 348.732,646.384 350,646.5C 350.456,645.256 349.956,644.423 348.5,644C 350.019,642.649 351.352,641.149 352.5,639.5C 351.917,637.452 351.917,635.619 352.5,634C 368.035,636.11 383.702,637.277 399.5,637.5 Z"/></g>
<g><path style="opacity:1" fill="#5e2dfd" d="M 399.5,636.5 C 420.224,637.797 440.891,639.131 461.5,640.5C 468.016,641.815 474.683,642.981 481.5,644C 478.815,646.795 475.481,648.461 471.5,649C 474.167,649.667 474.167,650.333 471.5,651C 472.308,651.308 472.975,651.808 473.5,652.5C 473.154,653.696 472.654,653.696 472,652.5C 470.661,655.503 469.327,658.503 468,661.5C 467.346,660.304 466.846,660.304 466.5,661.5C 468.04,662.532 468.54,663.865 468,665.5C 466.42,662.746 465.254,662.912 464.5,666C 464.905,666.945 465.572,667.612 466.5,668C 469.628,668.841 472.628,669.675 475.5,670.5C 472.5,670.5 469.5,670.5 466.5,670.5C 439.318,669.309 412.318,667.643 385.5,665.5C 390.861,665.995 396.028,665.329 401,663.5C 408.407,665.327 415.907,665.827 423.5,665C 421.754,664.529 420.087,663.862 418.5,663C 419.833,662.333 419.833,661.667 418.5,661C 419.833,660.667 421.167,660.333 422.5,660C 421.09,659.632 420.09,658.799 419.5,657.5C 421.441,655.684 422.108,653.684 421.5,651.5C 422.685,650.147 424.019,648.98 425.5,648C 424.833,647.333 424.167,646.667 423.5,646C 424.767,644.204 424.767,642.371 423.5,640.5C 415.284,639.991 407.284,638.991 399.5,637.5C 399.5,637.167 399.5,636.833 399.5,636.5 Z"/></g>
<g><path style="opacity:1" fill="#0486f0" d="M 674.5,639.5 C 673.71,640.794 672.71,641.961 671.5,643C 667.229,645.467 662.896,647.634 658.5,649.5C 652.793,650.99 646.96,651.656 641,651.5C 630.738,651.527 623.905,650.861 620.5,649.5C 626.84,649.652 633.173,649.985 639.5,650.5C 652.44,650.63 664.106,646.963 674.5,639.5 Z"/></g>
<g><path style="opacity:1" fill="#4939fe" d="M 461.5,640.5 C 466.167,640.5 470.833,640.5 475.5,640.5C 486.927,642.726 498.593,644.226 510.5,645C 510.957,645.414 511.291,645.914 511.5,646.5C 509.833,647.167 508.167,647.833 506.5,648.5C 507.083,650.548 507.083,652.381 506.5,654C 505.333,654.5 504.5,655.333 504,656.5C 502.175,655.429 501.008,656.096 500.5,658.5C 502.957,660.625 502.624,662.459 499.5,664C 500.991,666.022 500.658,667.688 498.5,669C 499.167,669.667 499.833,670.333 500.5,671C 492.212,670.63 483.879,670.464 475.5,670.5C 472.628,669.675 469.628,668.841 466.5,668C 465.572,667.612 464.905,666.945 464.5,666C 465.254,662.912 466.42,662.746 468,665.5C 468.54,663.865 468.04,662.532 466.5,661.5C 466.846,660.304 467.346,660.304 468,661.5C 469.327,658.503 470.661,655.503 472,652.5C 472.654,653.696 473.154,653.696 473.5,652.5C 472.975,651.808 472.308,651.308 471.5,651C 474.167,650.333 474.167,649.667 471.5,649C 475.481,648.461 478.815,646.795 481.5,644C 474.683,642.981 468.016,641.815 461.5,640.5 Z"/></g>
<g><path style="opacity:1" fill="#3646fd" d="M 475.5,640.5 C 490.145,641.795 504.812,642.795 519.5,643.5C 522.192,645.272 525.359,646.272 529,646.5C 531.927,645.086 534.761,645.252 537.5,647C 536.552,647.483 535.552,647.649 534.5,647.5C 534.34,649.199 534.506,650.866 535,652.5C 535.333,651.5 535.667,650.5 536,649.5C 536.471,651.246 537.138,652.913 538,654.5C 539.465,653.631 540.631,654.131 541.5,656C 541.333,656.5 541.167,657 541,657.5C 538.871,656.137 538.371,656.471 539.5,658.5C 537.014,661.279 537.014,664.112 539.5,667C 537.983,669.761 538.816,671.594 542,672.5C 543.107,671.288 543.607,671.621 543.5,673.5C 534.5,673.5 525.5,673.5 516.5,673.5C 499.665,672.76 482.998,671.76 466.5,670.5C 469.5,670.5 472.5,670.5 475.5,670.5C 483.879,670.464 492.212,670.63 500.5,671C 499.833,670.333 499.167,669.667 498.5,669C 500.658,667.688 500.991,666.022 499.5,664C 502.624,662.459 502.957,660.625 500.5,658.5C 501.008,656.096 502.175,655.429 504,656.5C 504.5,655.333 505.333,654.5 506.5,654C 507.083,652.381 507.083,650.548 506.5,648.5C 508.167,647.833 509.833,647.167 511.5,646.5C 511.291,645.914 510.957,645.414 510.5,645C 498.593,644.226 486.927,642.726 475.5,640.5 Z"/></g>
<g><path style="opacity:1" fill="#254ffe" d="M 519.5,643.5 C 525.822,644.014 532.155,644.347 538.5,644.5C 548.007,645.959 557.673,647.292 567.5,648.5C 567.154,649.696 566.654,649.696 566,648.5C 565.138,650.087 564.471,651.754 564,653.5C 563.576,649.81 562.742,649.643 561.5,653C 562.202,655.056 561.535,656.889 559.5,658.5C 560.167,659.167 560.833,659.833 561.5,660.5C 560.115,661.551 559.115,662.884 558.5,664.5C 558.888,666.641 558.888,668.641 558.5,670.5C 560.766,671.314 563.1,671.814 565.5,672C 564.366,673.016 564.699,673.683 566.5,674C 558.805,674.691 551.139,674.525 543.5,673.5C 543.607,671.621 543.107,671.288 542,672.5C 538.816,671.594 537.983,669.761 539.5,667C 537.014,664.112 537.014,661.279 539.5,658.5C 538.371,656.471 538.871,656.137 541,657.5C 541.167,657 541.333,656.5 541.5,656C 540.631,654.131 539.465,653.631 538,654.5C 537.138,652.913 536.471,651.246 536,649.5C 535.667,650.5 535.333,651.5 535,652.5C 534.506,650.866 534.34,649.199 534.5,647.5C 535.552,647.649 536.552,647.483 537.5,647C 534.761,645.252 531.927,645.086 529,646.5C 525.359,646.272 522.192,645.272 519.5,643.5 Z"/></g>
<g><path style="opacity:1" fill="#175dfc" d="M 538.5,644.5 C 554.835,645.591 571.169,646.591 587.5,647.5C 590.345,648.344 593.345,649.01 596.5,649.5C 598.116,651.416 597.782,652.916 595.5,654C 596.167,654.333 596.833,654.667 597.5,655C 596.167,655.333 594.833,655.667 593.5,656C 596.951,657.487 597.617,659.487 595.5,662C 597.991,662.626 597.991,663.459 595.5,664.5C 597.576,665.705 599.243,667.872 600.5,671C 602.167,671.333 603.833,671.667 605.5,672C 605.167,672.333 604.833,672.667 604.5,673C 606.883,673.065 607.55,673.898 606.5,675.5C 607.949,676.172 609.282,676.839 610.5,677.5C 602.833,677.5 595.167,677.5 587.5,677.5C 563.641,676.857 539.975,675.524 516.5,673.5C 525.5,673.5 534.5,673.5 543.5,673.5C 551.139,674.525 558.805,674.691 566.5,674C 564.699,673.683 564.366,673.016 565.5,672C 563.1,671.814 560.766,671.314 558.5,670.5C 558.888,668.641 558.888,666.641 558.5,664.5C 559.115,662.884 560.115,661.551 561.5,660.5C 560.833,659.833 560.167,659.167 559.5,658.5C 561.535,656.889 562.202,655.056 561.5,653C 562.742,649.643 563.576,649.81 564,653.5C 564.471,651.754 565.138,650.087 566,648.5C 566.654,649.696 567.154,649.696 567.5,648.5C 557.673,647.292 548.007,645.959 538.5,644.5 Z"/></g>
<g><path style="opacity:1" fill="#0866fe" d="M 596.5,649.5 C 602.569,648.966 608.235,650.133 613.5,653C 612.09,653.368 611.09,654.201 610.5,655.5C 610.846,656.696 611.346,656.696 612,655.5C 612.545,658.863 613.878,661.863 616,664.5C 617,665.833 618,665.833 619,664.5C 619.465,665.931 620.299,667.097 621.5,668C 621.384,669.268 621.051,670.602 620.5,672C 622.373,673.085 624.04,674.418 625.5,676C 624.833,676.333 624.167,676.667 623.5,677C 626.695,677.181 629.695,677.681 632.5,678.5C 625.142,678.582 617.809,678.248 610.5,677.5C 609.282,676.839 607.949,676.172 606.5,675.5C 607.55,673.898 606.883,673.065 604.5,673C 604.833,672.667 605.167,672.333 605.5,672C 603.833,671.667 602.167,671.333 600.5,671C 599.243,667.872 597.576,665.705 595.5,664.5C 597.991,663.459 597.991,662.626 595.5,662C 597.617,659.487 596.951,657.487 593.5,656C 594.833,655.667 596.167,655.333 597.5,655C 596.833,654.667 596.167,654.333 595.5,654C 597.782,652.916 598.116,651.416 596.5,649.5 Z"/></g>
<g><path style="opacity:1" fill="#0171fe" d="M 587.5,647.5 C 598.682,647.684 609.682,648.35 620.5,649.5C 623.905,650.861 630.738,651.527 641,651.5C 646.96,651.656 652.793,650.99 658.5,649.5C 661.119,652.364 663.953,654.364 667,655.5C 667.368,654.09 668.201,653.09 669.5,652.5C 669.296,653.529 669.796,654.529 671,655.5C 673.44,654.726 674.773,653.06 675,650.5C 675.308,651.308 675.808,651.975 676.5,652.5C 678.026,650.342 679.526,650.675 681,653.5C 682.133,651.789 683.633,651.289 685.5,652C 684.655,653.558 685.321,654.558 687.5,655C 686.833,655.333 686.167,655.667 685.5,656C 686.973,656.71 687.64,657.876 687.5,659.5C 688.552,659.351 689.552,659.517 690.5,660C 689.062,660.219 687.729,660.719 686.5,661.5C 687.246,662.736 687.579,664.07 687.5,665.5C 682.179,668.494 676.846,671.494 671.5,674.5C 658.804,678.712 645.804,680.045 632.5,678.5C 629.695,677.681 626.695,677.181 623.5,677C 624.167,676.667 624.833,676.333 625.5,676C 624.04,674.418 622.373,673.085 620.5,672C 621.051,670.602 621.384,669.268 621.5,668C 620.299,667.097 619.465,665.931 619,664.5C 618,665.833 617,665.833 616,664.5C 613.878,661.863 612.545,658.863 612,655.5C 611.346,656.696 610.846,656.696 610.5,655.5C 611.09,654.201 612.09,653.368 613.5,653C 608.235,650.133 602.569,648.966 596.5,649.5C 593.345,649.01 590.345,648.344 587.5,647.5 Z"/></g>
<g><path style="opacity:1" fill="#087aec" d="M 671.5,674.5 C 666.292,677.393 660.626,679.226 654.5,680C 631.96,680.682 609.627,679.849 587.5,677.5C 595.167,677.5 602.833,677.5 610.5,677.5C 617.809,678.248 625.142,678.582 632.5,678.5C 645.804,680.045 658.804,678.712 671.5,674.5 Z"/></g>
</svg>
