<svg xmlns="http://www.w3.org/2000/svg"  viewBox="0 0 100 100" width="50px" height="50px" baseProfile="basic"><circle cx="77" cy="13" r="1" fill="#f1bc19"/><circle cx="50" cy="50" r="37" fill="#e6edb7"/><circle cx="83" cy="15" r="4" fill="#f1bc19"/><circle cx="87" cy="24" r="2" fill="#88ae45"/><circle cx="81" cy="76" r="2" fill="#fbcd59"/><circle cx="15" cy="63" r="4" fill="#fbcd59"/><circle cx="25" cy="87" r="2" fill="#88ae45"/><circle cx="18.5" cy="51.5" r="2.5" fill="#fff"/><circle cx="79.5" cy="33.5" r="1.5" fill="#fff"/><circle cx="21" cy="67" r="1" fill="#f1bc19"/><path fill="#fdfcef" d="M64.666,52.104V39.322c2.861,0,5.063-0.269,7.011,1.993	c0.78,0.906,1.404,2.18,1.404,3.941C73.081,53.39,65.184,52.163,64.666,52.104z M79.445,43.065c-0.804-4.248-3.2-6.777-5.544-8.268	c-2.202-1.401-4.791-2.065-7.401-2.065H27.586c-1.359,0-1.881,1.327-1.886,1.992V60.3c0,3.866,3.134,7,7,7h24.809	c3.88,0,7.023-3.157,7-7.036c-0.004-0.594-0.009-1.131-0.018-1.564C74.279,59.244,81.185,52.257,79.445,43.065"/><path fill="#472b29" d="M57.509,68H32.7c-4.246,0-7.7-3.455-7.7-7.7V34.725c0.008-1.089,0.836-2.692,2.586-2.692H66.5	c2.851,0,5.539,0.752,7.776,2.175c3.126,1.988,5.151,5.006,5.856,8.728l0,0c0.833,4.401-0.201,8.528-2.911,11.621	c-2.806,3.202-7.178,4.952-12.02,4.871c0.003,0.261,0.005,0.541,0.007,0.834c0.013,2.061-0.782,4.003-2.236,5.466	C61.516,67.193,59.575,68,57.509,68z M27.586,33.433c-0.972,0-1.185,1.083-1.186,1.297V60.3c0,3.474,2.826,6.3,6.3,6.3h24.809	c1.69,0,3.278-0.66,4.471-1.859c1.189-1.197,1.84-2.786,1.829-4.472c-0.003-0.591-0.009-1.125-0.018-1.554	c-0.004-0.195,0.074-0.382,0.214-0.518c0.14-0.136,0.316-0.212,0.525-0.195c4.73,0.263,8.975-1.329,11.638-4.368	c2.421-2.762,3.341-6.469,2.59-10.438l0,0c-0.641-3.38-2.401-6.007-5.233-7.807c-2.012-1.28-4.44-1.956-7.024-1.956H27.586z M66.138,52.899c-0.613,0-1.137-0.047-1.504-0.094c-0.35-0.044-0.668-0.349-0.668-0.701V39.322c0-0.387,0.313-0.7,0.7-0.7	l0.817-0.005c2.551-0.023,4.756-0.044,6.725,2.241c1.044,1.213,1.573,2.693,1.573,4.398c0,2.588-0.759,4.569-2.255,5.886	C69.888,52.585,67.716,52.899,66.138,52.899z M65.366,51.472c1.328,0.096,3.644,0.022,5.235-1.38	c1.181-1.04,1.779-2.667,1.779-4.835c0-1.361-0.415-2.533-1.233-3.485c-1.545-1.793-3.27-1.776-5.65-1.755l-0.131,0.001V51.472z"/><path fill="#472b29" d="M57.691,65H55.5c-0.276,0-0.5-0.224-0.5-0.5s0.224-0.5,0.5-0.5h2.191c1.93,0,3.5-1.57,3.5-3.5v-1.822	c0-0.276,0.224-0.5,0.5-0.5s0.5,0.224,0.5,0.5V60.5C62.191,62.981,60.173,65,57.691,65z M52.5,65h-4c-0.276,0-0.5-0.224-0.5-0.5	s0.224-0.5,0.5-0.5h4c0.276,0,0.5,0.224,0.5,0.5S52.776,65,52.5,65z M41.5,36h-13c-0.276,0-0.5-0.224-0.5-0.5s0.224-0.5,0.5-0.5h13	c0.276,0,0.5,0.224,0.5,0.5S41.776,36,41.5,36z"/><path fill="#472b29" d="M49.5,36h-5c-0.276,0-0.5-0.224-0.5-0.5s0.224-0.5,0.5-0.5h5c0.276,0,0.5,0.224,0.5,0.5	S49.776,36,49.5,36z"/><path fill="#f96c55" d="M44.833,60.279c0.395,0.292,0.72-0.054,0.72-0.054s6.426-5.865,9.321-9.243	c2.575-3.022,2.743-8.114-1.679-10.017c-4.422-1.903-8.06,2.238-8.06,2.238c-3.155-3.47-7.93-3.294-10.139-0.946	c-2.209,2.348-1.437,6.379,0.21,8.623c1.547,2.106,8.345,8.165,9.375,9.19C44.581,60.07,44.656,60.149,44.833,60.279z"/><path fill="#472b29" d="M45.161,60.897c-0.197,0-0.413-0.059-0.625-0.216l0,0c-0.223-0.165-0.316-0.266-0.316-0.266	c-0.243-0.242-0.843-0.796-1.627-1.52c-2.467-2.279-6.596-6.094-7.79-7.72c-1.872-2.55-2.471-6.815-0.172-9.261	c1.123-1.194,2.836-1.876,4.707-1.876c0.021,0,0.044,0,0.065,0c2.129,0.018,4.147,0.884,5.738,2.45	c1.094-1.026,4.4-3.641,8.251-1.984c2.438,1.049,3.318,2.853,3.629,4.181c0.514,2.202-0.163,4.738-1.767,6.62	c-2.883,3.363-9.301,9.23-9.365,9.289C45.751,60.744,45.479,60.897,45.161,60.897z M39.338,41.039c-1.597,0-3.044,0.567-3.979,1.561	c-1.947,2.07-1.386,5.756,0.25,7.984c1.137,1.548,5.382,5.47,7.662,7.577c0.797,0.736,1.406,1.299,1.662,1.554	c0.019,0.019,0.078,0.074,0.196,0.161c0,0,0,0,0,0c0.023,0.017,0.035,0.02,0.035,0.02c0.114-0.099,6.488-5.925,9.329-9.24	c1.4-1.644,1.996-3.844,1.553-5.743c-0.369-1.583-1.424-2.791-3.049-3.49c-4.032-1.733-7.349,1.952-7.488,2.11	c-0.094,0.106-0.229,0.168-0.371,0.169c-0.178-0.008-0.279-0.059-0.374-0.163c-1.45-1.596-3.357-2.484-5.37-2.501	C39.376,41.039,39.356,41.039,39.338,41.039z"/></svg>