<svg xmlns="http://www.w3.org/2000/svg"  viewBox="0 0 80 80" width="80px" height="80px"><path d="M 18 10 C 13.593562 10 10 13.593562 10 18 L 10 62 C 10 66.406438 13.593562 70 18 70 L 62 70 C 66.406438 70 70 66.406438 70 62 L 70 18 C 70 13.593562 66.406438 10 62 10 L 18 10 z M 18 12 L 62 12 C 65.325562 12 68 14.674438 68 18 L 68 62 C 68 65.325562 65.325562 68 62 68 L 18 68 C 14.674438 68 12 65.325562 12 62 L 12 18 C 12 14.674438 14.674438 12 18 12 z M 18 15 C 17.448 15 17 15.448 17 16 C 17 16.552 17.448 17 18 17 C 18.552 17 19 16.552 19 16 C 19 15.448 18.552 15 18 15 z M 22 15 C 21.448 15 21 15.448 21 16 C 21 16.552 21.448 17 22 17 C 22.552 17 23 16.552 23 16 C 23 15.448 22.552 15 22 15 z M 26 15 C 25.448 15 25 15.448 25 16 C 25 16.552 25.448 17 26 17 C 26.552 17 27 16.552 27 16 C 27 15.448 26.552 15 26 15 z M 30 15 C 29.448 15 29 15.448 29 16 C 29 16.552 29.448 17 30 17 C 30.552 17 31 16.552 31 16 C 31 15.448 30.552 15 30 15 z M 34 15 C 33.448 15 33 15.448 33 16 C 33 16.552 33.448 17 34 17 C 34.552 17 35 16.552 35 16 C 35 15.448 34.552 15 34 15 z M 38 15 C 37.448 15 37 15.448 37 16 C 37 16.552 37.448 17 38 17 C 38.552 17 39 16.552 39 16 C 39 15.448 38.552 15 38 15 z M 42 15 C 41.448 15 41 15.448 41 16 C 41 16.552 41.448 17 42 17 C 42.552 17 43 16.552 43 16 C 43 15.448 42.552 15 42 15 z M 46 15 C 45.448 15 45 15.448 45 16 C 45 16.552 45.448 17 46 17 C 46.552 17 47 16.552 47 16 C 47 15.448 46.552 15 46 15 z M 50 15 C 49.448 15 49 15.448 49 16 C 49 16.552 49.448 17 50 17 C 50.552 17 51 16.552 51 16 C 51 15.448 50.552 15 50 15 z M 54 15 C 53.448 15 53 15.448 53 16 C 53 16.552 53.448 17 54 17 C 54.552 17 55 16.552 55 16 C 55 15.448 54.552 15 54 15 z M 58 15 C 57.448 15 57 15.448 57 16 C 57 16.552 57.448 17 58 17 C 58.552 17 59 16.552 59 16 C 59 15.448 58.552 15 58 15 z M 62 15 C 61.448 15 61 15.448 61 16 C 61 16.552 61.448 17 62 17 C 62.552 17 63 16.552 63 16 C 63 15.448 62.552 15 62 15 z M 37.058594 22.003906 C 36.318594 22.002906 35.885078 22.362578 35.830078 23.017578 C 35.794078 23.682578 36.181031 24.069875 36.707031 24.171875 C 36.910031 24.207875 37.123172 24.207875 37.326172 24.171875 C 37.807172 24.097875 38.167125 23.709469 38.203125 23.230469 C 38.249125 22.667469 37.990188 22.233406 37.492188 22.066406 C 37.354188 22.020406 37.206594 21.993906 37.058594 22.003906 z M 26.126953 25.091797 C 25.402594 25.089688 24.732625 25.331422 24.109375 25.794922 C 24.054375 25.849922 23.991969 25.895641 23.917969 25.931641 C 23.898969 25.922641 23.880859 25.913297 23.880859 25.904297 C 23.852859 25.811297 23.834641 25.719953 23.806641 25.626953 C 23.732641 25.395953 23.640578 25.3125 23.392578 25.3125 C 23.116578 25.3125 22.829734 25.3215 22.552734 25.3125 C 22.340734 25.3035 22.148 25.331094 22 25.496094 C 22 28.726094 22.000719 31.966547 22.011719 35.185547 C 22.130719 35.379547 22.315344 35.41525 22.527344 35.40625 C 22.858344 35.39725 23.191437 35.40625 23.523438 35.40625 C 24.104438 35.40625 24.105469 35.407938 24.105469 34.835938 L 24.105469 32.205078 C 24.105469 32.141078 24.076625 32.068672 24.140625 32.013672 C 24.602625 32.373672 25.165094 32.595391 25.746094 32.650391 C 26.559094 32.733391 27.297016 32.531563 27.916016 31.976562 C 28.368016 31.561562 28.700953 31.024594 28.876953 30.433594 C 29.123953 29.680594 29.139219 28.913672 29.074219 28.138672 C 29.038219 27.658672 28.907844 27.187906 28.714844 26.753906 C 28.335844 25.959906 27.754141 25.378781 26.869141 25.175781 C 26.615141 25.120531 26.368406 25.0925 26.126953 25.091797 z M 44.201172 25.097656 C 43.970422 25.097656 43.740766 25.121469 43.509766 25.167969 C 42.909766 25.278969 42.375188 25.545375 41.867188 25.859375 C 41.803187 25.897375 41.747297 25.960938 41.654297 25.960938 C 41.608297 25.822937 41.581156 25.701266 41.535156 25.572266 C 41.478156 25.416266 41.377938 25.314453 41.210938 25.314453 L 40.056641 25.314453 C 39.946641 25.314453 39.834828 25.380234 39.798828 25.490234 C 39.779828 25.564234 39.771484 25.638891 39.771484 25.712891 L 39.771484 32.117188 C 39.771484 32.430187 39.853734 32.523438 40.177734 32.523438 L 41.414062 32.523438 C 41.755062 32.523437 41.828125 32.448422 41.828125 32.107422 L 41.828125 27.189453 C 41.810125 27.115453 41.857641 27.032672 41.931641 27.013672 C 42.431641 26.773672 42.993875 26.663219 43.546875 26.699219 C 43.860875 26.716219 44.129359 26.937953 44.193359 27.251953 C 44.230359 27.406953 44.238281 27.573469 44.238281 27.730469 L 44.238281 32.095703 C 44.238281 32.436703 44.313297 32.519531 44.654297 32.519531 L 45.632812 32.519531 C 45.779813 32.519531 45.918641 32.518766 46.056641 32.509766 C 46.185641 32.509766 46.287109 32.416109 46.287109 32.287109 C 46.306109 32.196109 46.306641 32.114484 46.306641 32.021484 L 46.306641 27.167969 C 46.296641 27.093969 46.342016 27.020953 46.416016 27.001953 C 46.914016 26.770953 47.459906 26.659312 48.003906 26.695312 C 48.298906 26.714312 48.556859 26.917125 48.630859 27.203125 C 48.676859 27.370125 48.694547 27.536891 48.685547 27.712891 L 48.685547 31.984375 C 48.685547 32.086375 48.684125 32.187063 48.703125 32.289062 C 48.722125 32.399063 48.815781 32.492953 48.925781 32.501953 C 48.999781 32.510953 49.074438 32.511719 49.148438 32.511719 L 50.273438 32.511719 C 50.688437 32.511719 50.742188 32.456016 50.742188 32.041016 L 50.742188 27.261719 C 50.742187 27.150719 50.743375 27.049266 50.734375 26.947266 C 50.696375 26.468266 50.567797 26.026016 50.216797 25.666016 C 49.847797 25.279016 49.367797 25.131516 48.841797 25.103516 C 48.112797 25.067516 47.392094 25.232453 46.746094 25.564453 C 46.496094 25.693453 46.258344 25.842469 46.027344 25.980469 C 46.018344 25.961469 46.009531 25.961172 46.019531 25.951172 C 46.000531 25.933172 45.983844 25.914719 45.964844 25.886719 C 45.716844 25.517719 45.328531 25.260969 44.894531 25.167969 C 44.663531 25.121469 44.431922 25.097656 44.201172 25.097656 z M 55.455078 25.142578 C 55.300156 25.145 55.144734 25.155281 54.990234 25.175781 C 53.531234 25.341781 52.582437 26.144109 52.148438 27.537109 C 51.843438 28.488109 51.880906 29.457969 52.128906 30.417969 C 52.451906 31.644969 53.263234 32.372859 54.490234 32.630859 C 55.191234 32.787859 55.903469 32.760391 56.605469 32.650391 C 56.974469 32.586391 57.342359 32.493469 57.693359 32.355469 C 57.905359 32.271469 58.016813 32.142344 58.007812 31.902344 C 57.998812 31.681344 58.007812 31.450703 58.007812 31.220703 C 58.007812 30.944703 57.897906 30.860781 57.628906 30.925781 C 57.359906 30.990781 57.102938 31.045562 56.835938 31.101562 C 56.263938 31.221562 55.671609 31.220141 55.099609 31.119141 C 54.315609 30.962141 53.807516 30.289984 53.853516 29.458984 C 53.935516 29.467984 54.028281 29.475141 54.113281 29.494141 C 54.805281 29.623141 55.514031 29.633437 56.207031 29.523438 C 56.613031 29.468438 57.001328 29.347297 57.361328 29.154297 C 57.776328 28.914297 58.081938 28.581141 58.210938 28.119141 C 58.533938 26.956141 58.035172 25.783562 56.826172 25.351562 C 56.382922 25.206812 55.919844 25.135313 55.455078 25.142578 z M 34.755859 25.242188 C 34.155859 25.196188 33.553219 25.38 33.074219 25.75 C 32.889219 25.896 32.714828 26.053703 32.548828 26.220703 C 32.510828 26.275703 32.456578 26.311078 32.392578 26.330078 C 32.334578 26.082078 32.278891 25.850094 32.212891 25.621094 C 32.148891 25.390094 32.038828 25.308594 31.798828 25.308594 L 30.912109 25.308594 C 30.488109 25.308594 30.441406 25.353344 30.441406 25.777344 L 30.441406 32.052734 C 30.441406 32.126734 30.442172 32.201391 30.451172 32.275391 C 30.460172 32.396391 30.553828 32.496859 30.673828 32.505859 C 30.737828 32.514859 30.811953 32.515625 30.876953 32.515625 L 32.076172 32.515625 C 32.140172 32.515625 32.214297 32.514859 32.279297 32.505859 C 32.399297 32.505859 32.491953 32.413922 32.501953 32.294922 C 32.510953 32.211922 32.511719 32.137687 32.511719 32.054688 L 32.511719 27.625 C 32.511719 27.523 32.511625 27.429766 32.640625 27.384766 C 33.221625 27.191766 33.821453 27.071953 34.439453 27.126953 C 34.568453 27.135953 34.689359 27.146719 34.818359 27.136719 C 34.983359 27.117719 35.049938 27.053719 35.085938 26.886719 C 35.104937 26.757719 35.114469 26.636813 35.105469 26.507812 C 35.105469 26.193812 35.113703 25.870641 35.095703 25.556641 C 35.078703 25.325641 34.995859 25.251187 34.755859 25.242188 z M 36.302734 25.306641 C 36.080734 25.315641 35.997281 25.398141 35.988281 25.619141 L 35.988281 28.894531 C 35.988281 29.947531 35.988516 30.999437 35.978516 32.023438 C 35.978516 32.097437 35.977328 32.170141 35.986328 32.244141 C 35.995328 32.374141 36.107328 32.475375 36.236328 32.484375 C 36.282328 32.493375 36.319234 32.494141 36.365234 32.494141 L 37.648438 32.494141 C 37.703437 32.494141 37.749688 32.493375 37.804688 32.484375 C 37.924687 32.475375 38.017344 32.392437 38.027344 32.273438 C 38.036344 32.171438 38.046875 32.07075 38.046875 31.96875 L 38.046875 25.822266 C 38.046875 25.739266 38.046109 25.665031 38.037109 25.582031 C 38.018109 25.370031 37.954188 25.306641 37.742188 25.306641 C 37.263188 25.297641 36.782734 25.297641 36.302734 25.306641 z M 55.505859 26.580078 C 55.672859 26.589078 55.837141 26.625453 55.994141 26.689453 C 56.234141 26.791453 56.389969 27.013484 56.417969 27.271484 C 56.445969 27.428484 56.437625 27.594 56.390625 27.75 C 56.280625 28.082 56.011453 28.219156 55.689453 28.285156 C 55.496453 28.331156 55.293844 28.351031 55.089844 28.332031 C 54.729844 28.332031 54.36 28.303047 54 28.248047 C 53.862 28.231047 53.862859 28.232938 53.880859 28.085938 C 53.908859 27.863937 53.973641 27.650266 54.056641 27.447266 C 54.333641 26.772266 54.914859 26.544078 55.505859 26.580078 z M 25.455078 26.65625 C 25.590172 26.657656 25.726984 26.671719 25.865234 26.699219 C 26.253234 26.754219 26.585187 27.003281 26.742188 27.363281 C 26.880188 27.658281 26.963422 27.980687 26.982422 28.304688 C 27.037422 28.894688 27.037094 29.485875 26.871094 30.046875 C 26.807094 30.332875 26.659266 30.590156 26.447266 30.785156 C 26.206266 30.988156 25.910656 31.109375 25.597656 31.109375 C 25.127656 31.138375 24.666953 31.036453 24.251953 30.814453 C 24.149953 30.768453 24.08475 30.666641 24.09375 30.556641 L 24.09375 28.886719 C 24.09375 28.333719 24.10275 27.777609 24.09375 27.224609 C 24.08475 27.095609 24.157344 26.985453 24.277344 26.939453 C 24.657594 26.759453 25.049797 26.652031 25.455078 26.65625 z M 31.394531 35.484375 C 31.325531 35.474375 31.255547 35.483141 31.185547 35.494141 C 30.601547 35.544141 30.176953 35.949141 30.126953 36.494141 C 30.067953 37.176141 30.384047 37.651781 30.998047 37.800781 C 31.107047 37.819781 31.216219 37.839844 31.324219 37.839844 C 32.126219 37.859844 32.729391 37.404906 32.650391 36.503906 C 32.631391 36.087906 32.365516 35.731031 31.978516 35.582031 C 31.790516 35.503031 31.591531 35.463375 31.394531 35.484375 z M 39.669922 35.554688 C 39.293922 35.554688 39.224609 35.624 39.224609 36 L 39.224609 39.207031 C 39.224609 39.277031 39.253125 39.346016 39.203125 39.416016 C 39.115125 39.406016 39.066094 39.345641 38.996094 39.306641 C 37.966094 38.702641 36.886875 38.594609 35.796875 39.099609 C 35.034875 39.455609 34.559906 40.100328 34.253906 40.861328 C 33.957906 41.594328 33.88625 42.366437 33.90625 43.148438 C 33.90625 43.881438 34.074344 44.602859 34.402344 45.255859 C 34.778344 45.978859 35.325187 46.533484 36.117188 46.771484 C 37.196187 47.108484 38.206953 46.939813 39.126953 46.257812 C 39.195953 46.218813 39.233266 46.148906 39.322266 46.128906 C 39.372266 46.236906 39.411641 46.356609 39.431641 46.474609 C 39.469641 46.632609 39.609344 46.740234 39.777344 46.740234 L 40.015625 46.740234 C 40.371625 46.740234 40.718406 46.749234 41.066406 46.740234 C 41.343406 46.740234 41.422594 46.652234 41.433594 46.365234 L 41.433594 35.929688 C 41.424594 35.621688 41.345875 35.553687 41.046875 35.554688 L 39.669922 35.554688 z M 54.800781 38.783203 C 54.485406 38.772078 54.168563 38.792797 53.851562 38.841797 C 52.515563 39.038797 51.554844 39.751531 51.089844 41.019531 C 50.633844 42.228531 50.644609 43.554719 51.099609 44.761719 C 51.495609 45.860719 52.286781 46.555797 53.425781 46.841797 C 54.029781 46.990797 54.664109 47.028453 55.287109 46.939453 C 57.366109 46.692453 58.227234 45.117953 58.365234 43.751953 C 58.365234 43.751953 58.416016 43.340344 58.416016 43.152344 L 58.40625 42.326172 C 58.41525 42.213172 58.376953 41.979703 58.376953 41.970703 C 58.356953 41.782703 58.317578 41.595016 58.267578 41.416016 C 57.900578 40.109016 57.078187 39.246156 55.742188 38.910156 C 55.429688 38.835656 55.116156 38.794328 54.800781 38.783203 z M 46.582031 38.869141 C 44.918031 38.908141 43.652719 39.750062 43.136719 41.414062 C 42.790719 42.513062 42.839781 43.633422 43.175781 44.732422 C 43.522781 45.861422 44.315359 46.543563 45.443359 46.851562 C 45.928359 46.969563 46.431734 47.019 46.927734 47 C 47.650734 46.99 48.372641 46.84975 49.056641 46.59375 C 49.344641 46.48575 49.412109 46.386078 49.412109 46.080078 L 49.412109 45.367188 C 49.403109 45.080187 49.283094 44.980781 48.996094 45.050781 C 48.779094 45.109781 48.571516 45.157031 48.353516 45.207031 C 47.690516 45.366031 46.998219 45.395344 46.324219 45.277344 C 45.651219 45.149344 45.194578 44.763844 45.017578 44.089844 C 44.967578 43.892844 44.928203 43.694328 44.908203 43.486328 C 44.957203 43.486328 45.007875 43.485859 45.046875 43.505859 C 45.701875 43.622859 46.364344 43.671094 47.027344 43.621094 C 47.602344 43.582094 48.175406 43.472313 48.691406 43.195312 C 49.216406 42.938313 49.582406 42.453906 49.691406 41.878906 C 49.761406 41.522906 49.762594 41.145063 49.683594 40.789062 C 49.474594 39.898063 48.909594 39.345594 48.058594 39.058594 C 47.582594 38.909594 47.078031 38.849141 46.582031 38.869141 z M 21.826172 39.027344 C 21.627172 39.027344 21.557891 39.127219 21.587891 39.324219 C 21.617891 39.453219 21.657797 39.594891 21.716797 39.712891 C 22.311797 41.276891 22.915766 42.829766 23.509766 44.384766 C 23.756766 45.037766 24.014719 45.701469 24.261719 46.355469 C 24.370719 46.632469 24.547469 46.770719 24.855469 46.761719 C 25.290469 46.752719 25.727109 46.752719 26.162109 46.761719 C 26.381109 46.781719 26.588203 46.643547 26.658203 46.435547 C 26.678203 46.374547 26.708516 46.314859 26.728516 46.255859 C 27.391516 44.532859 28.05575 42.801125 28.71875 41.078125 L 29.3125 39.503906 C 29.4415 39.146906 29.362328 39.037109 28.986328 39.037109 L 27.482422 39.037109 C 27.304422 39.037109 27.135938 39.145219 27.085938 39.324219 L 27.027344 39.503906 C 26.571344 41.038906 26.115156 42.562656 25.660156 44.097656 C 25.599156 44.294656 25.541422 44.484641 25.482422 44.681641 C 25.464422 44.681641 25.452938 44.682828 25.460938 44.673828 C 25.053937 43.296828 24.657953 41.909203 24.251953 40.533203 C 24.132953 40.157203 24.023063 39.770531 23.914062 39.394531 C 23.854062 39.185531 23.747766 39.027344 23.509766 39.027344 C 22.955766 39.027344 22.390172 39.018344 21.826172 39.027344 z M 30.671875 39.037109 C 30.363875 39.037109 30.284391 39.126594 30.275391 39.433594 L 30.275391 46.285156 C 30.275391 46.344156 30.276156 46.415609 30.285156 46.474609 C 30.305156 46.662609 30.39575 46.761719 30.59375 46.761719 C 31.12775 46.770719 31.6535 46.770719 32.1875 46.761719 C 32.3865 46.752719 32.473141 46.662844 32.494141 46.464844 L 32.494141 42.900391 L 32.494141 39.433594 C 32.494141 39.125594 32.404656 39.037109 32.097656 39.037109 L 30.671875 39.037109 z M 46.384766 40.386719 C 46.518422 40.374547 46.657531 40.377578 46.800781 40.392578 C 46.849781 40.392578 46.889453 40.412109 46.939453 40.412109 C 47.632453 40.521109 47.799875 41.077328 47.671875 41.611328 C 47.572875 42.007328 47.247859 42.156609 46.880859 42.224609 C 46.682859 42.263609 46.473625 42.284391 46.265625 42.275391 C 45.859625 42.266391 45.464359 42.235781 45.068359 42.175781 C 44.979359 42.166781 44.939984 42.127109 44.958984 42.037109 C 45.027984 41.650109 45.116469 41.275031 45.355469 40.957031 C 45.630719 40.593281 45.983797 40.423234 46.384766 40.386719 z M 37.933594 40.462891 C 38.324953 40.479859 38.708953 40.576734 39.064453 40.740234 C 39.183453 40.779234 39.253141 40.898344 39.244141 41.027344 C 39.225141 41.642344 39.236328 42.236844 39.236328 42.839844 L 39.236328 44.640625 C 39.257328 44.759625 39.187125 44.869969 39.078125 44.917969 C 38.603125 45.184969 38.059438 45.293844 37.523438 45.214844 C 37.067437 45.165844 36.672844 44.889422 36.464844 44.482422 C 36.305844 44.166422 36.2175 43.828422 36.1875 43.482422 C 36.1085 42.858422 36.156687 42.225094 36.304688 41.621094 C 36.353687 41.453094 36.412953 41.294719 36.501953 41.136719 C 36.709953 40.750719 37.106016 40.502656 37.541016 40.472656 C 37.672266 40.460156 37.803141 40.457234 37.933594 40.462891 z M 54.408203 40.521484 C 54.596203 40.501484 54.784656 40.502969 54.972656 40.542969 C 55.368656 40.621969 55.694047 40.879141 55.873047 41.244141 C 56.040047 41.591141 56.140156 41.978281 56.160156 42.363281 C 56.169156 42.541281 56.180922 42.717484 56.169922 42.896484 C 56.197922 43.334484 56.14825 43.761969 56.03125 44.167969 C 55.97225 44.375969 55.881906 44.563187 55.753906 44.742188 C 55.535906 45.049188 55.190453 45.245391 54.814453 45.275391 C 54.626453 45.295391 54.438 45.295859 54.25 45.255859 C 53.833 45.175859 53.486359 44.900672 53.318359 44.513672 C 53.169359 44.206672 53.082734 43.870203 53.052734 43.533203 C 53.002734 42.949203 52.992859 42.364063 53.130859 41.789062 C 53.179859 41.561062 53.280437 41.335719 53.398438 41.136719 C 53.616438 40.780719 53.992203 40.551484 54.408203 40.521484 z M 55.466797 49.544922 C 54.861797 49.562922 54.263828 49.621187 53.673828 49.742188 C 52.909828 49.925187 52.189828 50.203109 51.548828 50.662109 C 51.444828 50.723109 51.357109 50.81125 51.287109 50.90625 C 51.226109 51.00925 51.200719 51.112797 51.261719 51.216797 C 51.322719 51.320797 51.426063 51.329313 51.539062 51.320312 L 52.589844 51.191406 C 53.379844 51.087406 54.175609 51.052891 54.974609 51.087891 C 55.261609 51.104891 55.537641 51.156188 55.806641 51.242188 C 56.091641 51.329188 56.284969 51.581953 56.292969 51.876953 C 56.309969 52.050953 56.301203 52.222484 56.283203 52.396484 C 56.222203 52.874484 56.126328 53.341781 55.986328 53.800781 C 55.751328 54.642781 55.458297 55.447672 55.154297 56.263672 C 55.119297 56.350672 55.10275 56.438391 55.09375 56.525391 C 55.10275 56.690391 55.206094 56.777375 55.371094 56.734375 C 55.475094 56.699375 55.570438 56.638547 55.648438 56.560547 C 56.038438 56.196547 56.376297 55.779313 56.654297 55.320312 C 57.418297 54.045313 57.877234 52.615812 57.990234 51.132812 C 58.007234 50.880812 57.999844 50.629719 57.964844 50.386719 C 57.938844 50.179719 57.809375 49.987203 57.609375 49.908203 C 57.463375 49.838203 57.315203 49.787141 57.158203 49.744141 C 56.603203 49.596141 56.039797 49.561922 55.466797 49.544922 z M 22.25 49.988281 C 22.189375 50.002531 22.133344 50.035031 22.089844 50.082031 C 22.002844 50.176031 21.975344 50.307688 22.027344 50.429688 C 22.062344 50.516687 22.123359 50.603063 22.193359 50.664062 C 22.488359 50.942062 22.774125 51.219281 23.078125 51.488281 C 26.339125 54.376281 30.077938 56.361609 34.335938 57.349609 C 35.566937 57.634609 36.823844 57.825875 38.089844 57.921875 C 38.567844 57.956875 39.044484 57.974 39.521484 58 C 39.867484 57.991 40.214547 57.991 40.560547 58 C 41.939547 57.948 43.310922 57.800594 44.669922 57.558594 C 47.027922 57.116594 49.317937 56.343766 51.460938 55.259766 C 52.596938 54.687766 53.672922 54.003656 54.669922 53.222656 C 54.791922 53.136656 54.885078 53.022578 54.955078 52.892578 C 54.972078 52.857578 54.989047 52.814297 54.998047 52.779297 C 55.067047 52.492297 54.896375 52.198906 54.609375 52.128906 C 54.435375 52.085906 54.245844 52.112219 54.089844 52.199219 C 53.039844 52.684219 51.964281 53.100844 50.863281 53.464844 C 48.773281 54.158844 46.612734 54.653641 44.427734 54.931641 C 43.491734 55.053641 42.554375 55.140016 41.609375 55.166016 C 39.857375 55.227016 38.098469 55.148641 36.355469 54.931641 C 35.141469 54.774641 33.935281 54.557297 32.738281 54.279297 C 29.172281 53.448297 25.773156 52.042187 22.660156 50.117188 C 22.590156 50.074188 22.513547 50.040859 22.435547 50.005859 C 22.375547 49.979859 22.310625 49.974031 22.25 49.988281 z M 18 63 C 17.448 63 17 63.448 17 64 C 17 64.552 17.448 65 18 65 C 18.552 65 19 64.552 19 64 C 19 63.448 18.552 63 18 63 z M 22 63 C 21.448 63 21 63.448 21 64 C 21 64.552 21.448 65 22 65 C 22.552 65 23 64.552 23 64 C 23 63.448 22.552 63 22 63 z M 26 63 C 25.448 63 25 63.448 25 64 C 25 64.552 25.448 65 26 65 C 26.552 65 27 64.552 27 64 C 27 63.448 26.552 63 26 63 z M 30 63 C 29.448 63 29 63.448 29 64 C 29 64.552 29.448 65 30 65 C 30.552 65 31 64.552 31 64 C 31 63.448 30.552 63 30 63 z M 34 63 C 33.448 63 33 63.448 33 64 C 33 64.552 33.448 65 34 65 C 34.552 65 35 64.552 35 64 C 35 63.448 34.552 63 34 63 z M 38 63 C 37.448 63 37 63.448 37 64 C 37 64.552 37.448 65 38 65 C 38.552 65 39 64.552 39 64 C 39 63.448 38.552 63 38 63 z M 42 63 C 41.448 63 41 63.448 41 64 C 41 64.552 41.448 65 42 65 C 42.552 65 43 64.552 43 64 C 43 63.448 42.552 63 42 63 z M 46 63 C 45.448 63 45 63.448 45 64 C 45 64.552 45.448 65 46 65 C 46.552 65 47 64.552 47 64 C 47 63.448 46.552 63 46 63 z M 50 63 C 49.448 63 49 63.448 49 64 C 49 64.552 49.448 65 50 65 C 50.552 65 51 64.552 51 64 C 51 63.448 50.552 63 50 63 z M 54 63 C 53.448 63 53 63.448 53 64 C 53 64.552 53.448 65 54 65 C 54.552 65 55 64.552 55 64 C 55 63.448 54.552 63 54 63 z M 58 63 C 57.448 63 57 63.448 57 64 C 57 64.552 57.448 65 58 65 C 58.552 65 59 64.552 59 64 C 59 63.448 58.552 63 58 63 z M 62 63 C 61.448 63 61 63.448 61 64 C 61 64.552 61.448 65 62 65 C 62.552 65 63 64.552 63 64 C 63 63.448 62.552 63 62 63 z"/></svg>